/* XPM */
static char *result[] = {
/* columns rows colors chars-per-pixel */
"64 64 49 1 ",
"  c black",
". c #010101",
"X c #020202",
"o c gray1",
"O c #040404",
"+ c gray2",
"@ c #060606",
"# c #070707",
"$ c gray3",
"% c #090909",
"& c gray4",
"* c #0B0B0B",
"= c #0C0C0C",
"- c gray5",
"; c #0E0E0E",
": c gray6",
"> c #101010",
", c #111111",
"< c gray8",
"1 c #151515",
"2 c #161616",
"3 c gray9",
"4 c #191919",
"5 c gray10",
"6 c #1B1B1B",
"7 c gray11",
"8 c #1D1D1D",
"9 c #1E1E1E",
"0 c gray12",
"q c gray13",
"w c #232323",
"e c #252525",
"r c gray15",
"t c gray17",
"y c #313131",
"u c #353535",
"i c gray22",
"p c gray24",
"a c gray25",
"s c #464646",
"d c gray28",
"f c gray29",
"g c #505050",
"h c #515151",
"j c #5B5B5B",
"k c #5D5D5D",
"l c DimGray",
"z c #6A6A6A",
"x c gray48",
/* pixels */
"ffffffffffffffffffffffffffffffffffffffffffffffffffffffffffffffff",
"ffffffffffffffffffffffffffffffffffffffffffffffffffffffffffffffff",
"ffxxlllllllllllllllllllllffxxlllllllllllllllllllllffxxllllllllll",
"ffxxlllllllllllllllllllllffxxlllllllllllllllllllllffxxllllllllll",
"ffxxllllllllllllllllllljgaakzgjgjjggllllllllllllllffxxllllllllll",
"ffxxlllllllllllllllljssjjiakzgjjggllllllllllllllllffxxllllllllll",
"ffxxllllllllllllllssgss7%,:$4$2$>4&=jgglllllllllllffxxllllllllll",
"ffxxllllllllllllssssq++q7$5:t-ee--llllllllllllllllffxxllllllllll",
"ffxxlllllllllljusj++-&q             %=ggllllllllllffxxllllllllll",
"ffxxxxxxxxxxxhhz++:r                 -=zxxxxxxxxxxffxxxxxxxxxxxx",
"ffxxxxxxxxxxhkr tx                    -kzkxxxxxxxxffxxxxxxxxxxxx",
"fffffffffffaio%f                     3$<aiyfffffffffffffffffffff",
"fffffffffffyof5                      ++y:%fiyfffffffffffffffffff",
"lllllllllls73%         .... . .         *7%jlpllllllllllllllllff",
"llllllllljgO5       .X9jgqOo=o            =oqggjllllllllllllllff",
"lllllllllsOj      X6jgq++ellljg            7.-gjglllllllllllllff",
"llllllllg4e.     $gj-+ellllle--e             O-gjjllllllllllllff",
"lllllllljOq     &je-ellllllllle+   .%         eXggjlllllllllllff",
"llllllll&q     %z--llllllllllllljg7.   o       -+jglllllllllllff",
"xxxxxxxz8+     8ttxxxxxxxxxxxxxxxxxxxao.        X-xhxxxxxxxxxxff",
"xxxxxxxkO     Ozttxxxxxxxxxxxxxxxxxxxfft+=o      +rzzxxxxxxxxxff",
"fffffff3X     #%%ffffffffffffffffffffffffo##o     .fyfffffffffff",
"fffffff.,     #5ffffffffffffffffffffffffff5$#     %ofiffffffffff",
"ffxxlll=     Oqelllllllllffxxlllllllllllllleq7     othllllllllll",
"ffxxlll&      =llllllllllffxxllllllllllllllel7q     +xglllllllll",
"ffxxlle4     Oqllllllllllffxxlllllllllllllll-eq     Otslllllllll",
"ffxxll-7     Oqllllllllllffxxlllllllllllllllle==     .lgllllllll",
"ffxxlle4     Ojllllllllllffxxllllllllllllllllelq     Oesllllllll",
"ffxxlle7     Xjllllllllllffxxllllllllllllllllle7e     +lglllllll",
"ffxxlle&     Ogllllllllllffxxlllllllllllllllll-lq     +eplllllll",
"ffxxxxtq     Xzxxxxxxxxxxffxxxxxxxxxxxxxxxxxxxxt-:     Xzzxxxxxx",
"ffxxxxtq     Xzxxxxxxxxxxffxxxxxxxxxxxxxxxxxxxxtxr     Xrkxxxxxx",
"ffffff5:     oafffffffffffffffffffffffffffffffff5<%     oiffffff",
"ffffff%<     oafffffffffffffffffffffffffffffffff%f$     oiffffff",
"lllllle&     okxxllllllllllllllllllllffxxlllllllle&     +jjlllff",
"lllllleq      kxxllllllllllllllllllllffxxllllllll-j     -7jlllff",
"lllllleq     .hxxllllllllllllllllllllffxxllllllllejo     &jlllff",
"lllllleg     .zzxllllllllllllllllllllffxxllllllllelo     =glllff",
"llllll-j     .thxllllllllllllllllllllffxxlllllllllqo     +glllff",
"llllllej+     +kxllllllllllllllllllllffxxlllllllll7$     Xjlllff",
"llllllelq     Xxhllllllllllllllllllllffxxlllllllll&%     .llllff",
"xxxxxxxtq     -tkxxxxxxxxxxxxxxxxxxxxffxxxxxxxxxxz.8     *xxxxff",
"xxxxxxx:zt     Xxhxxxxxxxxxxxxxxxxxxxffxxxxxxxxxxh.     .rxxxxff",
"fffffff5f$     %$iffffffffffffffffffffffffffffffi3o      %ffffff",
"ffffffff535     .ayffffffffffffffffffffffffffffai.<     X%ffffff",
"ffxxllllel7     +egjlllllffxxlllllllllllllllllls&-     oeellllll",
"ffxxlllll-qe      lpjllllffxxllllllllllllllllls4eO     Oelllllll",
"ffxxlllllel=     7Xlgjlllffxxlllllllllllllljgss+-     7--lllllll",
"ffxxlllllleqe     =Xlssllffxxllllllllllllgsjsj+e     &geelllllll",
"ffxxllllllel7q     7Oljgjffxxllllllllllgsss4&+=4     reellllllll",
"ffxxlllllll-eq6     q qggiizkjjllllljssgj-+eOje     *x--llllllll",
"ffxxxxxxxxxxt:=&     q+r8aykzxxzzkkhkkz:+:r        3zttxxxxxxxxx",
"ffxxxxxxxxxxxtt8w      O8;@q=8qdkhhhr++rk         #ittxxxxxxxxxx",
"ffffffffffffff55,1       oo3<iy,<$$o#3a          .if55ffffffffff",
"fffffffffffffff%5<1            o#$$5            1yf%%fffffffffff",
"llllllllllllffxxt-%$                           6sleellllllllllff",
"llllllllllllffxxx--76                      . O%jleelllllllllllff",
"llllllllllllffxxxll+.o%                  %6jgqO++-llllllllllllff",
"llllllllllllffxxxllll&.                &0jje-ellllllllllllllllff",
"llllllllllllffxxxllllllqO    .*     .X1zze-ellllllllllllllllllff",
"llllllllllllffxxxlllllllljgqO.    *9ji3++ellllllllllllllllllllff",
"llllllllllllffxxxlllllllllllllljj7=O+%5xxlllllllllllllllllllllff",
"xxxxxxxxxxxxffxxxxxxxxxxxxxxxxxxxxxxxffxxxxxxxxxxxxxxxxxxxxxxxff",
"xxxxxxxxxxxxffxxxxxxxxxxxxxxxxxxxxxxxffxxxxxxxxxxxxxxxxxxxxxxxff"
};
