/* XPM */
static char *result[] = {
/* columns rows colors chars-per-pixel */
"64 64 47 1 ",
"  c black",
". c #010101",
"X c #020202",
"o c gray1",
"O c #040404",
"+ c gray2",
"@ c #060606",
"# c #070707",
"$ c gray3",
"% c #090909",
"& c gray4",
"* c #0B0B0B",
"= c #0C0C0C",
"- c gray5",
"; c gray6",
": c #111111",
"> c gray8",
", c #151515",
"< c gray9",
"1 c #191919",
"2 c gray10",
"3 c #1B1B1B",
"4 c gray11",
"5 c #1D1D1D",
"6 c #1E1E1E",
"7 c gray12",
"8 c gray13",
"9 c gray14",
"0 c #252525",
"q c gray15",
"w c gray17",
"e c #2F2F2F",
"r c #313131",
"t c #353535",
"y c gray22",
"u c gray24",
"i c gray25",
"p c #464646",
"a c gray28",
"s c gray29",
"d c #505050",
"f c #515151",
"g c #5B5B5B",
"h c #5D5D5D",
"j c DimGray",
"k c #6A6A6A",
"l c gray48",
/* pixels */
"ssssssssssssssssssssssssssssssssssssssssssssssssssssssssssssssss",
"ssssssssssssssssssssssssssssssssssssssssssssssssssssssssssssssss",
"sslljjjjjjjjjjjjjjjjjjjjjsslljjjjjjjjjjjjjjjjjjjjjsslljjjjjjjjjj",
"sslljjjjjjjjjjjjjjjjjjjjjsslljjjjjjjjjjjjjjjjjjjjjsslljjjjjjjjjj",
"sslljjjjjjjjjjjjjjjjjjjjjsslljjjjdjjjjjjjjjjjjjjjjsslljjjjjjjjjj",
"sslljjjjjjjjjjjjjjjjjjjjjsslljjddujjjjjjjjjjjjjjjjsslljjjjjjjjjj",
"sslljjjjjjjjjjjjjjjjjjjjjsslljued=jjdjjjjjjjjjjjjjsslljjjjjjjjjj",
"sslljjjjjjjjjjjjjjjjjjjjjsslld9@-Xjdujjjjjjjjjjjjjsslljjjjjjjjjj",
"sslljjjjjjjjjjjjjjjjjjjjjssllp.X- j&gdjjjjjjjjjjjjsslljjjjjjjjjj",
"sslllllllllllllllllllllllsslf* *   X&allllllllllllssllllllllllll",
"sslllllllllllllllllllllllssfhOO      kllllllllllllssllllllllllll",
"ssssssssssssssssssssssssssiro2       issssssssssssssssssssssssss",
"ssssssssssssssssssssssssssrXi.      #yssssssssssssssssssssssssss",
"jjjjjjjjjjjjssllljjjjjjjjg4&+       Oislljjjjjjjjjjjjjjjjjjjjjss",
"jjjjjjjjjjjjssllljjjjjjjjpoj         yslljjjjjjjjjjjjjjjjjjjjjss",
"jjjjjjjjjjjjssllljjjjjjjp48          islljjjjjjjjjjjjjjjjjjjjjss",
"jjjjjjjjjjjjssllljjjjjjgdoO         Xislljjjjjjjjjjjjjjjjjjjjjss",
"jjjjjjjjjjjjssllljjjjjjpo0          Oislljjjjjjjjjjjjjjjjjjjjjss",
"jjjjjjjjjjjjssllljjjjjp,0.          Xislljjjjjjjjjjjjjjjjjjjjjss",
"llllllllllllsslllllllfh+;     .     +yslllllllllllllllllllllllss",
"llllllllllllssllllllaf+;     o5      islllllllllllllllllllllllss",
"ssssssssssssssssssiwio2$     ##     .issssssssssssssssssssssssss",
"sssssssssssssssssrwr.22     #2@     oissssssssssssssssssssssssss",
"sslljjjjjjjjjjjjue0Xjj     8kXo     Ogjjjjjjjjjjjjsslljjjjjjjjjj",
"sslljjjjjjjjjjjuuo+-      Xhw-4     Ogjjjjjjjjjjjjsslljjjjjjjjjj",
"sslljjjjjjjjjjddXXj      Xylw-&     Xdjjjjjjjjjjjjsslljjjjjjjjjj",
"sslljjjjjjjjjjjX-j      *ws;;04     Xgjjjjjjjjjjjjsslljjjjjjjjjj",
"sslljjjjjjjjjj-jj      %ds2wl04     Xgjjjjjjjjjjjjsslljjjjjjjjjj",
"sslljjjjjjjjjjjj      opj%%ll01     Ogjjjjjjjjjjjjsslljjjjjjjjjj",
"sslljjjjjjjjjjj      <gj02sll-1     Ogjjjjjjjjjjjjsslljjjjjjjjjj",
"ssllllllllllll*;    ffw;wssllw8     +kllllllllllllssllllllllllll",
"sslllllllllll;ll; .@l;;llssllw=     Xhllllllllllllssllllllllllll",
"sssssssssssssss%%@yy%.%ssssss2>     .issssssssssssssssssssssssss",
"sssssssssssssssssys%%ssssssss2>     .issssssssssssssssssssssssss",
"jjjjjjjjjjjjssllljjjjjjjjjjjj01     Oislljjjjjjjjjjjjjjjjjjjjjss",
"jjjjjjjjjjjjssllljjjjjjjjjjjj-1     Oislljjjjjjjjgjjjjjjjjjjjjss",
"jjjjjjjjjjjjssllljjjjjjjjjjjj04     Oislljjjjjjpgjjjjjjjjjjjjjss",
"jjjjjjjjjjjjssllljjjjjjjjjjjj0&     Xyslljjjjpugj0jjgjjjjjjjjjss",
"jjjjjjjjjjjjssllljjjjjjjjjjjj08     Xysllgddtpg+0jdgjjjjjjjjjjss",
"jjjjjjjjjjjjssllljjjjjjjjjjjj08     Xwihfgdpd+Xjg j0jgjjjjjjjjss",
"jjjjjjjjjjjjssllljjjjjjjjjjjj0d     .yrff4=- 4g    d8jjjjjjjjjss",
"llllllllllllsslllllllllllllll;k     .#-;+q--l       wlllllllllss",
"llllllllllllsslllllllllllllllwfo     .@-w          wllllllllllss",
"ssssssssssssssssssssssssssssy:r;                  sissssssssssss",
"ssssssssssssssssssssssssssrryio.                 :isssssssssssss",
"sslljjjjjjjjjjjjjjjjjjjjdwyk;+X4               o<gs2wljjjjjjjjjj",
"sslljjjjjjjjjjjjjjjjjjjtuio+wd               o$dg-o2lljjjjjjjjjj",
"sslljjjjjjjjjjjjjjjjjdtd-.2l             ..*6gd0+-sslljjjjjjjjjj",
"sslljjjjjjjjjjjjjjjpudg -s           .o*6gd8O+-0jjsslljjjjjjjjjj",
"sslljjjjjjjjjjjjjddpd- jg           3==8=--0jjjjjjsslljjjjjjjjjj",
"sslljjjjjjjjjjjjdpg+X0d         .o6pg+X0jjjjjjjjjjsslljjjjjjjjjj",
"sslllllllllllllll;;;l         *7khq++wllllllllllllssllllllllllll",
"ssllllllllllllll;wl         &7kkw;wlllllllllllllllssllllllllllll",
"ssssssssssssssssss        X:ii2%2sssssssssssssssssssssssssssssss",
"sssssssssssssssss        @ri%o2sssssssssssssssssssssssssssssssss",
"jjjjjjjjjjjjssllh8     %<dj--jjjjjjjjsslljjjjjjjjjjjjjjjjjjjjjss",
"jjjjjjjjjjjjssl;wjj  o$gg0-0jjjjjjjjjsslljjjjjjjjjjjjjjjjjjjjjss",
"jjjjjjjjjjjjsslll-+o6gd0+-jjjjjjjjjjjsslljjjjjjjjjjjjjjjjjjjjjss",
"jjjjjjjjjjjjssllljjdg-+0jjjjjjjjjjjjjsslljjjjjjjjjjjjjjjjjjjjjss",
"jjjjjjjjjjjjssllljjjjjjjjjjjjjjjjjjjjsslljjjjjjjjjjjjjjjjjjjjjss",
"jjjjjjjjjjjjssllljjjjjjjjjjjjjjjjjjjjsslljjjjjjjjjjjjjjjjjjjjjss",
"jjjjjjjjjjjjssllljjjjjjjjjjjjjjjjjjjjsslljjjjjjjjjjjjjjjjjjjjjss",
"llllllllllllsslllllllllllllllllllllllsslllllllllllllllllllllllss",
"llllllllllllsslllllllllllllllllllllllsslllllllllllllllllllllllss"
};
