/* XPM */
static char *result[] = {
/* columns rows colors chars-per-pixel */
"64 64 43 1 ",
"  c black",
". c #010101",
"X c #020202",
"o c gray1",
"O c #040404",
"+ c gray2",
"@ c #060606",
"# c #070707",
"$ c gray3",
"% c #090909",
"& c gray4",
"* c #0B0B0B",
"= c #0C0C0C",
"- c gray5",
"; c gray6",
": c #131313",
"> c gray8",
", c #151515",
"< c #161616",
"1 c gray9",
"2 c #191919",
"3 c gray10",
"4 c gray11",
"5 c #1D1D1D",
"6 c gray13",
"7 c #232323",
"8 c #252525",
"9 c gray15",
"0 c gray17",
"q c #313131",
"w c gray22",
"e c gray24",
"r c gray25",
"t c #464646",
"y c gray28",
"u c gray29",
"i c #505050",
"p c #515151",
"a c #5B5B5B",
"s c #5D5D5D",
"d c DimGray",
"f c #6A6A6A",
"g c gray48",
/* pixels */
"uuuuuuuuuuuuuuuuuuuuuuuuuuuuuuuuuuuuuuuuuuuuuuuuuuuuuuuuuuuuuuuu",
"uuuuuuuuuuuuuuuuuuuuuuuuuuuuuuuuuuuuuuuuuuuuuuuuuuuuuuuuuuuuuuuu",
"uuggddddddddddddddddddddduuggddddddddddddddddddddduuggdddddddddd",
"uuggddddddddddddddddddddduuggddddddddddddddddddddduuggdddddddddd",
"uuggddddddddddddddddddddduuggddddddddddddddddddddduuggdddddddddd",
"uuggddddddddddddddddddddduuggddddddddddddddddddddduuggdddddddddd",
"uuggddddddddddddddddddddduuggddddddddddddddddddddduuggdddddddddd",
"uuggddddddddddddddddddddduuggddddddddddddddddddddduuggdddddddddd",
"uuggddddddddddddddddddddduwffiaaaiaddddddddddddddduuggdddddddddd",
"uugggggggggggggggggggggsywrsfffsfggsgggggggggggggguugggggggggggg",
"uugggggggggggggggggggsyppw@56%225*9psfgggggggggggguugggggggggggg",
"uuuuuuuuuuuuuuuuuuuu008$.%>#133%>0u$uuwuuuuuuuuuuuuuuuuuuuuuuuuu",
"uuuuuuuuuuuuuuuuuuuw0#.o3>         .1wquuuuuuuuuuuuuuuuuuuuuuuuu",
"dddddddddddduugggdde.=+             -orsgddddddddddddddddddddduu",
"dddddddddddduugggdi%-&               o#sgddddddddddddddddddddduu",
"dddddddddddduugggda.d                 .fgddddddddddddddddddddduu",
"dddddddddddduugggd&2                  osgddddddddddddddddddddduu",
"dddddddddddduugggd6.      ....O       ofgddddddddddddddddddddduu",
"dddddddddddduugggdX      >ia=O=       osgddddddddddddddddddddduu",
"gggggggggggguuggggO     o%X+0gg05      fgggggggggggggggggggggguu",
"gggggggggggguuggg;f      -fgggg;5      fgggggggggggggggggggggguu",
"uuuuuuuuuuuuuuuuu3w      Xwuuuu3;     oruuuuuuuuuuuuuuuuuuuuuuuu",
"uuuuuuuuuuuuuuuuu%r#     Xruuuu$@     .wuuuuuuuuuuuuuuuuuuuuuuuu",
"uuggddddddddddddd8d.     owggdd2&     Xadddddddddduuggdddddddddd",
"uuggdddddddddddddd8O     owggdi%4      ddddddddddduuggdddddddddd",
"uuggdddddddddddddd-a     .uggdiXt     =ddddddddddduuggdddddddddd",
"uuggdddddddddddddd8i     ougga&O     X8ddddddddddduuggdddddddddd",
"uuggdddddddddddddd-i8   &%uggi=4     &8ddddddddddduuggdddddddddd",
"uuggdddddddddddddd-d-- d43ugf4&     O--ddddddddddduuggdddddddddd",
"uuggdddddddddddddddd--#d-%ugp=2     488ddddddddddduuggdddddddddd",
"uuggggggggggggggggggggsg;%us5+     &00gggggggggggguugggggggggggg",
"uuggggggggggggggggggggggguus+6     600gggggggggggguugggggggggggg",
"uuuuuuuuuuuuuuuuuuuuuuuuuur#%     @%%uuuuuuuuuuuuuuuuuuuuuuuuuuu",
"uuuuuuuuuuuuuuuuuuuuuuuuuur#>     >33uuuuuuuuuuuuuuuuuuuuuuuuuuu",
"dddddddddddduugggddddddddd4=     O88duuggddddddddddddddddddddduu",
"dddddddddddduugggdddddddda2&     488duuggddddddddddddddddddddduu",
"dddddddddddduugggddddddddiX     &68dduuggddddddddddddddddddddduu",
"dddddddddddduugggdddddddd4O     &88dduuggddddddddddddddddddddduu",
"dddddddddddduugggdddddddaO4     O-ddduuggddddddddddddddddddddduu",
"dddddddddddduugggdddddddiO     O68ddduuggddddddddddddddddddddduu",
"dddddddddddduugggdddddda2=     .8dddduuggddddddddddddddddddddduu",
"gggggggggggguugggggggggsOp     -0gggguuggggggggggggggggggggggguu",
"gggggggggggguuggggggggg6X     &00gggguuggggfsfffgggggggggggggguu",
"uuuuuuuuuuuuuuuuuuuuuur#@     @3uuuuuuurrqqrrruuuuuuuuuuuuuuuuuu",
"uuuuuuuuuuuuuuuuuuuuuuqo     o##rrrrwwwwwqq>#11>rrruuuuuuuuuuuuu",
"uuggdddddddddddddddddi2=     X66aaiaiit26+O646dddduuggdddddddddd",
"uuggdddddddddddddddddaXi     $&&4<:2&==&==8     46rrggdddddddddd",
"uuggddddddddddddddddd&o     .X&668-8-8-          83uggdddddddddd",
"uuggddddddddddddddddd4X     .=                    3uggdddddddddd",
"uuggddddddddddddddddd+                           duuggdddddddddd",
"uuggdddddddddddddddddo                          aauuggdddddddddd",
"uugggggggggggggggggg;f                     ..O=7gguugggggggggggg",
"uugggggggggggggggggg0s                 ..o7fs9++;;3ugggggggggggg",
"uuuuuuuuuuuuuuuuuuuu%w>       ..oo...$,rr>$oo3uuuuuuuuuuuuuuuuuu",
"uuuuuuuuuuuuuuuuuuuu%%o%    #,rw1oo$#$oo%3uuuuuuuuuuuuuuuuuuuuuu",
"dddddddddddduugggddddd-X oO&a=+-8dddduuggddddddddddddddddddddduu",
"dddddddddddduugggdddddddii=X+8ddddddduuggddddddddddddddddddddduu",
"dddddddddddduugggdddddddddddddddddddduuggddddddddddddddddddddduu",
"dddddddddddduugggdddddddddddddddddddduuggddddddddddddddddddddduu",
"dddddddddddduugggdddddddddddddddddddduuggddddddddddddddddddddduu",
"dddddddddddduugggdddddddddddddddddddduuggddddddddddddddddddddduu",
"dddddddddddduugggdddddddddddddddddddduuggddddddddddddddddddddduu",
"gggggggggggguuggggggggggggggggggggggguuggggggggggggggggggggggguu",
"gggggggggggguuggggggggggggggggggggggguuggggggggggggggggggggggguu"
};
