/* XPM */
static char *result[] = {
/* columns rows colors chars-per-pixel */
"64 64 45 1 ",
"  c black",
". c #010101",
"X c #020202",
"o c gray1",
"O c #040404",
"+ c gray2",
"@ c #060606",
"# c #070707",
"$ c gray3",
"% c #090909",
"& c gray4",
"* c #0B0B0B",
"= c #0C0C0C",
"- c gray5",
"; c gray6",
": c #111111",
"> c gray8",
", c #161616",
"< c gray9",
"1 c #191919",
"2 c gray10",
"3 c gray11",
"4 c #1D1D1D",
"5 c #1E1E1E",
"6 c gray13",
"7 c #232323",
"8 c #252525",
"9 c gray15",
"0 c gray17",
"q c #313131",
"w c #353535",
"e c gray22",
"r c gray24",
"t c #3E3E3E",
"y c gray25",
"u c #464646",
"i c gray28",
"p c gray29",
"a c #505050",
"s c #515151",
"d c #5B5B5B",
"f c #5D5D5D",
"g c DimGray",
"h c #6A6A6A",
"j c gray48",
/* pixels */
"pppppppppppppppppppppppppppppppppppppppppppppppppppppppppppppppp",
"pppppppppppppppppppppppppppppppppppppppppppppppppppppppppppppppp",
"ppjjgggggggggggggggggggggppjjgggggggggggggggggggggppjjgggggggggg",
"ppjjgggggggggggggggggggggppjjgggggggggggggggggggggppjjgggggggggg",
"ppjjgggggggggggggggggggggppjjgggggggggggggggggggggppjjgggggggggg",
"ppjjgggggggggggggggggggggppjjgggggggggggggggggggggppjjgggggggggg",
"ppjjgggggggggggggggggggggppjjgggggggggggggggggggggppjjgggggggggg",
"ppjjgggggggggggggggggadadyehhaddaddadadgggggggggggppjjgggggggggg",
"ppjjggggggggggggggauuaddayyfhdaddadadggaggggggggggppjjgggggggggg",
"ppjjjjjjjjjjjjjjifiss*6*,:+14$14$11$6*6sfhjjjjjjjjppjjjjjjjjjjjj",
"ppjjjjjjjjjjjjftss=++*96;22;00;00;0;6ij;fjfjjjjjjjppjjjjjjjjjjjj",
"ppppppppppppp08q.%.>$                  .>eqppppppppppppppppppppp",
"pppppppppppp00% 2%                      .op0pppppppppppppppppppp",
"ggggggggggga0.+;                         +-uggggggggggggggggggpp",
"gggggggggggg.%j                            dagggggggggggggggggpp",
"ggggggggggg-%p                            +&dgggggggggggggggggpp",
"ggggggggggggp         ............. ..     Odgggggggggggggggggpp",
"gggggggggggg       o%ad&OOO=OO=OO=O $      -agggggggggggggggggpp",
"ggggggggggg&e    <ad&++-gggggggggggu&      +dgggggggggggggggggpp",
"jjjjjjjjjj;;p%  is;+0jjjjjjjjjjjjjsiX$     Ojjjjjjjjjjjjjjjjjjpp",
"jjjjjjjjjjjj%..$j;;jjjjjjjjjjjjjjif+;e     +jjjjjjjjjjjjjjjjjjpp",
"ppppppppppppppee%.%ppppppppppppy8eo%%     X2pppppppppppppppppppp",
"ppppppppppppppppppppppppppppppqqy.2p     2<2pppppppppppppppppppp",
"ppjjgggggggggggggggggggggppjjrr8 gg     oa--ggggggppjjgggggggggg",
"ppjjgggggggggggggggggggggpphtd+-g      oag88ggggggppjjgggggggggg",
"ppjjgggggggggggggggggggggpqsiX=a      Org--gggggggppjjgggggggggg",
"ppjjggggggggggggggggggggge06 ad      Xug88ggggggggppjjgggggggggg",
"ppjjgggggggggggggggggggggeX**       Xwd$-gggggggggppjjgggggggggg",
"ppjjggggggggggggggggggggg%%;       @u3-8udggggggggppjjgggggggggg",
"ppjjggggggggggggggggggggg%%          o.=aaagggggggppjjgggggggggg",
"ppjjjjjjjjjjjjjjjjjjjjjjjp             O+fhfjjjjjjppjjjjjjjjjjjj",
"ppjjjjjjjjjjjjjjjjjjjjjjj>              0 fffjjjjjppjjjjjjjjjjjj",
"pppppppppppppppppppppppp%ee              %.pqppppppppppppppppppp",
"pppppppppppppppppppppppp%%o.              ..p0pppppppppppppppppp",
"ggggggggggggppjjjggggggggg-X    .  O#      +-uggggggggggggggggpp",
"ggggggggggggppjjjgggggggggggaa=XOOO  ..      dagggggggggggggggpp",
"ggggggggggggppjjjggggggggggggggggggg-$@     +&agggggggggggggggpp",
"ggggggggggggppjjjgggggggggggggggggggg%$o     Xdgggggggggggggggpp",
"ggggggggggggppjjjgggggggggggggggggggg2p.     Oagggggggggggggggpp",
"ggggggggggggppjjjggggggggggggggggggggp%$     Odgggggggggggggggpp",
"ggggggggggggppjjjggggggggggggggggggggp@%     +agggggggggggggggpp",
"jjjjjjjjjjjjppjjjhjjjjjjjjjjjjjjjjjjj0>O      hjjjjjjjjjjjjjjjpp",
"jjjjjjjjjjjjppjhjffhfhjjjjjjjjjjjjjfte -      jjjjjjjjjjjjjjjjpp",
"ppppppppppppppyqe<eyypyeyyeyyyeyyq0ey.%e     %pppppppppppppppppp",
"ppppppppppppppe;q@@<@;eqqyyyeyyeeqe% p$     .%pppppppppppppppppp",
"ppjjgggggggggg8-- -=ur3%1:@11,$,3OX6a      868ggggppjjgggggggggg",
"ppjjgggggggggg--      O=&<20;88---g       oa--ggggppjjgggggggggg",
"ppjjggggggggggg                          oag88ggggppjjgggggggggg",
"ppjjggggggggggd                         5rg--gggggppjjgggggggggg",
"ppjjggggggggg8aa                       $ag88ggggggppjjgggggggggg",
"ppjjggggggggg---+                    %<ag--gggggggppjjgggggggggg",
"ppjjjjjjjjjjjjj;X    =             o%hh0;0jjjjjjjjppjjjjjjjjjjjj",
"ppjjjjjjjjjjjjjjjff-     ..O.....o7hf0+;jjjjjjjjjjppjjjjjjjjjjjj",
"ppppppppppppppppppppppye<oX$oo#$oX$oo2pppppppppppppppppppppppppp",
"pppppppppppppppppppppppppppppppppppppppppppppppppppppppppppppppp",
"ggggggggggggppjjjggggggggggggggggggggppjjgggggggggggggggggggggpp",
"ggggggggggggppjjjggggggggggggggggggggppjjgggggggggggggggggggggpp",
"ggggggggggggppjjjggggggggggggggggggggppjjgggggggggggggggggggggpp",
"ggggggggggggppjjjggggggggggggggggggggppjjgggggggggggggggggggggpp",
"ggggggggggggppjjjggggggggggggggggggggppjjgggggggggggggggggggggpp",
"ggggggggggggppjjjggggggggggggggggggggppjjgggggggggggggggggggggpp",
"ggggggggggggppjjjggggggggggggggggggggppjjgggggggggggggggggggggpp",
"jjjjjjjjjjjjppjjjjjjjjjjjjjjjjjjjjjjjppjjjjjjjjjjjjjjjjjjjjjjjpp",
"jjjjjjjjjjjjppjjjjjjjjjjjjjjjjjjjjjjjppjjjjjjjjjjjjjjjjjjjjjjjpp"
};
