/* XPM */
static char *result[] = {
/* columns rows colors chars-per-pixel */
"64 64 39 1 ",
"  c black",
". c #010101",
"X c #020202",
"o c gray1",
"O c #040404",
"+ c gray2",
"@ c #060606",
"# c #070707",
"$ c gray3",
"% c #090909",
"& c gray4",
"* c #0C0C0C",
"= c gray5",
"- c gray6",
"; c gray8",
": c gray9",
"> c #191919",
", c gray10",
"< c gray11",
"1 c #1D1D1D",
"2 c gray12",
"3 c gray13",
"4 c #252525",
"5 c gray15",
"6 c gray17",
"7 c #313131",
"8 c gray22",
"9 c gray24",
"0 c gray25",
"q c #464646",
"w c gray28",
"e c gray29",
"r c #505050",
"t c #515151",
"y c #5B5B5B",
"u c #5D5D5D",
"i c DimGray",
"p c #6A6A6A",
"a c gray48",
/* pixels */
"eeeeeeeeeeeeeeeeeeeeeeeeeeeeeeeeeeeeeeeeeeeeeeeeeeeeeeeeeeeeeeee",
"eeeeeeeeeeeeeeeeeeeeeeeeeeeeeeeeeeeeeeeeeeeeeeeeeeeeeeeeeeeeeeee",
"eeaaiiiiiiiiiiiiiiiiiiiiieeaaiiiiiiiiiiiiiiiiiiiiieeaaiiiiiiiiii",
"eeaaiiiiiiiiiiiiiiiiiiiiieeaaiiiiiiiiiiiiiiiiiiiiieeaaiiiiiiiiii",
"eeaaiiiiiiiiiiiiriiiiiiiieeaaiiiiiiiiiiiiiiiiiiiiieeaaiiiiiiiiii",
"eeaaiiiiiiiiiiririiiiiiiieeaaiiiiiiiiiiiiiiiiiiiiieeaaiiiiiiiiii",
"eeaaiiiiiiiiir9i&iiriiiiieeaaiiiiiiiiiiiiiiiiiiiiieeaaiiiiiiiiii",
"eeaaiiiiiiiiir$i*iiriiiiieeaaiiiiiiiiiiiiiiiiiiiiieeaaiiiiiiiiii",
"eeaaiiiiiiiii&%i y=rriiiieeaaiiiiiiiiiiiiiiiiiiiiieeaaiiiiiiiiii",
"eeaaaaaaaaaaa==   -=uaaaaeeaaaaaaaaaaaaaaaaaaaaaaaeeaaaaaaaaaaaa",
"eeaaaaaaaaaaa-     Xtaaaaeeaaaaaaaaaaaaaaaaaaaaaaaeeaaaaaaaaaaaa",
"eeeeeeeeeeeee;     .7eeeeeeeeeeeeeeeeeeeeeeeeeeeeeeeeeeeeeeeeeee",
"eeeeeeeeeeee%8     .00eeeeeeeeeeeeeeeeeeeeeeeeeeeeeeeeeeeeeeeeee",
"iiiiiiiiiiii%8     +<riiiiiiiiiiiiiiieeaaiiiiiiiiiiiiiiiiiiiiiee",
"iiiiiiiiiiii%0+     Oyiiiiiiiiiiiiiiieeaaiiiiiiiiiiiiiiiiiiiiiee",
"iiiiiiiiiiii,e.     Oriiiiiiiiiiiiiiieeaaiiiiiiiiiiiiiiiiiiiiiee",
"iiiiiiiiiiiie,&     Oyiiiiiiiiiiiiiiieeaaiiiiiiiiiiiiiiiiiiiiiee",
"iiiiiiiiiiiie%3     Oyiiiiiiiiiiiiiiieeaaiiiiiiiiiiiiiiiiiiiiiee",
"iiiiiiiiiiiie,1     Oyiiiiiiiiiiiiiiieeaaiiiiiiiiiiiiiiiiiiiiiee",
"aaaaaaaaaaaae%1     Xpaaaaaaaaaaaauaaeeaaaaaaaaaaaaaaaaaaaaaaaee",
"aaaaaaaaaaaae,3     +paaaaaaaaaauawaaeeaaaaaaaaaaaaaaaaaaaaaaaee",
"eeeeeeeeeeeee,#     .8eeeeeeeee838$ee8eeeeeeeeeeeeeeeeeeeeeeeeee",
"eeeeeeeeeeeee,:     .8eeeeeeeee3+0.ee6eeeeeeeeeeeeeeeeeeeeeeeeee",
"eeaaiiiiiiiii43     Xqiiieeaair$X& i&yriiiiiiiiiiieeaaiiiiiiiiii",
"eeaaiiiiiiiii4r     Xyyiieeaaiy >   .*9iiiiiiiiiiieeaaiiiiiiiiii",
"eeaaiiiiiiiii=y     X3riieeaai&#      yiiiiiiiiiiieeaaiiiiiiiiii",
"eeaaiiiiiiiii4y+     +riieeaai3X      yiiiiiiiiiiieeaaiiiiiiiiii",
"eeaaiiiiiiiii4i*     +qiieeaai.      &qiiiiiiiiiiieeaaiiiiiiiiii",
"eeaaiiiiiiiiii4<     +yyieeaai       Oqiiiiiiiiiiieeaaiiiiiiiiii",
"eeaaiiiiiiiiii=y     +4qieeaa=o       yyiiiiiiiiiieeaaiiiiiiiiii",
"eeaaaaaaaaaaaa6p+     +taeeaa6&       5uaaaaaaaaaaeeaaaaaaaaaaaa",
"eeaaaaaaaaaaaa6a5     Xppeeaa-.       +uaaaaaaaaaaeeaaaaaaaaaaaa",
"eeeeeeeeeeeeeee,;     o,7eeee:+       o7eeeeeeeeeeeeeeeeeeeeeeee",
"eeeeeeeeeeeeeee%0%     o7eeee@X       o00eeeeeeeeeeeeeeeeeeeeeee",
"iiiiiiiiiiiieea6a*     Xyriiy%%       o5uiiiiiiiiiiiiiiiiiiiiiee",
"iiiiiiiiiiiieeaa6<      3rriq q        +uiiiiiiiiiiiiiiiiiiiiiee",
"iiiiiiiiiiiieeaa-y4      ryr>o         +tiiiiiiiiiiiiiiiiiiiiiee",
"iiiiiiiiiiiieeaa6i*     ++r2X*         +pyiiiiiiiiiiiiiiiiiiiiee",
"iiiiiiiiiiiieeaaa4<4     Oo<o          +5riiiiiiiiiiiiiiiiiiiiee",
"iiiiiiiiiiiieeaaa=i33       .           +riiiiiiiiiiiiiiiiiiiiee",
"iiiiiiiiiiiieeaaai4=&$           oO     +qiiiiiiiiiiiiiiiiiiiiee",
"aaaaaaaaaaaaeeaaaaa-61           OO     +ppaaaaaaaaaaaaaaaaaaaee",
"aaaaaaaaaaaaeeaaaaaa6==         =+5     +5uaaaaaaaaaaaaaaaaaaaee",
"eeeeeeeeeeeeeeeeeeee,e;;       #8o$o     o8eeeeeeeeeeeeeeeeeeeee",
"eeeeeeeeeeeeeeeeeeeee%,;-     @8,%e$     o7eeeeeeeeeeeeeeeeeeeee",
"eeaaiiiiiiiiiiiiiiiiii=X.@   #9i==4<     +yyiiiiiieeaaiiiiiiiiii",
"eeaaiiiiiiiiiiiiiiiiiiii=.  .ri==i=y     +4qiiiiiieeaaiiiiiiiiii",
"eeaaiiiiiiiiiiiiiiiiiiiiie8u*XX=ii4y+     Oqiiiiiieeaaiiiiiiiiii",
"eeaaiiiiiiiiiiiiiiiiiiiiieeaaiiiii4i3     Xyyiiiiieeaaiiiiiiiiii",
"eeaaiiiiiiiiiiiiiiiiiiiiieeaaiiiiii4<     X49yiiiieeaaiiiiiiiiii",
"eeaaiiiiiiiiiiiiiiiiiiiiieeaaiiiiii=y=     +qriiiieeaaiiiiiiiiii",
"eeaaaaaaaaaaaaaaaaaaaaaaaeeaaaaaaaa6a=      6upaaaeeaaaaaaaaaaaa",
"eeaaaaaaaaaaaaaaaaaaaaaaaeeaaaaaaaaa63      X3uaaaeeaaaaaaaaaaaa",
"eeeeeeeeeeeeeeeeeeeeeeeeeeeeeeeeeeee%0,      oeeeeeeeeeeeeeeeeee",
"eeeeeeeeeeeeeeeeeeeeeeeeeeeeeeeeeeee,e#      %eeeeeeeeeeeeeeeeee",
"iiiiiiiiiiiieeaaaiiiiiiiiiiiiiiiiiiii%#3    yiiiiiiiiiiiiiiiiiee",
"iiiiiiiiiiiieeaaaiiiiiiiiiiiiiiiiiiii%%-+  <riiiiiiiiiiiiiiiiiee",
"iiiiiiiiiiiieeaaaiiiiiiiiiiiiiiiiiiiiee-X.$=+4iiiiiiiiiiiiiiiiee",
"iiiiiiiiiiiieeaaaiiiiiiiiiiiiiiiiiiiieeaarr=X=iiiiiiiiiiiiiiiiee",
"iiiiiiiiiiiieeaaaiiiiiiiiiiiiiiiiiiiieeaaiiiiiiiiiiiiiiiiiiiiiee",
"iiiiiiiiiiiieeaaaiiiiiiiiiiiiiiiiiiiieeaaiiiiiiiiiiiiiiiiiiiiiee",
"iiiiiiiiiiiieeaaaiiiiiiiiiiiiiiiiiiiieeaaiiiiiiiiiiiiiiiiiiiiiee",
"aaaaaaaaaaaaeeaaaaaaaaaaaaaaaaaaaaaaaeeaaaaaaaaaaaaaaaaaaaaaaaee",
"aaaaaaaaaaaaeeaaaaaaaaaaaaaaaaaaaaaaaeeaaaaaaaaaaaaaaaaaaaaaaaee"
};
