/* XPM */
static char *result[] = {
/* columns rows colors chars-per-pixel */
"64 64 45 1 ",
"  c black",
". c #010101",
"X c #020202",
"o c gray1",
"O c #040404",
"+ c gray2",
"@ c #060606",
"# c #070707",
"$ c gray3",
"% c #090909",
"& c gray4",
"* c #0B0B0B",
"= c #0C0C0C",
"- c gray5",
"; c gray6",
": c #111111",
"> c #131313",
", c gray8",
"< c #151515",
"1 c #161616",
"2 c gray9",
"3 c #191919",
"4 c gray10",
"5 c gray11",
"6 c #1D1D1D",
"7 c #1E1E1E",
"8 c gray13",
"9 c #232323",
"0 c #252525",
"q c gray15",
"w c gray17",
"e c #2F2F2F",
"r c #313131",
"t c #353535",
"y c gray22",
"u c gray24",
"i c gray25",
"p c #464646",
"a c gray29",
"s c #505050",
"d c #5B5B5B",
"f c #5D5D5D",
"g c DimGray",
"h c #6A6A6A",
"j c gray48",
/* pixels */
"aaaaaaaaaaaaaaaaaaaaaaaaaaaaaaaaaaaaaaaaaaaaaaaaaaaaaaaaaaaaaaaa",
"aaaaaaaaaaaaaaaaaaaaaaaaaaaaaaaaaaaaaaaaaaaaaaaaaaaaaaaaaaaaaaaa",
"aajjgggggggggggggggggggggaajjgggggggggggggggggggggaajjgggggggggg",
"aajjgggggggggggggggggggggaajjgggggggggggggggggggggaajjgggggggggg",
"aajjggggggggggggsdsddsdddiyhhdsddddsdddgggggggggggaajjgggggggggg",
"aajjggggggggggsduddsddddsiihfddddsdddggdddsssgggggaajjgggggggggg",
"aajjgggggggggstp$5%>3$31>:@331%31>3%553sppsgggggggaajjgggggggggg",
"aajjgggggggggs%0X00&0000-44w;0000-008ss3<<%==sssggaajjgggggggggg",
"aajjggggggggg=o-                       &O==gggggggaajjgggggggggg",
"aajjjjjjjjjjj=6                              -=ffjaajjjjjjjjjjjj",
"aajjjjjjjjjjjq                                ;;jjaajjjjjjjjjjjj",
"aaaaaaaaaaaaa@                                 %aaaaaaaaaaaaaaaa",
"aaaaaaaaaaaa%@                                aaaaaaaaaaaaaaaaaa",
"gggggggggggg%,      ..OO...O...OO.. .oo      ssgggggggggggggggaa",
"gggggggggggg4@      oo=OO=&=OO&=OO=&=.     .%gggggggggggggggggaa",
"gggggggggggg%2      sggggggggggggggggaahh8&&oXX-ggggggggggggggaa",
"gggggggggggg42     Xsggggggggggggggggaajjgggggggggggggggggggggaa",
"gggggggggggg4y      sdgggggggggggggggaajjgggggggggggggggggggggaa",
"gggggggggggg%i     +8dgggggggggggggggaajjgggggggggggggggggggggaa",
"jjjjjjjjjjjj4iX     -fjjjjjjjjjjjjjjjaajjjjjjjjjjjjjjjjjjjjjjjaa",
"jjjjjjjjjjjj4a=     +hjjjjjjjjhfhhhfhaajjjjjjjjjjjjjjjjjjjjjjjaa",
"aaaaaaaaaaaaa4@     oiaaaaairriiiyiaaiiiaaaaaaaaaaaaaaaaaaaaaaaa",
"aaaaaaaaaaaaa4:     $iaayyryrr,#:;:#,yyiiyyaaaaaaaaaaaaaaaaaaaaa",
"aajjggggggggg-&     Ospssrrq++858-8ss885pdddggggggaajjgggggggggg",
"aajjggggggggg05     Xeps=%o*-8       O1e3=-sssggggaajjgggggggggg",
"aajjggggggggg05      s+--$2             O3d8dgdgggaajjgggggggggg",
"aajjggggggggg03     . 00                   +=upgggaajjgggggggggg",
"aajjggggggggg-3      d                      ++dsggaajjgggggggggg",
"aajjggggggggg05     O                         0psgaajjgggggggggg",
"aajjggggggggg0=               ..O  .7         Xdddaajjgggggggggg",
"aajjjjjjjjjjjwq            .o9hfq++O   =      w jfyajjjjjjjjjjjj",
"aajjjjjjjjjjjwh         .#<hfq++wjjjjhq        ;+jyajjjjjjjjjjjj",
"aaaaaaaaaaaaa4y       .:yi$o%4aaaaaaaaa4i:#     #oiyaaaaaaaaaaaa",
"aaaaaaaaaaaaa%i4     .yi4%4aaaaaaaaaaaaa44,>     %%yaaaaaaaaaaaa",
"gggggggggggga4j.;   *ug--ggggggggggggaajj-05*     +pggggggggggaa",
"ggggggggggggaa;wwo .%g00gggggggggggggaajjg0-%     +ddgggggggggaa",
"ggggggggggggaajj;=%50--ggggggggggggggaajjgg-8     +0pgggggggggaa",
"ggggggggggggaajjjgsg--gggggggggggggggaajjgg0d+     +pgggggggggaa",
"ggggggggggggaajjjggggggggggggggggggggaajjgg0g8     Xddggggggggaa",
"ggggggggggggaajjjggggggggggggggggggggaajjggg05     +8sggggggggaa",
"ggggggggggggaajjjggggggggggggggggggggaajjggg-d&     Odggggggggaa",
"jjjjjjjjjjjjaajjjjjjjjjjjjjjjjjjjjjjjaajjjjjwjO     +hjjjjjjjjaa",
"jjjjjjjjjjjjaajjjjjjjjjjjjjjjjjjjjjjjaajjjjjjwo     -fjjjjjjjjaa",
"aaaaaaaaaaaaaaiaaaaaaaaaaaaaaaaaaaaaaaaaaaaaa%:     oiaaaaaaaaaa",
"aaaaaaaaaaaaiayaaaaaaaaaaaaaaaaaaaaaaaaaaaaaa4:     .iaaaaaaaaaa",
"aajjgggggggdpg5ggdgggggggaajjgggggggggggggggg8#     Xfgggggggggg",
"aajjgggggggs<g-sdsgggggggaajjgggggggggggggggg$#     Xhgggggggggg",
"aajjggggggg5&s g0ppdddsddiijjggggggggggggggsu==     Xjgggggggggg",
"aajjggggggg-&   o8tssddddaahhddsdddddsdddsups &     Ojgggggggggg",
"aajjggggggg-     .$311%35:,ffpdddddsddddpsd-X-     .wjgggggggggg",
"aajjgggggggd      -5=0008yy8633%33>13%311=X=d      owjgggggggggg",
"aajjjjjjjjwf               ---qwwww;wwww+wj       2%;jjjjjjjjjjj",
"aajjjjjjjj;fw                                    -y4wjjjjjjjjjjj",
"aaaaaaaaaa%a#$                                  @i44aaaaaaaaaaaa",
"aaaaaaaaaaa%o%O                                >wa%%aaaaaaaaaaaa",
"ggggggggggggao ..                            o$dg00gggggggggggaa",
"ggggggggggggaaj8+  ......O*                %2ds0+-ggggggggggggaa",
"ggggggggggggaajjjds8OO&=O..   ..OOO...oO.O%dd0-0ggggggggggggggaa",
"ggggggggggggaajjjggggggggggdd8=&=OO==#$++=&-+-ggggggggggggggggaa",
"ggggggggggggaajjjggggggggggggggggggggaajjgggggggggggggggggggggaa",
"ggggggggggggaajjjggggggggggggggggggggaajjgggggggggggggggggggggaa",
"ggggggggggggaajjjggggggggggggggggggggaajjgggggggggggggggggggggaa",
"jjjjjjjjjjjjaajjjjjjjjjjjjjjjjjjjjjjjaajjjjjjjjjjjjjjjjjjjjjjjaa",
"jjjjjjjjjjjjaajjjjjjjjjjjjjjjjjjjjjjjaajjjjjjjjjjjjjjjjjjjjjjjaa"
};
