/* XPM */
static char *result[] = {
/* columns rows colors chars-per-pixel */
"64 64 46 1 ",
"  c black",
". c #010101",
"X c #020202",
"o c gray1",
"O c #040404",
"+ c gray2",
"@ c #060606",
"# c #070707",
"$ c gray3",
"% c #090909",
"& c gray4",
"* c #0B0B0B",
"= c #0C0C0C",
"- c gray5",
"; c gray6",
": c #111111",
"> c #131313",
", c gray8",
"< c #151515",
"1 c #161616",
"2 c gray9",
"3 c #191919",
"4 c gray10",
"5 c #1B1B1B",
"6 c gray11",
"7 c #1D1D1D",
"8 c #1E1E1E",
"9 c gray12",
"0 c gray13",
"q c #232323",
"w c #252525",
"e c gray15",
"r c gray17",
"t c #313131",
"y c gray22",
"u c gray24",
"i c gray25",
"p c #464646",
"a c gray29",
"s c #505050",
"d c #515151",
"f c #5B5B5B",
"g c #5D5D5D",
"h c DimGray",
"j c #6A6A6A",
"k c gray48",
/* pixels */
"aaaaaaaaaaaaaaaaaaaaaaaaaaaaaaaaaaaaaaaaaaaaaaaaaaaaaaaaaaaaaaaa",
"aaaaaaaaaaaaaaaaaaaaaaaaaaaaaaaaaaaaaaaaaaaaaaaaaaaaaaaaaaaaaaaa",
"aakkhhhhhhhhhhhhhhhhhhhhhaakkhhhhhhhhhhhhhhhhhhhhhaakkhhhhhhhhhh",
"aakkhhhhhhhhhhhhhhhhhhhhhaakkhhhhhhhhhhhhhhhhhhhhhaakkhhhhhhhhhh",
"aakkhhhhhhhhhhhhhhhhhhhhhaakkhhhhhfsfsffsfsshhhhhhaakkhhhhhhhhhh",
"aakkhhhhhhhhhhhhhhhhhhhhhaakkhhhspfsffsfsshhsshhhhaakkhhhhhhhhhh",
"aakkhhhhhhhhhhhhhhhhhhhhhaakkhsppp3%6$>1@3%$fsshhhaakkhhhhhhhhhh",
"aakkhhhhhhhhhhhhhhhhhhhhhaakjusf-+w=0w-w-&us--hsshaakkhhhhhhhhhh",
"aakkhhhhhhhhhhhhhhhhhhhhhaaddf-+-0          &=sshhaakkhhhhhhhhhh",
"aakkkkkkkkkkkkkkkkkkkkkkkatdrXrk              X;ggaakkkkkkkkkkkk",
"aakkkkkkkkkkkkkkkkkkkkkkkyy+;k                 ;;kaakkkkkkkkkkkk",
"aaaaaaaaaaaaaaaaaaaaaaaayto4a                   %aaaaaaaaaaaaaaa",
"aaaaaaaaaaaaaaaaaaaaaaaty%4a                   aaaaaaaaaaaaaaaaa",
"hhhhhhhhhhhhaakkkhhhhhpp--h       . ....  .%  sshhhhhhhhhhhhhhaa",
"hhhhhhhhhhhhaakkkhhhhss+wh      %5fs0Xo+O=    -hhhhhhhhhhhhhhhaa",
"hhhhhhhhhhhhaakkkhhhsp+wh     O2ffw-waakkhhhss-X-hhhhhhhhhhhhhaa",
"hhhhhhhhhhhhaakkkhhpf=wh     osfw-whhaakkhhhhhhhhhhhhhhhhhhhhhaa",
"hhhhhhhhhhhhaakkkhsp=-h     Oph--hhhhaakkhhhhhhhhhhhhhhhhhhhhhaa",
"hhhhhhhhhhhhaakkkhsOfw     *shwwhhhhhaakkhhhhhhhhhhhhhhhhhhhhhaa",
"kkkkkkkkkkkkaakkkj=er     =dkrrkkkkkkaakkkkkkkkkkkkkkkkkkkkkkkaa",
"kkkkkkkkkkkkaakkkg-j     ogkrrkkkkkkkaakkkkkkkkkkkkkkkkkkkkkkkaa",
"aaaaaaaaaaaaaaaai,,     .ta%%aaaaaaaaaaaaaaaaaaaaaaaaaaaaaaaaaaa",
"aaaaaaaaaaaaaaaat$:     :a44aaaaaaaaaaaaaaaaaaaaaaaaaaaaaaaaaaaa",
"aakkhhhhhhhhhhhs3O     $h44kkhhhhhhhhhhhhhhhhhhhhhaakkhhhhhhhhhh",
"aakkhhhhhhhhhhhsO6     102igjfhhhhhhhhhhhhhhhhhhhhaakkhhhhhhhhhh",
"aakkhhhhhhhhhhf&-     $==yijkhffshhhhhhhhhhhhhhhhhaakkhhhhhhhhhh",
"aakkhhhhhhhhhhf&6     $o%;;=06uffffhhhhhhhhhhhhhhhaakkhhhhhhhhhh",
"aakkhhhhhhhhhh6&      =&0%4egp60=ffpshhhhhhhhhhhhhaakkhhhhhhhhhh",
"aakkhhhhhhhhhf:#     $        O1s66hfshhhhhhhhhhhhaakkhhhhhhhhhh",
"aakkhhhhhhhhhuX                  3%6&hsphhhhhhhhhhaakkhhhhhhhhhh",
"aakkkkkkkkkkk7                     +e0jkdkkkkkkkkkaakkkkkkkkkkkk",
"aakkkkkkkkkkj *                      -Oeggjkkkkkkkaakkkkkkkkkkkk",
"aaaaaaaaaaaay.                        ,o%yayaaaaaaaaaaaaaaaaaaaa",
"aaaaaaaaaaai:$        ..o.  .<          %%tiiaaaaaaaaaaaaaaaaaaa",
"hhhhhhhhhhhsX;      .8fs0OO&O   o        -Ohphhhhhhhhhhhhhhhhhaa",
"hhhhhhhhhhh0      .060++whhhhhf= ..       O+hphhhhhhhhhhhhhhhhaa",
"hhhhhhhhhhh=X     #-+-hhhhhhhhhhh=O..      +wshhhhhhhhhhhhhhhhaa",
"hhhhhhhhhhh=     O.Xhhhhhhhhhhhhhhw=6@      Xfshhhhhhhhhhhhhhhaa",
"hhhhhhhhhhh&     O=-hhhhhhhhhhhhhhhh+$#     -&fhhhhhhhhhhhhhhhaa",
"hhhhhhhhhhw1     O0hhhhhhhhhhhhhhhhhh4#O     Ofhhhhhhhhhhhhhhhaa",
"hhhhhhhhhh-6     O0hhhhhhhhhhhhhhhhhh4aO     =shhhhhhhhhhhhhhhaa",
"kkkkkkkkkkr-     +dkkkkkkkkkkkkkkkkkka%%     Ojkkkkkkkkkkkkkkkaa",
"kkkkkkkkkkre      dkkkkkkkkkkkkkkkkkka27     +jkkkkkkkkkkkkkkkaa",
"aaaaaaaaaa4i      yyaaaaaaaaaaaaaaaaaa:X     .yaaaaaaaaaaaaaaaaa",
"aaaaaaaaaa4y      4tyaaaaaaaaaaaaaaaatX2     .aaaaaaaaaaaaaaaaaa",
"aakkhhhhhh-fw      hfufhhaakkhhhhhhhppX0     Ohhhhaakkhhhhhhhhhh",
"aakkhhhhhhwh=     =O0ffsfaakkhhhffsuf+-     .-hhhhaakkhhhhhhhhhh",
"aakkhhhhhhhw6w     3O=3hstijjfpsfsps+-=     &whhhhaakkhhhhhhhhhh",
"aakkhhhhhhh-h00      O036iyggsss60-.f0     =wwhhhhaakkhhhhhhhhhh",
"aakkhhhhhhhhw-=$       o6@:716O=0&=h      6f--hhhhaakkhhhhhhhhhh",
"aakkhhhhhhhhhww18        o%e--ww         %swwhhhhhaakkhhhhhhhhhh",
"aakkkkkkkkkkkk;r09                      .gkrrkkkkkaakkkkkkkkkkkk",
"aakkkkkkkkkkkkkr+-$                    qdk;;kkkkkkaakkkkkkkkkkkk",
"aaaaaaaaaaaaaaaaaoX$X                 >ta44aaaaaaaaaaaaaaaaaaaaa",
"aaaaaaaaaaaaaaaaaaao..X             X@ia44aaaaaaaaaaaaaaaaaaaaaa",
"hhhhhhhhhhhhaakkkhhhhoO         oo*8fy4+;hhhhhhhhhhhhhhhhhhhhhaa",
"hhhhhhhhhhhhaakkkhhhhhh=O  ...o8ff0=-%4kkhhhhhhhhhhhhhhhhhhhhhaa",
"hhhhhhhhhhhhaakkkhhhhhhhhsf=O=&=++whhaakkhhhhhhhhhhhhhhhhhhhhhaa",
"hhhhhhhhhhhhaakkkhhhhhhhhhhhhhhhhhhhhaakkhhhhhhhhhhhhhhhhhhhhhaa",
"hhhhhhhhhhhhaakkkhhhhhhhhhhhhhhhhhhhhaakkhhhhhhhhhhhhhhhhhhhhhaa",
"hhhhhhhhhhhhaakkkhhhhhhhhhhhhhhhhhhhhaakkhhhhhhhhhhhhhhhhhhhhhaa",
"hhhhhhhhhhhhaakkkhhhhhhhhhhhhhhhhhhhhaakkhhhhhhhhhhhhhhhhhhhhhaa",
"kkkkkkkkkkkkaakkkkkkkkkkkkkkkkkkkkkkkaakkkkkkkkkkkkkkkkkkkkkkkaa",
"kkkkkkkkkkkkaakkkkkkkkkkkkkkkkkkkkkkkaakkkkkkkkkkkkkkkkkkkkkkkaa"
};
