/* XPM */
static char *result[] = {
/* columns rows colors chars-per-pixel */
"64 64 42 1 ",
"  c black",
". c #010101",
"X c #020202",
"o c gray1",
"O c #040404",
"+ c gray2",
"@ c #060606",
"# c #070707",
"$ c gray3",
"% c #090909",
"& c gray4",
"* c #0B0B0B",
"= c #0C0C0C",
"- c gray5",
"; c #0E0E0E",
": c gray6",
"> c #111111",
", c gray8",
"< c #151515",
"1 c #161616",
"2 c gray9",
"3 c #191919",
"4 c gray10",
"5 c gray11",
"6 c #1D1D1D",
"7 c #1E1E1E",
"8 c gray13",
"9 c #252525",
"0 c gray15",
"q c gray17",
"w c gray22",
"e c gray24",
"r c gray25",
"t c gray28",
"y c gray29",
"u c #505050",
"i c #515151",
"p c #5B5B5B",
"a c #5D5D5D",
"s c DimGray",
"d c #6A6A6A",
"f c gray48",
/* pixels */
"yyyyyyyyyyyyyyyyyyyyyyyyyyyyyyyyyyyyyyyyyyyyyyyyyyyyyyyyyyyyyyyy",
"yyyyyyyyyyyyyyyyyyyyyyyyyyyyyyyyyyyyyyyyyyyyyyyyyyyyyyyyyyyyyyyy",
"yyffsssssssssssssssssssssyyffsssssssssssssssssssssyyffssssssssss",
"yyffsssssssssssssssssssssyyffsssssssssssssssssssssyyffssssssssss",
"yyffsssssssssssssssssssssyyffsssssssssssssssssssssyyffssssssssss",
"yyffsssssssssssssssssssssyyffsssssssssssssssssssssyyffssssssssss",
"yyffsssssssssssssssssssssyyffsssssssssssssssssssssyyffssssssssss",
"yyffsssssssssssssssssssssyyffsssssssssssssssssssssyyffssssssssss",
"yyffssssssssssuupuupppppsyyffsssssssssssssssssssssyyffssssssssss",
"yyffffffffffaadaadddddffdrrddaddddadddaddaafffffffyyffffffffffff",
"yyfffffffffati*&6%%63688awwaddddadddaddaafdfffffffyyffffffffffff",
"yyyyyyyyyyyy%%4%%44442ww,,>:>@>:;>@:::@;:#@rwwyyyyyyyyyyyyyyyyyy",
"yyyyyyyyyyy%%4          $$2$4444%444%44$@y2yyryyyyyyyyyyyyyyyyyy",
"ssssssssssssy                              ==eusssssssssssssssyy",
"ssssssssssss                                +=psssssssssssssssyy",
"sssssssssssuw                                Ousssssssssssssssyy",
"ssssssssss--4%                               Opsssssssssssssssyy",
"ssssssssssss%.    .O..O*                     +usssssssssssssssyy",
"ssssssssssssyyaa-XOOXOO.  ....OO...O..       +psssssssssssssssyy",
"ffffffffffffyyffffffffffdd0--=-++-=-+X O      ffffffffffffffffyy",
"ffffffffffffyyfffffffffffffffffffffffr.a     -ffffffffffffffffyy",
"yyyyyyyyyyyyyyyyyyyyyyyyyyyyyyyyyyyyy$o     .%yyyyyyyyyyyyyyyyyy",
"yyyyyyyyyyyyyyyyyyyyyyyyyyyyyyyyyyyyy,#     #4yyyyyyyyyyyyyyyyyy",
"yyffsssssssssssssssssssssyyffsssssssp&     O=-ssssyyffssssssssss",
"yyffsssssssssssssssssssssyyffssssssspX     =89ssssyyffssssssssss",
"yyffsssssssssssssssssssssyyffsssssssO1     O9sssssyyffssssssssss",
"yyffsssssssssssssssssssssyyffsssssss&&     =9sssssyyffssssssssss",
"yyffsssssssssssssssssssssyyffsssssspO     .&ssssssyyffssssssssss",
"yyffsssssssssssssssssssssyyffsssssspo     .5uppsssyyffssssssssss",
"yyffssssssssssssssssssuuprwddpupppp%1     .8psssssyyffssssssssss",
"yyffffffffffffffffffaaddarrdaddddad*3     %*-q0addyyffffffffffff",
"yyfffffffffffffffffati=*6:@333*6313       .80dffffyyffffffffffff",
"yyyyyyyyyyyyyyyyyyyy%%44%444%4444%2.      $    2,rryyyyyyyyyyyyy",
"yyyyyyyyyyyyyyyyyyy%%4                          44yyyyyyyyyyyyyy",
"ssssssssssssyyfffssss                            9ssssssssssssyy",
"ssssssssssssyyfffsss                            ssssssssssssssyy",
"ssssssssssssyyfffssuu                          ppsssssssssssssyy",
"ssssssssssssyyfffs--99                     ..*7sssssssssssssssyy",
"ssssssssssssyyfffsss-X ....O...Oo        O7pu8O+-9ssssssssssssyy",
"ssssssssssssyyfffsssssuu=XO=OO&=.       O=O+-9ssssssssssssssssyy",
"ssssssssssssyyfffssssssssssssssp%5     -qsssssssssssssssssssssyy",
"ffffffffffffyyfffffffffffffffffaX     #0qfffffffffffffffffffffyy",
"ffffffffffffyyfffffffffffffffff0O     oqffffffffffffffffffffffyy",
"yyyyyyyyyyyyyyyyyyyyyyyyyyyyyyyo>     o%yyyyyyyyyyyyyyyyyyyyyyyy",
"yyyyyyyyyyyyyyyyyyyyyyyyyyyyyyy$     o24yyyyyyyyyyyyyyyyyyyyyyyy",
"yyffsssssssssssssssssssssyyffss%     .8sssssssssssyyffssssssssss",
"yyffsssssssssssssssssssssyyffs91     O8sssssssssssyyffssssssssss",
"yyffsssssssssssssssssssssyyffs=&     +5sssssssssssyyffssssssssss",
"yyffsssssssssssssssssssssyyffs9=     Xpsssssssssssyyffssssssssss",
"yyffsssssssssssssssssssssyyffs-p      ssssssssssssyyffssssssssss",
"yyffsssssssssssssssssssssyyffs9u     -ssssssssssssyyffssssssssss",
"yyfffffffffffffffffffffffyyfff:     *qffffffffffffyyffffffffffff",
"yyfffffffffffffffffffffffyyfff0f   f0qffffffffffffyyffffffffffff",
"yyyyyyyyyyyyyyyyyyyyyyyyyyyyy4yy4 >r%%yyyyyyyyyyyyyyyyyyyyyyyyyy",
"yyyyyyyyyyyyyyyyyyyyyyyyyyyyyyy44<ry44yyyyyyyyyyyyyyyyyyyyyyyyyy",
"ssssssssssssyyfffssssssssssssssssps99yyffsssssssssssssssssssssyy",
"ssssssssssssyyfffssssssssssssssssssssyyffsssssssssssssssssssssyy",
"ssssssssssssyyfffssssssssssssssssssssyyffsssssssssssssssssssssyy",
"ssssssssssssyyfffssssssssssssssssssssyyffsssssssssssssssssssssyy",
"ssssssssssssyyfffssssssssssssssssssssyyffsssssssssssssssssssssyy",
"ssssssssssssyyfffssssssssssssssssssssyyffsssssssssssssssssssssyy",
"ssssssssssssyyfffssssssssssssssssssssyyffsssssssssssssssssssssyy",
"ffffffffffffyyfffffffffffffffffffffffyyfffffffffffffffffffffffyy",
"ffffffffffffyyfffffffffffffffffffffffyyfffffffffffffffffffffffyy"
};
