/* XPM */
static char *result[] = {
/* columns rows colors chars-per-pixel */
"64 64 46 1 ",
"  c black",
". c #010101",
"X c #020202",
"o c gray1",
"O c #040404",
"+ c gray2",
"@ c #060606",
"# c #070707",
"$ c gray3",
"% c #090909",
"& c gray4",
"* c #0B0B0B",
"= c #0C0C0C",
"- c gray5",
"; c gray6",
": c #111111",
"> c #131313",
", c gray8",
"< c #151515",
"1 c #161616",
"2 c gray9",
"3 c #191919",
"4 c gray10",
"5 c #1B1B1B",
"6 c gray11",
"7 c #1D1D1D",
"8 c #1E1E1E",
"9 c gray13",
"0 c #252525",
"q c gray15",
"w c gray17",
"e c #2F2F2F",
"r c #313131",
"t c gray22",
"y c gray24",
"u c gray25",
"i c #464646",
"p c gray28",
"a c gray29",
"s c #505050",
"d c #515151",
"f c #5B5B5B",
"g c #5D5D5D",
"h c DimGray",
"j c #6A6A6A",
"k c gray48",
/* pixels */
"aaaaaaaaaaaaaaaaaaaaaaaaaaaaaaaaaaaaaaaaaaaaaaaaaaaaaaaaaaaaaaaa",
"aaaaaaaaaaaaaaaaaaaaaaaaaaaaaaaaaaaaaaaaaaaaaaaaaaaaaaaaaaaaaaaa",
"aakkhhhhhhhhhhhhhhhhhhhhhaakkhhhhhhhhhhhhhhhhhhhhhaakkhhhhhhhhhh",
"aakkhhhhhhhhhhhhhhhhhhhhhaakkhhhhhhhhhhhhhhhhhhhhhaakkhhhhhhhhhh",
"aakkhhhhhhhhhhhhhhhhhhhhhuugjfsfhhhhhhhhhhhhhhhhhhaakkhhhhhhhhhh",
"aakkhhhhhhhhhhhhhhhhhhfistujgfhhfsshhhhhhhhhhhhhhhaakkhhhhhhhhhh",
"aakkhhhhhhhhhhhhhhhhiissi:,&36%3isffshhhhhhhhhhhhhaakkhhhhhhhhhh",
"aakkhhhhhhhhhhhhhhsiii9+-$,q;9iy6=&fsshhhhhhhhhhhhaakkhhhhhhhhhh",
"aakkhhhhhhhhhhhhhiyf++-6=       .1y9-hfshhhhhhhhhhaakkhhhhhhhhhh",
"aakkkkkkkkkkkkkkgd;+;w             ;-ggkkkkkkkkkkkaakkkkkkkkkkkk",
"aakkkkkkkkkkkkkdg+;k                 +;jgkkkkkkkkkaakkkkkkkkkkkk",
"aaaaaaaaaaaaaarw%%a                   ,#taaaaaaaaaaaaaaaaaaaaaaa",
"aaaaaaaaaaaaaruo4a                     %taaaaaaaaaaaaaaaaaaaaaaa",
"hhhhhhhhhhhhtr+-k        ...   8      +*-ssshhhhhhhhhhhhhhhhhhaa",
"hhhhhhhhhhhhuok9      .X8ff6=O.   o  O+k;hhshhhhhhhhhhhhhhhhhhaa",
"hhhhhhhhhhhh$:k      5fs9++0hhhhf6       =$sshhhhhhhhhhhhhhhhhaa",
"hhhhhhhhhhhh,:     %if-+0hhhhhhhhhiy      X-shhhhhhhhhhhhhhhhhaa",
"hhhhhhhhhhhh2     .yh00hhhhhhhhhhii        .hhhhhhhhhhhhhhhhhhaa",
"hhhhhhhhhhhhX     &i00hhhhhhhhhhsiO&       -hhhhhhhhhhhhhhhhhhaa",
"kkkkkkkkkkk;2     +*;kkkkkkkkkkdgX+;      =kkkkkkkkkkkkkkkkkkkaa",
"kkkkkkkkkkkwu      qgkkkkkkkkkdp;;k      wgkkkkkkkkkkkkkkkkkkkaa",
"aaaaaaaaaaa4t      4wtaaaaaaaruo4a       ..%aaaaaaaaaaaaaaaaaaaa",
"aaaaaaaaaaa%u4      autuaaaatro%a      @ra%%aaaaaaaaaaaaaaaaaaaa",
"aakkhhhhhhh0h=     =X9fsstakgOf0     O2sh--hhhhhhhaakkhhhhhhhhhh",
"aakkhhhhhhhh060     6=93hutg*06     .sf0-0hhhhhhhhaakkhhhhhhhhhh",
"aakkhhhhhhhh-h99      o63#ag#f     %ih--hhhhhhhhhhaakkhhhhhhhhhh",
"aakkhhhhhhhhh0-=$       &2,%7     .ih00hhhhhhhhhhhaakkhhhhhhhhhh",
"aakkhhhhhhhhhh0038        #O.     1h00hhhhhhhhhhhhaakkhhhhhhhhhh",
"aakkhhhhhhhhhhh0035              +i=&hhhhhhhhhhhhhaakkhhhhhhhhhh",
"aakkhhhhhhhhhhhh--95             .%9fsfhhhhhhhhhhhaakkhhhhhhhhhh",
"aakkkkkkkkkkkkkkkk+.o*            $9-kjdkkkkkkkkkkaakkkkkkkkkkkk",
"aakkkkkkkkkkkkkkkkkk*...           999qkdjkkkkkkkkaakkkkkkkkkkkk",
"aaaaaaaaaaaaaaaaaaaaaa$...           $#2tutaaaaaaaaaaaaaaaaaaaaa",
"aaaaaaaaaaaaaaaaaaaaaaaa$X             oouuwaaaaaaaaaaaaaaaaaaaa",
"hhhhhhhhhhhhaakkkhhhhhhhhf              qO0sffhhhhhhhhhhhhhhhhaa",
"hhhhhhhhhhhhaakkkhhhhhhhh&1              3+-ihshhhhhhhhhhhhhhhaa",
"hhhhhhhhhhhhaakkkhhhhhhhh=$       %        X6fshhhhhhhhhhhhhhhaa",
"hhhhhhhhhhhhaakkkhhhhhhhh.     o3=  .       =+hihhhhhhhhhhhhhhaa",
"hhhhhhhhhhhhaakkkhhhhhhhh%     .9hh=&X.      --ihhhhhhhhhhhhhhaa",
"hhhhhhhhhhhhaakkkhhhhhhh06      =hhh-2,*      Xffhhhhhhhhhhhhhaa",
"hhhhhhhhhhhhaakkkhhhhhhh0%     O6hhhh4o-$     +9shhhhhhhhhhhhhaa",
"kkkkkkkkkkkkaakkkkkkkkkk;9     .jkkkkaa+&o     Ojkkkkkkkkkkkkkaa",
"kkkkkkkkkkkkaakkkkkkkkkkw7     .jkkkkaawko     +jkkkkkkkkkkkkkaa",
"aaaaaaaaaaaaaaaaaaaaaaaa4:     .uaaaaaaa,X     %taaaaaaaaaaaaaaa",
"aaaaaaaaaaaaaaaaaaaaaaaa%$     oraaaaaaa#o     ouaaaaaaaaaaaaaaa",
"aakkhhhhhhhhhhhhhhhhhhhh02     Xihhhhhhfo6     Xhhaakkhhhhhhhhhh",
"aakkhhhhhhhhhhhhhhhhhhhh0u      sshhhhhyos     Ohhaakkhhhhhhhhhh",
"aakkhhhhhhhhhhhhhhhhhhhh0t     X0efffiy9X     .0hhaakkhhhhhhhhhh",
"aakkhhhhhhhhhhhhhhhhhhhh-u4      fiysisXo     %0hhaakkhhhhhhhhhh",
"aakkhhhhhhhhhhhhhhhhhhhh0a$     .o>33OX=     o--hhaakkhhhhhhhhhh",
"aakkhhhhhhhhhhhhhhhhhhhhh4,w      +=&-h      =00hhaakkhhhhhhhhhh",
"aakkkkkkkkkkkkkkkkkkkkkkk%aq                q;;kkkaakkkkkkkkkkkk",
"aakkkkkkkkkkkkkkkkkkkkkkka4*;              -gwwkkkaakkkkkkkkkkkk",
"aaaaaaaaaaaaaaaaaaaaaaaaaa%a2;            @u44aaaaaaaaaaaaaaaaaa",
"aaaaaaaaaaaaaaaaaaaaaaaaaaa4.%O          >wa%%aaaaaaaaaaaaaaaaaa",
"hhhhhhhhhhhhaakkkhhhhhhhhhhhh+X.       o%fh00hhhhhhhhhhhhhhhhhaa",
"hhhhhhhhhhhhaakkkhhhhhhhhhhhhhh=O   .X<jg0+-hhhhhhhhhhhhhhhhhhaa",
"hhhhhhhhhhhhaakkkhhhhhhhhhhhhhhhhsf=O#$++0hhhhhhhhhhhhhhhhhhhhaa",
"hhhhhhhhhhhhaakkkhhhhhhhhhhhhhhhhhhhhaakkhhhhhhhhhhhhhhhhhhhhhaa",
"hhhhhhhhhhhhaakkkhhhhhhhhhhhhhhhhhhhhaakkhhhhhhhhhhhhhhhhhhhhhaa",
"hhhhhhhhhhhhaakkkhhhhhhhhhhhhhhhhhhhhaakkhhhhhhhhhhhhhhhhhhhhhaa",
"hhhhhhhhhhhhaakkkhhhhhhhhhhhhhhhhhhhhaakkhhhhhhhhhhhhhhhhhhhhhaa",
"kkkkkkkkkkkkaakkkkkkkkkkkkkkkkkkkkkkkaakkkkkkkkkkkkkkkkkkkkkkkaa",
"kkkkkkkkkkkkaakkkkkkkkkkkkkkkkkkkkkkkaakkkkkkkkkkkkkkkkkkkkkkkaa"
};
