/* XPM */
static char *result[] = {
/* columns rows colors chars-per-pixel */
"64 64 50 1 ",
"  c black",
". c #010101",
"X c #020202",
"o c gray1",
"O c #040404",
"+ c gray2",
"@ c #060606",
"# c #070707",
"$ c gray3",
"% c #090909",
"& c gray4",
"* c #0B0B0B",
"= c #0C0C0C",
"- c gray5",
"; c gray6",
": c #101010",
"> c #111111",
", c #131313",
"< c gray8",
"1 c #151515",
"2 c #161616",
"3 c gray9",
"4 c #181818",
"5 c #191919",
"6 c gray10",
"7 c #1B1B1B",
"8 c gray11",
"9 c #1D1D1D",
"0 c #1E1E1E",
"q c gray13",
"w c #252525",
"e c gray15",
"r c gray16",
"t c gray17",
"y c #2F2F2F",
"u c #313131",
"i c gray22",
"p c gray24",
"a c #3E3E3E",
"s c gray25",
"d c #464646",
"f c gray28",
"g c gray29",
"h c #505050",
"j c #515151",
"k c #5B5B5B",
"l c #5D5D5D",
"z c DimGray",
"x c #6A6A6A",
"c c gray48",
/* pixels */
"gggggggggggggggggggggggggggggggggggggggggggggggggggggggggggggggg",
"gggggggggggggggggggggggggggggggggggggggggggggggggggggggggggggggg",
"ggcczzzzzzzzzzzzzzzzzzzzzggcczzzzzzzzzzzzzzzzzzzzzggcczzzzzzzzzz",
"ggcczzzzzzzzzzzzzzzzzzzkkisxxhkkkhhhzzzzzzzzzzzzzzggcczzzzzzzzzz",
"ggcczzzzzzzzzzzzzzzkhhhhksslxkkhhhzzzzzzzzzzzzzzzzggcczzzzzzzzzz",
"ggcczzzzzzzzzzzzzkpkhhd58#;55%2,:%=%yhhzzzzzzzzzzzggcczzzzzzzzzz",
"ggcczzzzzzzzzzzzddp8=-=&q36;tww--&pzpzzzzzzzzzzzzzggcczzzzzzzzzz",
"ggcczzzzzzzzzzzhd8Xw-8-              %pyzzzzzzzzzzggcczzzzzzzzzz",
"ggcczzzzzzzzzzzdO--                  %-pzzzzzzzzzzggcczzzzzzzzzz",
"ggccccccccccccj=e;                     jacccccccccggcccccccccccc",
"ggcccccccccccxlOt                      Xycccccccccggcccccccccccc",
"ggggggggggggguos                        iigggggggggggggggggggggg",
"ggggggggggggi>6X       ...o...o.        69gggggggggggggggggggggg",
"zzzzzzzzzzzzso;      *0kk8=OO&=  @       hhzzzzzzzzzzzzzzzzzzzgg",
"zzzzzzzzzzzz$>     %dqO+-wzzzzzzX=       wrzzzzzzzzzzzzzzzzzzzgg",
"zzzzzzzzzzzz<X     5--zzzzzzzzzzww.       dkzzzzzzzzzzzzzzzzzzgg",
"zzzzzzzzzzzz$     okwwzzzzzzzzzzz+q=      qpzzzzzzzzzzzzzzzzzzgg",
"zzzzzzzzzzzzX     &&-zzzzzzzzzzzzwwX      .pzzzzzzzzzzzzzzzzzzgg",
"zzzzzzzzzzz-<     XqzzzzzzzzzzzzzzXqo      hkzzzzzzzzzzzzzzzzzgg",
"ccccccccccct>     Xecccccccccccccctt       qjcccccccccccccccccgg",
"ccccccccccct>     Xxccccccccccccccc+&      +lcccccccccccccccccgg",
"ggggggggggg%#     oiggggggggggggggg%@      .gugggggggggggggggggg",
"ggggggggggg6>     .sggggggggggggggg6@      #6igggggggggggggggggg",
"ggcczzzzzzzw8      kzzzzzggcczzzzzz=.       Xzdzzzggcczzzzzzzzzz",
"ggcczzzzzzzw&     +dzzzzzggcczzzzzz5X       &-hzzzggcczzzzzzzzzz",
"ggcczzzzzzz-q     Xhzzzzzggcczzzzzpo=        Xzhzzggcczzzzzzzzzz",
"ggcczzzzzzzwk      hpzzzzggcczzkdphX&        =wdzzggcczzzzzzzzzz",
"ggcczzzzzzzwh      wkhhkksixxddhhkX+          +kkzggcczzzzzzzzzz",
"ggcczzzzzzz-kw      8ddhhssllddq+Xk5          Owdzggcczzzzzzzzzz",
"ggcczzzzzzzwz=     5o8%52;@5qoO=8k      &X     +hzggcczzzzzzzzzz",
"ggcccccccccctet      X;q-66;;;t        +l-     Xclggcccccccccccc",
"ggcccccccccctcqe                      ox;=     ;tjggcccccccccccc",
"ggggggggggggg%63,                    1tg.$6     ossggggggggggggg",
"gggggggggggggg6%@@                  @ig6%g$     o3iggggggggggggg",
"zzzzzzzzzzzzggc;;87               $7hg%;cwq-     +hzzzzzzzzzzzgg",
"zzzzzzzzzzzzggccc+ .O          .o0kkw%6ccwz=     +hzzzzzzzzzzzgg",
"zzzzzzzzzzzzggccczz8O  ......o0khq++wggcczw8     +hkzzzzzzzzzzgg",
"zzzzzzzzzzzzggccczzzzkhqOO&=OO=++wzzzggccz-k     -qkzzzzzzzzzzgg",
"zzzzzzzzzzzzggccczzzzzzzzzzzzzzzzzzzzggcczwkX     =hzzzzzzzzzzgg",
"zzzzzzzzzzzzggccczzzzzzzzzzzzzzzzzzzzggcczwz%     Okzzzzzzzzzzgg",
"zzzzzzzzzzzzggccczzzzzzzzzzzzzzzzzzzzggcczzw&     Okzzzzzzzzzzgg",
"ccccccccccccggcccccccccccccccccccccccggcccct&     -lccccccccccgg",
"ccccccccccccggcccccccccccccccccccccccggcccc;9     Xxccccccccccgg",
"ggggggggggggggggggggggggggggggggggggggggggg6<     .sgggggggggggg",
"ggggggggggggggggggggggggggggggggggggggggggs3O     .igggggggggggg",
"ggcczzzzzzzzzzzzzzzzzzzzzggcczzzzzzzzzzkdhh=2     .scczzzzzzzzzz",
"ggcczzzzzzzzzzzzzzzzzzzzzggcczzzzzzzzhdhhd5%.     .icczzzzzzzzzz",
"ggcczzzzzzzzzzzzzzzzzzzzzggcczzzzzzhpddq+-=&o      scczzzzzzzzzz",
"ggcczzzzzzzzzzzzzzzzzzzkzggcczzzkdphk-+-q=        .gcczzzzzzzzzz",
"ggcczzzzzzzzzzzzzzzzzkzzhiillkddhdh-X-q           %gcczzzzzzzzzz",
"ggcczzzzzzzzzzzzzzzzkkh8hiuxlhddq+Xqh            .%gcczzzzzzzzzz",
"ggcccccccccccccccccccqff%+@$$9OO-=x             ce6gcccccccccccc",
"ggcccccccccccccccccctc; ;o%e;;;t               4l;%gcccccccccccc",
"ggggggggggggggggggggg%                    .. o@sg66ggggggggggggg",
"ggggggggggggggggggggg                  .X1ss<$Xoo%gggggggggggggg",
"zzzzzzzzzzzzggccczzzkz               #>xlq++wzzzzzzzzzzzzzzzzzgg",
"zzzzzzzzzzzzggccczzwzhh            o$sst;wzzzzzzzzzzzzzzzzzzzzgg",
"zzzzzzzzzzzzggccczzz-++O        .X0kh6o;czzzzzzzzzzzzzzzzzzzzzgg",
"zzzzzzzzzzzzggccczzzzz-X     .o0khq++6gcczzzzzzzzzzzzzzzzzzzzzgg",
"zzzzzzzzzzzzggccczzzzzzzhh&....O++wzzggcczzzzzzzzzzzzzzzzzzzzzgg",
"zzzzzzzzzzzzggccczzzzzzzzzzzzzzzzzzzzggcczzzzzzzzzzzzzzzzzzzzzgg",
"zzzzzzzzzzzzggccczzzzzzzzzzzzzzzzzzzzggcczzzzzzzzzzzzzzzzzzzzzgg",
"ccccccccccccggcccccccccccccccccccccccggcccccccccccccccccccccccgg",
"ccccccccccccggcccccccccccccccccccccccggcccccccccccccccccccccccgg"
};
