/* XPM */
static char *_7ce0f635ad14a74ac3f70d7c1d842d6MNRLl9Bt1f1qWlm4[] = {
/* columns rows colors chars-per-pixel */
"64 64 3 1 ",
"  c gray29",
". c DimGray",
"X c gray48",
/* pixels */
"................................................................",
"................................................................",
"..XX                     ..XX                     ..XX          ",
"..XX                     ..XX                     ..XX          ",
"..XX                     ..XX                     ..XX          ",
"..XX                     ..XX                     ..XX          ",
"..XX                     ..XX                     ..XX          ",
"..XX                     ..XX                     ..XX          ",
"..XX                     ..XX                     ..XX          ",
"..XXXXXXXXXXXXXXXXXXXXXXX..XXXXXXXXXXXXXXXXXXXXXXX..XXXXXXXXXXXX",
"..XXXXXXXXXXXXXXXXXXXXXXX..XXXXXXXXXXXXXXXXXXXXXXX..XXXXXXXXXXXX",
"................................................................",
"................................................................",
"            ..XXX                    ..XX                     ..",
"            ..XXX                    ..XX                     ..",
"            ..XXX                    ..XX                     ..",
"            ..XXX                    ..XX                     ..",
"            ..XXX                    ..XX                     ..",
"            ..XXX                    ..XX                     ..",
"XXXXXXXXXXXX..XXXXXXXXXXXXXXXXXXXXXXX..XXXXXXXXXXXXXXXXXXXXXXX..",
"XXXXXXXXXXXX..XXXXXXXXXXXXXXXXXXXXXXX..XXXXXXXXXXXXXXXXXXXXXXX..",
"................................................................",
"................................................................",
"..XX                     ..XX                     ..XX          ",
"..XX                     ..XX                     ..XX          ",
"..XX                     ..XX                     ..XX          ",
"..XX                     ..XX                     ..XX          ",
"..XX                     ..XX                     ..XX          ",
"..XX                     ..XX                     ..XX          ",
"..XX                     ..XX                     ..XX          ",
"..XXXXXXXXXXXXXXXXXXXXXXX..XXXXXXXXXXXXXXXXXXXXXXX..XXXXXXXXXXXX",
"..XXXXXXXXXXXXXXXXXXXXXXX..XXXXXXXXXXXXXXXXXXXXXXX..XXXXXXXXXXXX",
"................................................................",
"................................................................",
"            ..XXX                    ..XX                     ..",
"            ..XXX                    ..XX                     ..",
"            ..XXX                    ..XX                     ..",
"            ..XXX                    ..XX                     ..",
"            ..XXX                    ..XX                     ..",
"            ..XXX                    ..XX                     ..",
"            ..XXX                    ..XX                     ..",
"XXXXXXXXXXXX..XXXXXXXXXXXXXXXXXXXXXXX..XXXXXXXXXXXXXXXXXXXXXXX..",
"XXXXXXXXXXXX..XXXXXXXXXXXXXXXXXXXXXXX..XXXXXXXXXXXXXXXXXXXXXXX..",
"................................................................",
"................................................................",
"..XX                     ..XX                     ..XX          ",
"..XX                     ..XX                     ..XX          ",
"..XX                     ..XX                     ..XX          ",
"..XX                     ..XX                     ..XX          ",
"..XX                     ..XX                     ..XX          ",
"..XX                     ..XX                     ..XX          ",
"..XXXXXXXXXXXXXXXXXXXXXXX..XXXXXXXXXXXXXXXXXXXXXXX..XXXXXXXXXXXX",
"..XXXXXXXXXXXXXXXXXXXXXXX..XXXXXXXXXXXXXXXXXXXXXXX..XXXXXXXXXXXX",
"................................................................",
"................................................................",
"            ..XXX                    ..XX                     ..",
"            ..XXX                    ..XX                     ..",
"            ..XXX                    ..XX                     ..",
"            ..XXX                    ..XX                     ..",
"            ..XXX                    ..XX                     ..",
"            ..XXX                    ..XX                     ..",
"            ..XXX                    ..XX                     ..",
"XXXXXXXXXXXX..XXXXXXXXXXXXXXXXXXXXXXX..XXXXXXXXXXXXXXXXXXXXXXX..",
"XXXXXXXXXXXX..XXXXXXXXXXXXXXXXXXXXXXX..XXXXXXXXXXXXXXXXXXXXXXX.."
};
