/* XPM */
static char *cd04553950dd4ac1e2b5d62047ace85brVuKtqIw4Mmy1rCm[] = {
/* columns rows colors chars-per-pixel */
"64 64 3 1 ",
"  c gray29",
". c DimGray",
"X c gray48",
/* pixels */
"XXXXXXXXXXXXXXXXXXXXXXXXXXXXXXXXXXXXXXXXXXXXXXXXXXXXXXXXXXXXXXXX",
"XXXXXXXXXXXXXXXXXXXXXXXXXXXXXXXXXXXXXXXXXXXXXXXXXXXXXXXXXXXXXXXX",
"XX  .....................XX  .....................XX  ..........",
"XX  .....................XX  .....................XX  ..........",
"XX  .....................XX  .....................XX  ..........",
"XX  .....................XX  .....................XX  ..........",
"XX  .....................XX  .....................XX  ..........",
"XX  .....................XX  .....................XX  ..........",
"XX  .....................XX  .....................XX  ..........",
"XX                       XX                       XX            ",
"XX                       XX                       XX            ",
"XXXXXXXXXXXXXXXXXXXXXXXXXXXXXXXXXXXXXXXXXXXXXXXXXXXXXXXXXXXXXXXX",
"XXXXXXXXXXXXXXXXXXXXXXXXXXXXXXXXXXXXXXXXXXXXXXXXXXXXXXXXXXXXXXXX",
"............XX   ....................XX  .....................XX",
"............XX   ....................XX  .....................XX",
"............XX   ....................XX  .....................XX",
"............XX   ....................XX  .....................XX",
"............XX   ....................XX  .....................XX",
"............XX   ....................XX  .....................XX",
"            XX                       XX                       XX",
"            XX                       XX                       XX",
"XXXXXXXXXXXXXXXXXXXXXXXXXXXXXXXXXXXXXXXXXXXXXXXXXXXXXXXXXXXXXXXX",
"XXXXXXXXXXXXXXXXXXXXXXXXXXXXXXXXXXXXXXXXXXXXXXXXXXXXXXXXXXXXXXXX",
"XX  .....................XX  .....................XX  ..........",
"XX  .....................XX  .....................XX  ..........",
"XX  .....................XX  .....................XX  ..........",
"XX  .....................XX  .....................XX  ..........",
"XX  .....................XX  .....................XX  ..........",
"XX  .....................XX  .....................XX  ..........",
"XX  .....................XX  .....................XX  ..........",
"XX                       XX                       XX            ",
"XX                       XX                       XX            ",
"XXXXXXXXXXXXXXXXXXXXXXXXXXXXXXXXXXXXXXXXXXXXXXXXXXXXXXXXXXXXXXXX",
"XXXXXXXXXXXXXXXXXXXXXXXXXXXXXXXXXXXXXXXXXXXXXXXXXXXXXXXXXXXXXXXX",
"............XX   ....................XX  .....................XX",
"............XX   ....................XX  .....................XX",
"............XX   ....................XX  .....................XX",
"............XX   ....................XX  .....................XX",
"............XX   ....................XX  .....................XX",
"............XX   ....................XX  .....................XX",
"............XX   ....................XX  .....................XX",
"            XX                       XX                       XX",
"            XX                       XX                       XX",
"XXXXXXXXXXXXXXXXXXXXXXXXXXXXXXXXXXXXXXXXXXXXXXXXXXXXXXXXXXXXXXXX",
"XXXXXXXXXXXXXXXXXXXXXXXXXXXXXXXXXXXXXXXXXXXXXXXXXXXXXXXXXXXXXXXX",
"XX  .....................XX  .....................XX  ..........",
"XX  .....................XX  .....................XX  ..........",
"XX  .....................XX  .....................XX  ..........",
"XX  .....................XX  .....................XX  ..........",
"XX  .....................XX  .....................XX  ..........",
"XX  .....................XX  .....................XX  ..........",
"XX                       XX                       XX            ",
"XX                       XX                       XX            ",
"XXXXXXXXXXXXXXXXXXXXXXXXXXXXXXXXXXXXXXXXXXXXXXXXXXXXXXXXXXXXXXXX",
"XXXXXXXXXXXXXXXXXXXXXXXXXXXXXXXXXXXXXXXXXXXXXXXXXXXXXXXXXXXXXXXX",
"............XX   ....................XX  .....................XX",
"............XX   ....................XX  .....................XX",
"............XX   ....................XX  .....................XX",
"............XX   ....................XX  .....................XX",
"............XX   ....................XX  .....................XX",
"............XX   ....................XX  .....................XX",
"............XX   ....................XX  .....................XX",
"            XX                       XX                       XX",
"            XX                       XX                       XX"
};
