/* XPM */
static char *result[] = {
/* columns rows colors chars-per-pixel */
"64 64 62 1 ",
"  c #727272",
". c gray45",
"X c #747474",
"o c gray46",
"O c gray48",
"+ c #7B7B7B",
"@ c #7C7C7C",
"# c gray49",
"$ c #7E7E7E",
"% c gray50",
"& c #808080",
"* c #818181",
"= c gray51",
"- c #838383",
"; c #848484",
": c gray52",
"> c #868686",
", c gray53",
"< c #888888",
"1 c #898989",
"2 c gray54",
"3 c #8B8B8B",
"4 c gray55",
"5 c #8D8D8D",
"6 c #8E8E8E",
"7 c gray56",
"8 c #909090",
"9 c gray57",
"0 c #929292",
"q c #939393",
"w c gray58",
"e c #959595",
"r c gray59",
"t c #979797",
"y c gray60",
"u c #9A9A9A",
"i c #9B9B9B",
"p c gray61",
"a c #9D9D9D",
"s c gray62",
"d c #9F9F9F",
"f c #A0A0A0",
"g c gray63",
"h c #A2A2A2",
"j c gray64",
"k c #A4A4A4",
"l c gray66",
"z c #A9A9A9",
"x c #AAAAAA",
"c c gray67",
"v c gray68",
"b c gray69",
"n c #B1B1B1",
"m c #B2B2B2",
"M c gray70",
"N c #B9B9B9",
"B c gray73",
"V c #BBBBBB",
"C c gray",
"Z c #C3C3C3",
"A c #C6C6C6",
"S c gray85",
/* pixels */
"#><*=>%%%$%&%&*$#%=&8vVCmyh>>&=%=$$%$@+%$$$2@#@####@###@##$#$@#%",
"5%,2u*=<%%%%%$@#@@%%$#%:3e8-&$&%@@@++#@$%5@:;-:#@@@##@++#@#@@$$@",
"%%%r,a7%$$$##@++@#@@@#@43#p&$;@@@++@@%%$29:w:#2:@#@#++##@@####$$",
"%%$$1q##$$##@+@#@@+@#$11it$&;#+@#$#$$$+$%w&Mf%z*;:#+@#%%%#@%##%%",
"##$tp2#@$#@@@@@##@##$$%1,%q*;#%$$$$%#%%%%$1<%%%b%@=$$$%$#%#%%%%$",
"w#>:%$$#@@@@$%$$$$%$$%#;$,&*#&$$%%%%$#$#$%%%%%%%%1%$$%#%%%@#%%%%",
"%$:*1%@%@$$$$$$%%%%%%%$%#%&%%%%%$$$$%%%%%%xN%%%%%%%*$$%%$$%#%#%%",
"::%%@%@$$$$$%%%%%%%%%%%%%$%%%$#$%%%%%%%%#6xks%%$%%%$%%%#%%%#%#%%",
"@#@@$&$$$#%%%%%%%%%%%%%%%%%$#%%%%%%%%%##+&;-$$&%%%$%%$$%%$%%$%@%",
"%@+@$$$*%%%%##$###$%%%%#%$$%%%%%%%$#@O+7&*@@%%%%%%$%#%%%##%%%%*%",
"%#$$$%%%%$#$%%%%%%%%%%@@@####$#...++O+@@%%@@@%%$%%$$%%#$%%%%%$$#",
"%%$%%%%#$%%%%%%$$%%%$$$###@#@@$. .++@$$$+@#%$$$%$$%%%#>@%%%%%>qr",
"%%%%%$$%%%%%$$%##$###$$$$@$##*@...###@#@%%%%@#%%#%%$@%%%%%%%%%eZ",
"$%%#$%%%%%$$$#$%%%%%%%%%XoXX%$$#$$$$$%%%%$$#%%$$%%##1&%%$%%%%4>n",
"%@$%%%%%$$@@$$$$#####%%%oooo$####$$#$$##$%%%%$%%$@@#%%#$$&%%&&e>",
"%$%%%%$$#$$$$$$$$$$%%#%%oooo%%%%%%%%%%%%%%%%#%%%$%%$#@$$$$$$$$@%",
"%$%$%$+-$%%$$$$$$$$$%oX.oooo%%%   %%%%%%oo.@%@#$*$$$$###$$%$%%&0",
"p7%%@@$$$%#@$##$%4&@$XooX.oo%%%   %%%%%$..X#$@Ztw#$$#$%%%%$$$$%1",
"35#$@#$%@@@@#%*-4$%=$.XXooX.###   $$#@#$..o$$>:%@%%%%%$#$$%%%%%%",
"$$e$@$##@$%%*;9<%%%%##$#    $$%%%%%$$#@$$$$$$=*6$%$$$$%%%%%%%%$-",
"###@@@@#$$$-%%%%%%$@#@$@    $$$$$$$=$$$%##%-*%$#$@%%%%%%%%%%$$p>",
"%%%%%$%%$@%%%%%%%@@#%$$@    %%%%&u#$$%%$;j$&%%%0>$$$#$#$@$$$%$&1",
"%%%%%%%%%%%%%$$#@#%%%%+$    %%%#u$%$#$$&=@&$$$@$@@@@+++@##@@@##>",
"%%%%%%%%%$#$$%#@$%%%$   $%%%%%*OOO$$$   =%5X..X#++@@@+@@@++O*3&-",
"%%%%%%%$$%%%%##%%&$$@   $%%%%$#OOO,,#   $$$..X.##@#@#$$##%#%#$$0",
"$$$#$#$%%%%%@@%%#%@#$   %%%%##$OOO%%&   &%%Xo.X$%%$$$%&&$%&%%;-<",
"%%%%%%%%%%#@1$:&%@@$%%$%%%%$OOOOOOOOO$$$   $$#$$$$#$$#$$$#$#####",
"$$$$$$$$$@@@%%$$+#%$%%@%%%%#OOOOOOOOO%%%   %%%%%%%%%%%%%%%%%%%%%",
"#$#$$$#$@#$%$%#@#%$%%%@$%%##OOOOOOOOO%%%   %%%%%%%%%%%%%%%%%%%%%",
"%%$@#$%$$%%%%#@$%$%$$%$$OOOOOOOOOOOOOOOO   %%%%%%%%%%%%%%%%%%%%%",
"%@@#%$$@$%#$#$%%%$$%#@$%OOOOOOOOOOOOOOOO   #$$$$#$$#$$$#$######@",
"@@%%$##%#$$##$$%$#%@+%%;OOOOOOOOOOOOOOOO   $$$$$$$$$$%%$$%%%%%$@",
"$%%#$$$@@%%%$%%%%%@@%o&o+@%%OOOOOOOOO$$$$$$$%$$$$$$$$$$$$$$$$$$$",
"%%$$%##@$%%%%%%%%@+$%&o.$%@#OOOOOOOOO%%%@#$@$$$$%%%%$%%%%%$$$#*&",
"-$%%#@$$%%$%%%%#@@$%uoXo%#%%OOOOOOOOO%#@###$$$%%%%$$%%%%%$#$%%4$",
"%%%@@$%%%$%%%$@@@$ . #%%#%;#$$$OOO$$#..X$$$$$%%%$$%%%%%$#$%$$@%%",
"%$@#$%$$@#@@@###$%   %%$%$#$$@$OOO%%@.oo%$%%%#$$%%%%%$$#$$$%#$$$",
"$$###@#@$$#+&##$*%   %#$#%%%$%%OOO%@@oXo%%%#$%%%%%%$$#@$$$$$%$%$",
"%##$-#@@#+@##+$%%%#%%$%@       ...@#%%%%%%%$#%%%$$$@#$$$$$$%%%%&",
"#@%#$%$@@+$@+$%%%$%%$%@#       ...#%%%%$#$$%%%%%@@@$$$$%$$%%%$%$",
"$&%%%##@@$@$$%$%$%%#$@%%     .....$%%#$%%%%%%%@$$$$%$$%%%%%$####",
"%6,6*%-%%$#$$$%#%%$$@%%%  ..   ...%%$%%%%%$$$%#@$$%$$#$$#@@$##%%",
",5*&;%$%%#$@%%%$%$$@%%$#*$%%##&ooo%$%      @$$$%$#$$$$$$$#@$#%%%",
",iwi%%%%$@$$%%$%#$@%$$%%@&%#:=%ooo$%%      $$%%%$$$$$$$$$$#%%$%%",
"5j%$&,%%@@%#%%#%#@$$%$#####$$%$.oX%%%      %$%@$%%$$%@@$%##$$@7$",
"%%&;%%$$$@%#$$@##$#$##$@#@$$$#%#$%%%%$@%%%%%%#@#$$#@$$$#$$@@7$%%",
"&5%%#$%%#@$$#$@$2#$$###$$$$#%%$%%%%%$@%%%%%$@$%$@$%%$$$#@$+:%%p$",
"%%%$%%%%#@#@@#@2$@%#$$$$$%%%%$%%%%$$##%%%%#@+$%%$$$%#@#$$%$$%%%%",
"%$$%%%%%$%%%%%$$%*$%%%%%%%%$$%%%%%@#%$%%%@@$$%$$%%#@@@$%$%%%%%%%",
"$%%%%%$%&%%%%%%%%%%%%%%%%#$%%%%%$@$$%$$$$$%%$%%%#@#$$$$#%$%%%%%7",
"%%%%$$=:7%%%%%%%%%%%%%%$$%%%%%$$#%%%##$%#$%%$$@@@@$$%$$%%%%%%%%%",
"%%$&7l8%#%%%%%%%%%%$$#$%%%%%%>t;%%$$%$$$$$###@@#%%%$$%$%%$@%%%%%",
"%$+@$$$$&$$#$$$$#$$%%%%%%%%;@%%$%$#%$%$$$#@@$$%$$#$%%%$$%%A$%%%@",
"$#$%%#$%$$%%%%%%%%%%%%$$$%-;$%%$$%%%%$#$$$$$$$$%%%%%$$%%%%%%&%S#",
"#$%%%###@%*$%$$%%$$$$%$$#$$$%%$$%%%%$@#$$$%%%%%%$$#$%%%%$##$$$;%",
"%%%%%%$%%B,#>$&$$$$#$$$%%%%$$%%%%%%$#%%%%%%$$$$$%%%%%%#$$#@$%#%%",
"%%%$#%$%%c%>>Z%$%%%%%$%%%##%%%%%$$%$%%$$$$$%%%%%%%%%$$#@$$$%%%%%",
"#$$%%%%%%%%cc%$%%%%$#%%$$%%%%%$$$@#$$$%%%%%%%%%%%%$$@#$%$$%$%%%%",
"%%%%$#%%%%%$%$%%%%$#%$$$$%%$$$##$%%%%%%%%%%%%%$$*$#$%%$%$%%%%%%%",
"$$$$%:t#$$$#$%%%%%@$%$$%%$$#$$%%%%%%%%%%%$$$##$%$#$%%$%%%%%%%%%%",
"tt*%%$%$%%%%%%%%$#$$$%%$$#$%%%%%%%%%$$$$$$%$##$$$$$%%%%%%%%%%%%%",
"gp,di,&$$$$$%%$$@$%%$$$$%%%%%%%$$$$$$%%$#$$$%%%%%%%%%%%%%%%%%%%%",
"e<ad%12-###$$$##%%%$#$%%%%$$$##$%$$#$$$%%$%%%%%%%%%%%%%%%%%%%%%%",
"&2-%%%%%%$$$%%%%%%$$%$$$$#$$$$$$$$%%$$%$%%%%%%%%%%%%%%%%%%%%%%%%"
};
