/* XPM */
static char *c76c76f2db8243faa3fec34821122cbbgzRAbyy16mJblonn[] = {
/* columns rows colors chars-per-pixel */
"64 64 27 1 ",
"  c #5F5F5F",
". c #606060",
"X c gray40",
"o c #6C6C6C",
"O c gray43",
"+ c gray45",
"@ c #747474",
"# c #7B7B7B",
"$ c gray49",
"% c #818181",
"& c gray53",
"* c #898989",
"= c #8D8D8D",
"- c #909090",
"; c #979797",
": c #9B9B9B",
"> c gray62",
", c #A0A0A0",
"< c #A4A4A4",
"1 c gray67",
"2 c gray68",
"3 c #B1B1B1",
"4 c gray70",
"5 c #BBBBBB",
"6 c #C3C3C3",
"7 c #C6C6C6",
"8 c gray85",
/* pixels */
"$&*%%&$%$$$%$%%$$$%$=2554:>*&O+O+O$$$$#$$$%*#$#$$$$$$$$$$$$$$$$%",
"=$**:%%*$%%%%$$$#$%%$$$*=;=%%OOOoo$#$$$$%=$&&%&####$$###$#$$$$$#",
"%$$;*>-$$$$$$####$$#$$$=*#>$$+oooo###%%$*-&;&$*&##$$$#$$$$$$$$$$",
"$%$$*-$$%$$$$#$$$##$$$**>>$%%ooooo$$$$$$%-$4>$1%&&$#$$$%$$$$$$%%",
"$$$;:*$$$$$$##$$$$$$$$$&&$;%%OOOOO$%$%$%%$**%$$4$#%%$$$$$%$%$%$$",
";$&&%$$$$$#$$%$$$$OOOOO+$&$%$$%$$%$%$$$$$$%$$%$$$*$%$%$%$$$$%$$%",
"$$&%*%$%#$$$%$$%$%OOOOoO$$%%%%%$$$$$%$%$$%15%$$%%$%%$$%$$$$$%$%$",
"&&$$#$#$$$%$$$%$%$OOOOOO%$%$$$$$$%$%$%$%$=1,>%%$$%$$%$%$%%%$$$$%",
"$$$#$%$$%$$%$%$%$%OOOOOO%%%$$%$%%$%$$%$$$$&%$%%$$%$$%$$$$$%$$$$$",
"$##$%$$%%$%%$$$$$#OOOOOo$$$$$$%$$%$$###=%%$$$$$%%%$%$$%%$$$%%%%%",
"%$$%$%$%$$$$$OOOOOOOOOoo$$$$$.    $$##$$%$#$oOOOO$$$%$$$%$%$%$$$",
"%$$$%$%$$%%$%OOOOOOOOoOo$$#$$.    ##$$$$#$$$oOoOO$%$%$&$$%$%$*-;",
"$$%$%$$$$%$%$OOOoOoooOOO$$$$$     $$$$$$$%%%ooOOO%$$#$%$%$%$%$;6",
"$%%$$$%%%%$$$OOOOOOOOOOO@@@@%.    $$$%$%%$$$OOOOO$$$*%$%$%$%$=&4",
"$$$%$%%%$$$$$OoOOooooO+O@@@@$.    $$$$$$$$%$OOOOO$$$$%$%$%%$$%;&",
"%$%$%$$$$$$$$$$$$$    ..@@#@$%$$$%$%%$%$$%$%$$$%$$%$$$$$$$$%$$#$",
"$$$$%$$%%$%$$$$$$$  .   @@@#$%%+++$%%$%$@@@$$$$$%$$$$$$$$$%$$$%=",
">=%%$#$$$$$$$$$$%=.     @@@@%$$+++%%$%$%@+@$$#6:;$$$$$%%$%$$$%%*",
"*=$$$$%$$$#$$$%&=$..    +@++$$$+O+$$$$$$@+@$$*&$$$%%%$$$$$%%%$%$",
"$$:#$$$$$$$%%&-*$%..    O+++$$%$$$%$$$$$$$%$$%%=$%$$$$%%%$%$$$$*",
"$$$#$$$$$$%%%$%$%$   ...++++$$$$$$$%$$$$$$%&%%$$$$$$%$$$$%%$$$>&",
"$%$%$$$%$$$%$.... #$$$$$++O+$ooXOo$$$%%...  $%%-&OoOOOO$$$$$%$%*",
"%$%$%$%$%$$%%     $%$$#$++++$oXoXo%$$$$..   $$$$#oooooo$$$#$$$$&",
"$%$%$%$%%$$$$.   .%%$+++$$$$$ooXoo$$$++ ..  ++@$#Oooooo##$##%*%%",
"%%$%%$%$%$%$$. ...$$$+++$%$%$oXoXo&&$++     +@@$#OOOOOO$$$$$$$$=",
"$$$$$$$$$%$%$ .. .$$$+++$$%$#ooXoX$$%++     @+@$$OOOOOO%$%%$%&%*",
"%$%$$%$%%$$$*$&%$$$$%$$$oXoXoXoXXoXooXX$+O+$.    $$$$$$%$$$$$$$$",
"$%$$%$$$$#$$%$$$$$%$$%$%XoXoXoXooXoXXoo$+++%.... %$%$$$%%$%%$%$%",
"$$$$$$$$$$$%$%$$$$$%$%$$oXoXoXoXXoXooXo$+O+$.... %$%%$%$%$%$%$%$",
"$%$$$%%$$$$%$$$$%$$$$$$$XoXoXoXooXoXXoX#+++$.....$%$$%$%$%$%$%$%",
"%$#$$%$#%%$$$$%$$%$$$#$$oXoXoXoXXoXoXoo#O++#    .$$$$$$$$$$$$$$$",
"$#$%$$$%$$$$$$$%$$OooooXXoXoXoXooXoXoXoXoXoO     %$$$%%$$%$%$%$$",
"$$%$$$$$$$%$$$%$$$XoXoXoXoXoXoXoXoXoXoXoXoXo     $%$%$$$%$%$$%$$",
"%%$$%$$$$%$%%%$%%#oXoXoXoXoXoXoXoXoXoXoXoXoX    .$$%$$%$$%$$$$%%",
"%$%$$$$$%$$$$%$$$#XoXoXoXoXoXoXoXoXoXoXoXoXo    .$$$$%$%%$$$%$=$",
"%%$$$$%$%$%$%$##$$oXoXoooXoXoXoXoXoXoXoXoXoo    .$%%%$%$$$%$$$$%",
"$%$$$%$$$$$$$OooOO+++$$$XoXoXoXooXoXXoX+%$$$%$$$%$$%$$$$%$$%$$$$",
"$$$$$#$$$$$#$ooOOO+++%$$oXoXoXoXXoXooXO+$%%$$$%%$%%$%$$$$$$$%$$%",
"%$$$&$$#$#$$$OOOOO#$%$$#XoXoXoXooXoXoXX$%$%$$$%$$$$$$$%$$$$%%%%%",
"$$$$$$$$#$$##OOOOO$%$$$#oXoXoXoXXoXoXoo$$$$%$%$%$$$$$$$%$%$%$$$$",
"$%$%$$$#$$$$$OOOOO%$$$%$OXoXoXXooXoXooX%$%$%$%$$$$$%$%$%%$%$$$$$",
"$=*=%%&$.   .$%$%$$$$$$%+++++ooXXo%$$$$OOOOO$%$#%$%$$$$$$$$$$$%$",
"*=%$&$$$.   .$%$$$%$%%$$%$$%#oXoXo$$$++XXXXo%$$$$$$$$%%$$$$$$%$%",
"&:;:$%$%    .%$$$$$$$$$%#%%$%ooXoo$%$++XXXXO$$%%$$%$$$$$$$$%$$%$",
"=,$$%&$%    .%$$$$$$$$$$$$$$$XoXXo%$%++XXXXO$%#$%%$$%$$$$$$$$$-$",
"%$%&$%$$  .  $$$$%$$$$$$$$$$$oXOoX$%$$$OOOOO$$$$$$$$$$$$$$$#-$$%",
"$=%$$$%$$$$$$$$$*$        ..  ..  $$$$%$$$%$$$%$$$%$$$%$$$$&$%>$",
"$%%$$%$%$$$$$$$*$$.    . .......  $%$$$%$%$#$$$%$$$%$$$$$%$$%$%$",
"%$$%$%$$$%%$%$$$$%......... ......$$%$%%$$$$$$$$%$$$$$$%$%$%$%$%",
"$%%$%%$%$%$%$%%%%$.......  .......$$$$$$$$%$$%%$$$$$$$$$%$%$%$%=",
"$%$%$$%*-$%$$%$%$%.....  .....  ..%%$$%$$%$%%$#$$$$%%$$$$$%%$%$%",
"%%$$=1=%$%$%%$%$%$. .  .......  ..$$%$$$$$$$$$$$$$%$$%$%%$$$%$%$",
"$$$$$$$$%$$$$$$$$$$%$%$%$%$&#OOOOO$$$$$..     . .$$%$%$$%$7$$%$$",
"$$$$%$$%$$%$$%%%%$%$%%$$$$%&$OOOOO%$%$$..      ..$$%$$%$$%$%%$8$",
"$$$%$$$$$%%$$%$$%$$$$$%$$$$$%OOOOO$%$$$   .......$$$%$%%$$$$$$&$",
"%%%$%$$%$5*$&$%$$%$$%$$$%%%$$OOOOO%$$%$....    ..%$%$%$$%$$$%$%$",
"$%%$$$$$%1%&&6$$%$%%%$$%$$$%$OOOOO%$%%$.    .....%%%%$$$$$$%%$%$",
"$$$%%%%%%$$21$$%$%$$$$%$$%$%%%$$$#$$$$%$%$$%%$$%$$$$$$$$%$$$$%$%",
"%$%$$$$$$%%$$$%$%$$$%%$$$%$$$$$$$$%$$%$%$%%%$%$$%$$$$%$%$%$%%$%$",
"$$$$$&:$$$$$$%$%$%$$$$$%%$%$$$%$$%$%%$%$%$$$$$$%%$$%$$$%%$%$$%$%",
":;%$$$%$$%%%%%$%$$%$$%%$$$$%$%$%%$$%$$$$%$%$$$$$$$$%%$%$%$%$%$%$",
",>*>:*%$$$$$%$$$$$$%$$$$%$%$%$%$$%$$$%$%$$$$%$%%%$$%$%$%$%$%$%$%",
";&>>$**%$$$$$$$$%$%$$$%%%$$$%$$%%$$$$$$%$$$%$%%$%$%$%$%$%$%$%$%$",
"$*&$%$%%%$$$%%$%$%$$%$$$$$%$$$$$$$%$%$%$%$%$%$$%$%$%$%$%$%$%$%$%"
};
