/* XPM */
static char *_fbddb3945c54c01a8f2aa16c5c591dcrrdhkt3EioK71pJy[] = {
/* columns rows colors chars-per-pixel */
"64 64 32 1 ",
"  c gray28",
". c gray29",
"X c #4E4E4E",
"o c #515151",
"O c #555555",
"+ c #5B5B5B",
"@ c gray36",
"# c #606060",
"$ c #686868",
"% c #6C6C6C",
"& c #727272",
"* c #767676",
"= c #7B7B7B",
"- c gray49",
"; c #818181",
": c gray53",
"> c #898989",
", c #8D8D8D",
"< c #909090",
"1 c #979797",
"2 c #9B9B9B",
"3 c gray61",
"4 c gray63",
"5 c #A4A4A4",
"6 c #AAAAAA",
"7 c gray67",
"8 c #B2B2B2",
"9 c #BBBBBB",
"0 c gray",
"q c #C3C3C3",
"w c #C6C6C6",
"e c gray85",
/* pixels */
"-:>;;:%&&%&&%&%$$%%%*>90824::XXXX.XoX-=---;>=-=----=-%%&%%&%;---",
",->>2;%&%$%$%$$$$$$%$$-:>1<;-........---;,-::;:-=----$$$$$$$----",
";--1:3*%$$%$$$$$$$$$$$-,>-3;-........-;-><:1:->:=-=-=$$$$$$$----",
"-;--:1$$$$$$$$$$$$$$$$>>32--:........---;<-83-6;;:-=-$%%%$$$--;;",
"---12>$$$$$$$$$$$$$$$$->:-1;;........;-;-->:;--8;-;-;$$$$$$$-;--",
"1-::;-$$$$$$$%$$%$#@@#%&->-;-X..X..X.----;;;-;-;->;-;$$%%%$$;--;",
"--:;>;$$$%$$%$$%%$####%&--;;-X......X-;-;-69;-;-;-;;-$$$$$%$;-;-",
"::--=-$$$$%$$$%$$$#@##%&;-;--........;-;-,653;---;--;$%$$%$$---;",
"---=-;**=*=***XXXX.X.X%%;;;--++++++++-----:;--;;;--;;**==**=-;--",
"-==-;--;---;--........&%-----;-;-;--==-,;;--;-;--;--------;---;;",
";--;-;;-;---;%........$%-----#@###-====-;-=-%&&%$;-;-;---;-;;---",
";---;----;-;;%........%%--=--###@@==----=---%%%%%--;--:-;-;--:<1",
"--;-;--;;-;--%X.......%%-=---#####-------;;;$%&%%;----;-;-;-;;1q",
"-;;--;;--;---%.......X%&**&*-##@@#;---;-;---%&%%*--->;-;-;-;-,>6",
"---;;--;-----%........%%****-#@###--------;-%%%%$=--;----;;-;;2:",
";-;--;---;-;--.... ...##&*&*-;;-;-;-;;-;-;-;-;;;-;;----;------==",
"--;---XooXXoXX@+++oXoo@#****-........;-;**&--XXoooXXX-----;-&&&-",
"3<-;--........--;>##@###&&&*-........-;-&&*--.X.X...X--;-;--$$$&",
",,----........;;>-####@#***&-........---&&*-;.X...X..------;%$$%",
"--1---......X.<>;-###@##&&&&-X.......--------X......X--;;;;-$%$%",
"------.....X.X;;;;#@@##@&&&&-........--;--;:;.....X..-;--;;-$$;%",
";-;---.X......@#@@--;---&&&&-........;;@###@-XX.X...o$%-----%$%&",
"-;-;-;......X.#@##-;-;--&&&&;........-;@#@##-........%%---==$$$%",
";-;-;-+@+++++X####;;-&..................X....OO++ooOoXXXoXXX=;=-",
"-;;--;----;--#@###;--&.......................**--%%%%.......---<",
"-------;;;-;-###@#---&.......................&*--&%%%......X-::>",
"-;;-;;;-;--->-:;-=---;.......................#@##----.......----",
"--;----;--=-;-----;-;-.......................####;-;-X.XX...-;--",
"-----;-----;-------;;-......................X####;-;;.X.X.X.;-;-",
";;-=------;-;---;----;.......................####-;--.......-;-;",
"-=--;------;--;-;--;--.......................@#@#----.......----",
"---;---;-;----.......................................X.....X-;--",
"--;-------;---..............................................--;-",
";;--;----;-;;;.......................................X..X...--;;",
":-;-----;----;..............................................;-,-",
"---=--;;;-;-;-..............................................--;-",
";------------%.............................................X-;--",
"-----=-----=;%..............................................--;-",
"----:----=---%..............................................-;;-",
"--;---&%%%&%%# .      .......................  .     +++++++;-;-",
"-;-;--$$$$$$$#%%%%;---.......................;--;-----;;--------",
";,>,;;%$+OOOO$;-;;----.......................--=--;;----------;;",
">,;;;;$%OOOOO$;---;--;.......................-------;----------;",
":2<3;;$%OOOOO%-;------.......................;;;;--;--;----;;-;-",
",5--;:$$OOOO+$------;-.......................------;;-=-;-----,-",
"--;:-;$$OOOOO$---;----.......................----;---------=<-;;",
";,-;--%%$$$$$$-->-####.......................-;--;-;-;-----:;-2-",
"XoXoXX*=&*****->--##@@ .     ........       .%&%%%&%%--;-----;-;",
"....X.---;;-;---;;@##########........-;;;----%$$$%$$$----;-;-;-;",
".X....-;-;-;-;;;-;###########........------;-$%$$$$$$-;-;-;-;-;,",
".XX...;:<-;--;-;;-#####@@####........-;---;-;$$$$$$$$;---;-;-;-;",
".....X<;-;-;;-;--;#@########@.......X--------$$$$%$%$;-;;---;-;-",
"......--;----------;;--;;;-:=........--##@##@O+OO$$%$;--;-w---;=",
"......-;--;--;;;;-;--;----:;-........--###@##OOOO%$$$-;--;;-;;e-",
"++++@+---;;---XXXoXooXXXoXXoX.... ...=-@#####@@@@***=-;;------:-",
"-;-;-;---9>-:-X........X.X...........;;#######@##;-;-;------;-;-",
"-;;-----;6->:q...X..X............ ...--#@########;;;;---;--;-;-;",
"---;;;;;;-;66;...........X...........--;;--;;--;----------;-;-;-",
";-;-------;---X..X........X..........-;--;;;-;--;----;-;;-;--;-;",
"-----:2--;---;.........X.............;-;;------;;--;---;-;-;;-;-",
"21;---;-;;-;;;.......X...............---;-;--------;;-;--;-;-;-;",
"42:42>;-----;-.....X....X.X.X......X.;-;-----;;-;--;-;-;;-;-;-;-",
"1:24->>:---;--++++++++@++++++oooooooo--;---;;XXoXXoXXXXXXoXX-;-;",
"->:-;---;---;-;-;-----------;$$$$$$%$-;-;-;-;...X.X..X.X..X.;-;-"
};
