/* XPM */
static char *_3454ecd277c45449a5fe93b100fd2831zGVRXfl6CtwxCBk[] = {
/* columns rows colors chars-per-pixel */
"64 64 119 2 ",
"   c #000000",
".  c #0D0907",
"X  c #06060B",
"o  c #07080D",
"O  c #0D0C0C",
"+  c #120C09",
"@  c #16110F",
"#  c #1A120E",
"$  c #101010",
"%  c #1B1513",
"&  c #1A1816",
"*  c #151518",
"=  c #1C1B1B",
"-  c #261E1E",
";  c gray13",
":  c #2C2825",
">  c #2A292A",
",  c #342F2C",
"<  c #302F30",
"1  c #353535",
"2  c #3B3633",
"3  c #6A4434",
"4  c #684837",
"5  c #734836",
"6  c #764C39",
"7  c #784D3A",
"8  c #76503E",
"9  c #262A4F",
"0  c #272B51",
"q  c #292D53",
"w  c #2C3056",
"e  c #2F335C",
"r  c #3A3857",
"t  c #3C3958",
"y  c #353964",
"u  c #383C64",
"i  c #373B69",
"p  c #393D6B",
"a  c #403D5E",
"s  c #3C416F",
"d  c #3E4271",
"f  c #7E5542",
"g  c #7D5846",
"h  c #45446B",
"j  c #4B486D",
"k  c #404573",
"l  c #4E4D73",
"z  c #4B4F7D",
"x  c #514F74",
"c  c #4B507E",
"v  c #525076",
"b  c #5B5676",
"n  c #56557B",
"m  c #645E7C",
"M  c #666666",
"N  c #6E6E6E",
"B  c #727272",
"V  c #7E7E7E",
"C  c #805644",
"Z  c #825944",
"A  c #825B4B",
"S  c #8A624D",
"D  c #92654E",
"F  c #8E6653",
"G  c #916652",
"H  c #966851",
"J  c #9A6D56",
"K  c #9D6F58",
"L  c #9E7059",
"P  c #B07454",
"I  c #AF8570",
"U  c #AC867B",
"Y  c #B78D7D",
"T  c #B98E7B",
"R  c #BB907D",
"E  c #CF9274",
"W  c #4D5280",
"Q  c #5A5F8E",
"!  c #605C84",
"~  c #5B608F",
"^  c #5F6494",
"/  c #838383",
"(  c #8C8C8C",
")  c #959595",
"_  c #9C9C9C",
"`  c #BE9584",
"'  c #AD9D93",
"]  c #B1A196",
"[  c #BBA99D",
"{  c #A2A2A2",
"}  c #AAAAAA",
"|  c #BEACA0",
" . c #BCAEA8",
".. c #B1B1B1",
"X. c #C29885",
"o. c #CB9B82",
"O. c #DBA88C",
"+. c #DBB19E",
"@. c #C1AFA3",
"#. c #C4B2A5",
"$. c #C2B1AA",
"%. c #CAB9AB",
"&. c #C7B6B0",
"*. c #CEBDB5",
"=. c #E8A7A7",
"-. c #E6BDAA",
";. c #D6C2B4",
":. c #D8C4B6",
">. c #D5C4BC",
",. c #F0C7B5",
"<. c #F2CBB8",
"1. c #C5C5C5",
"2. c gray85",
"3. c #E4D0C1",
"4. c #E5D1C2",
"5. c #E8D4C5",
"6. c gray89",
"7. c #FDF9F7",
"8. c white",
/* pixels */
"V / ( / / / V / V V V V V V / V                                                                         N V V V V V V V V V V V ",
"( V / ( _ / / / / V V V V V V V                                                                         N V B V V V V V B V V V ",
"V V / ) / _ ( V V V V V V V V B                                                                         M V V V B V V V V V V V ",
"/ V V V ( ) V V V V V V B V V V                                                                         N V V V V V V V V V V V ",
"V V V ) _ ( B V V V V N $ $ $ $ S S S S S S S S S S S S S S S S S S S S S S S S S S S g         Z Z Z A & @ $ = N V V V V V V V ",
") V / / / V V V V V ^ N         L L L L L L L L L L L L L L L L L L L L L L L L L L L S         H H H H +     O B V V V V V V V ",
"V V / / ( V V V V V U M         L L L L L L L L L L L L L L L L L L L L L L L L L L L S         H H H H +     O N V V V V V V V ",
"/ / V / V V V V B B B M O . . . L L L L L J L L K L L K K J L K K L J K K K K K L L L S . . . . H H H H % . . @ M B B B V V V V ",
"V V V V V / / B ; $ $ & S S S S L L L L H H H J K L L K H H H H H H H H H H H J H H H H Z Z Z A H H H H 6 8 8 4 & $ $ = V V V V ",
"V B V V V V V B $     + L L L L L L L L H H H H J L L K H H H H H H H H H H H H H H H H H H H H H H H H g Z g 8 +     O / V / V ",
"V V V V V V V B $     + L L L L L L L L H H H H L L L K H H H H H H H H H H H H H H H H H H H H H H H H Z Z Z 8 .     $ V V V V ",
"V V V V V V / B $     @ L L L L L L J L H H H H J L K L H H H H H H H H H H H H H H H H H H H H D D D D 8 6 6 4 .     O V / ) ) ",
"V / V V V V V B $     + L L L L H H H H H H H H H H H H H H H H H H H H H H H H H H H H H H H H Z Z Z Z .             O V / ) 1.",
"V V V V V / V B $     + L L L L H H H H H H H H H H H H H H H H H H H H H H H H H H H H H H H H Z Z Z Z +             $ V ( / ..",
"V V V V V V / B $     @ L L L L H H H H H H H H H H H H H H H H H H H H H H H H H H H H H H H H Z Z Z Z .             O / V ) / ",
"V V V V V V V B $     + L L L L H H H H H H H H H H H H H H H H H H H H H H H H H H H H H H H H Z g Z Z +             O V V V / ",
"V V V V $     . S L L L L L L L H H H H H H H H H H H H H H H H H H H H H H H H H H H H H H H H Z Z Z Z .     O N V U ^ V V V ) ",
"_ ) V V $     O S L L L L L L L H H H H H H H H H H H H H D H H H H H H H H H H H H H H H H H H Z Z C Z +     O B V V V V V V ( ",
"( ( V V $     . S L L L L L L L H H H H H H H H H H H H H H H H H H H H H H H H H H H H H H H H Z Z C Z .     O N V V V V V V V ",
"V V ) V $     . S L L L L L L L H H H D H H H H H H H H H H H H H H H H H H H H H H H H H H H H Z C Z Z +     O B V V V V V V V ",
"V V V V $     . S L L L L L L L L L L L H H H H H H H H H H H H H H H H H H H H H H H D Z Z Z Z . + + O       O N V V V V V { U ",
"V V V V $     O S L L L L L L L L L L L H H H H H H H H H H H H H D H H H H H H H H H D C Z Z Z               O N V V V V V V / ",
"V V V V $     . S L L L L L L L L L L L H H H H H H H H H H H H H H H H D H H H H H H D Z Z Z C               O N V V V V V V / ",
"V V ^ U $     . g S G G L L L L J H H L D D D D D D D D K K J J D D D D D D D D D D D D S S S S @ @ + +       O N V B V V ( / / ",
"V V V V $       @ @ @ % L L L L 8 6 8 7 7 6 6 6 6 6 6 C +.+.+.+.7 7 6 6 6 7 6 7 6 6 6 C +.+.+.+.I I I I @     O N V V V V V V ) ",
"V V V V $             + L L L L 5 5 5 5 5 5 5 5 5 5 5 f -.-.,.-.5 5 5 5 5 5 5 5 5 5 5 f -.-.-.-.o.o.o.X.#     O N V V V V / / / ",
"V V V V $             @ L L L L 5 5 5 5 5 5 5 5 5 5 5 f -.-.-.-.5 5 5 5 5 5 5 5 5 5 5 f -.-.-.-.o.E o.E %     $ N V V V V V V V ",
"V V V V = $ $ O       . G G G D C C C C 3 3 3 3 C A A D -.-.-.-.C C C C 3 3 3 3 g A A F -.-.-.-.o.o.o.o.%     O N V V V V / V V ",
"V V V V V V V B $     X - - - - <.<.<.<.2 ; ; 1 6.8.8.7.<.<.<.<.<.<.<.<.2 - ; 1 6.8.8.7.<.<.<.<.:.-.-.-.&     O N V V V V V V V ",
"V V V V V V V B $       - - - - <.<.<.<.2 ; ; 1 6.8.8.7.<.<.<.<.<.<.<.<.2 - ; 1 6.8.8.7.<.<.<.<.,.-.-.-.=     O N V V V V V / V ",
"V V V V V V V N $     X - - - - <.<.<.<.2 ; ; 1 6.8.8.7.<.<.<.<.<.<.<.<.2 ; ; 1 6.8.8.7.<.<.<.<.-.-.-.-.&   X O N V V V V V V V ",
"V V V V V V V N $       - - - - <.<.<.<.2 ; ; 1 6.8.8.7.<.<.<.<.<.<.<.<.2 ; ; 1 6.8.8.7.<.<.,.,.-.-.-.-.=     $ N V V V V V V V ",
"V V V V V V V B V V V B         =.=.=.=.,.<.<.<.<.<.<.<.<.<.<.<.<.<.<.<.<.<.<.<.<.<.<.,.=.=.=.=.        N V V V V V V V V V V V ",
"V V V V V V V V V V / B         =.=.=.=.,.<.<.<.<.<.<.<.<.<.<.<.<.<.<.<.<.<.<.<.<.<.<.,.=.=.=.=.        N V V V V V V V V V V V ",
"V V V V V V V V V V V B         =.=.=.=.,.<.<.<.<.<.<.<.<.<.<.<.<.<.<.<.<.<.<.<.<.<.<.,.=.=.=.=.        N V ^ V / V V V V V ( V ",
"V V V V V V V V V V V B         =.=.=.=.,.<.<.<.<.<.<.<.<.<.<.<.<.<.<.<.<.<.<.<.<.<.<.,.=.=.=.=.        N V U V V V V V V V V V ",
"V V V V V V V V V V V M         ! ! ! ! x l x b X.o.o.O.o.o.O.o.o.O.o.O.o.O.o.` m n n n ! ! ! Q         O $ $ = N V V / V V V V ",
"V V V V V V V V V V V N         W W W W s p p h ` X.E X.E o.X.X.o.o.R o.E X.o.` x k k k c c c W               O N V V V V V V V ",
"V V V V / V B V V V V N         W W W W s i i h Y o.X.o.o.o.o.o.R o.o.R E o.E ` x k k k W W W W               O N V V V V V V / ",
"V V V V V U ^ V N B B M X X X X c c c z p i i h U R R R T T T T R R Y Y ` Y Y U x k k k c c z W X X X X       O N V V V V V V V ",
"V V V V V V V B = $ $ * u u y u k k k k w q q q h j j j j j j j l j j j r r r r i p p s p d p p s s t s o     O B V V V V V V V ",
"V ( ( ( V V U B $     o k k k k k k k k q 0 0 0 y p p p p p p p s s s s 0 0 9 0 u p p i p p p p s d d k o     O N V V V V V V V ",
"/ ( / V / V V N $     o k k k k k k k k q 0 0 0 i p p p p p p p u s e s 0 0 9 0 i p p p p p p p d d k k o     O N V V V V V V V ",
"/ _ ) _ / V V B $     o k k k k k k k k w w w w i p p p p p p p i u u s w w w w y i i i i i p p s s s s o     O N V V V V V V V ",
"( { V V V / / B $     X k k k k k k k k ^ ^ ^ ^ d p p p p p p p p p p p ~ ^ ^ ~ y e e e e e e e 9 9 9 9 X     O N V V V V V ( V ",
"/ V / / V / V B $     o k k k k k k k k Q ^ ^ Q p p p p p p p p p p p p ~ ^ ^ Q y e e e e e e e 9 9 9 9 o     $ N V V B ( V V V ",
"V ( V V V V V B $     o k k k d k k k k ^ ^ ^ ~ d p p p p p p p p p p i ~ ^ ^ ~ y e e e e e e e 9 9 9 9 X   X O N V V U V V _ V ",
"/ V V V V / / B $     o k k k k k k k d Q ^ ^ ~ d p p p p p p p p p i s Q ^ ^ ~ y w e e e e e e 9 9 9 9 o     O N V V V V V V V ",
"V V V V V V V B * X   % O.O.O.O.k k k k ^ ^ ^ Q y e e e e e e e e e e e Q ^ ^ Q u e e a E E E E P P P P +     O N U V V V V V V ",
"V V V V V / V B $     @ O.O.O.O.k k k k ~ ^ ^ ~ y e e e e e e e e e e e Q ^ ^ Q y e e a E E E E P P P P #     O N ^ V V V V V ) ",
"V / / V V V / V *     @ O.O.O.O.k k k k ~ ^ ^ Q y e e e e e e e e e e e Q ^ ^ Q y e e a E E E E P P P P +     O N V V V V V V V ",
"V V V V ( } ( B $     & O.O.O.O.k k k k ~ ^ ^ ~ y e e e e e e e e e e e Q ^ ^ Q y e e a E E E E P P P P #     o B V V V / V V V ",
"V V V V V V V B $       % % % % o o o o  .>.>.>.;.*.*.*. .$.#. . .$. .$.%.&.&.&. .#.$.] % % # # @ + @ +       O N V 1.V V V / V ",
"V V V / V V V B $                       %.5.5.5.5.5.5.3.;.;.;.;.:.;.;.;.;.;.;.;.;.;.;.|                       O N V V V V V 2.V ",
"V V V V V V V N $                       %.5.5.5.5.5.5.4.;.;.;.;.;.;.;.;.;.;.;.;.;.;.;.|                       O N V V V V V U V ",
"V V V V V V V B = $ O O $ O O $         %.5.4.4.;.;.;.*.#.#.@.@.@.@.@.@.#.| #.| ;.;.;.|         O O $ O O O O & N V V V V V V V ",
"V V V V V V V V B ) B B V } N N         [ :.:.#., = = = & = & = = & = & & & & : | ;.;.|         B B N N N N N N V V V V V V V V ",
"V V V V V V V V / V V } } V V V         [ ;.;.@.&                             $ [ ;.;.|         V V V V V V V V V V V V V / V V ",
"V / V V V V / V V V V V V V V V         [ ;.;.@.&                             $ [ ;.;.|         / V V V V V V V V V V V / V / V ",
"V V V V / / ) V V V V V V V / V         ' #.#.] &       $ $ $ $ O $ O O       @ ' #.| ]         V V V V V V V / V V V V V V V V ",
") ) / V / V V V V V V V V / V V         > > 1 > X     $ V V V V V V V V $     X > < < >         V V V V V / V V / V V V V / V V ",
"{ _ ( _ _ / V V V V V V V V V V         > 1 > > X     $ V V V V V V V V $       > < < >         V V V V V V V V V V V / V V V V ",
") / _ _ V ( ( / V V V V V V V V         > 1 < > X     O V V V V V V V V $     X > < < >         V V V V V V V V V V V V V V V / ",
"/ ( / / V V V V V V V V V V V V         > > < : X     O V V V V V V ^ U $       > < < <       X V / V V / V V / V V V V / V V V "
};
