/* XPM */
static char *_17db7d5741f44b2ac751e88c2c3cd4d0MuxDtn0ufACdrkb[] = {
/* columns rows colors chars-per-pixel */
"64 64 121 2 ",
"   c #000000",
".  c #0D0907",
"X  c #06060B",
"o  c #07080D",
"O  c #0D0C0C",
"+  c #120C09",
"@  c #16110F",
"#  c #1A120E",
"$  c #101010",
"%  c #1B1513",
"&  c #1A1816",
"*  c #151518",
"=  c #1C1B1B",
"-  c #221813",
";  c #261E1E",
":  c gray13",
">  c #2C2825",
",  c #2A292A",
"<  c #342F2C",
"1  c #302F30",
"2  c #353535",
"3  c #3B3633",
"4  c #6A4434",
"5  c #684837",
"6  c #734836",
"7  c #764C39",
"8  c #784D3A",
"9  c #76503E",
"0  c #262A4F",
"q  c #272B51",
"w  c #292D53",
"e  c #2C3056",
"r  c #2F335C",
"t  c #3A3755",
"y  c #3C3958",
"u  c #353964",
"i  c #383C64",
"p  c #373B69",
"a  c #393D6B",
"s  c #403D5E",
"d  c #3C416F",
"f  c #3E4271",
"g  c #7E5542",
"h  c #7D5846",
"j  c #7F5848",
"k  c #45446B",
"l  c #4B486D",
"z  c #404573",
"x  c #4E4D73",
"c  c #514F74",
"v  c #4B507E",
"b  c #525076",
"n  c #5B5676",
"m  c #56557B",
"M  c #645E7C",
"N  c #666666",
"B  c #686867",
"V  c #6E6E6E",
"C  c #727272",
"Z  c #7E7E7E",
"A  c #805644",
"S  c #825944",
"D  c #825B4B",
"F  c #8A624D",
"G  c #92654E",
"H  c #8E6653",
"J  c #916652",
"K  c #966851",
"L  c #9A6D56",
"P  c #9D6F58",
"I  c #9E7059",
"U  c #B07454",
"Y  c #AF8570",
"T  c #AC867B",
"R  c #B78D7D",
"E  c #BB907D",
"W  c #CF9274",
"Q  c #4D5280",
"!  c #5A5F8E",
"~  c #605C84",
"^  c #5B608F",
"/  c #5F6494",
"(  c #838383",
")  c #8C8C8C",
"_  c #959595",
"`  c #9C9C9C",
"'  c #BE9584",
"]  c #AD9D93",
"[  c #B1A196",
"{  c #BBA99D",
"}  c #A2A2A2",
"|  c #AAAAAA",
" . c #BEACA0",
".. c #BCAEA8",
"X. c #B1B1B1",
"o. c #C29885",
"O. c #CB9B82",
"+. c #DBA88C",
"@. c #DBB19E",
"#. c #C1AFA3",
"$. c #C4B2A5",
"%. c #C2B1AA",
"&. c #CAB9AB",
"*. c #C7B6B0",
"=. c #CEBDB5",
"-. c #D1BFB4",
";. c #E8A7A7",
":. c #E6BDAA",
">. c #D6C2B4",
",. c #D8C4B6",
"<. c #D5C4BC",
"1. c #F0C7B5",
"2. c #F2CBB8",
"3. c #C5C5C5",
"4. c gray85",
"5. c #E5D1C2",
"6. c #E6D2C3",
"7. c #E8D4C5",
"8. c gray89",
"9. c #FDF9F7",
"0. c white",
/* pixels */
"Z ( ) ( ( ( ( Z Z Z Z V                                                                         Z Z Z Z Z Z Z Z Z Z Z Z Z Z Z Z ",
") Z ( ) _ ( ( ) Z Z Z V                                                                         Z Z C Z Z Z Z C Z Z Z Z C Z Z Z ",
"Z Z Z _ ) ` ) Z Z Z Z V                                                                         C Z Z Z Z C Z Z Z C Z Z Z Z Z Z ",
"Z Z Z ( ( _ Z Z Z Z Z V                                                                         ( ( Z Z Z Z Z Z Z Z Z Z Z Z Z Z ",
"Z Z ( _ ` ) Z V * @ @ & S S D S         h F F F F F F F F F F F F F F F F F F F F F F F F F F F $ $ $ $ C Z Z Z Z Z Z Z Z Z Z Z ",
"_ Z ( ( Z Z Z V O     + K K K K         F I I P I I I I I I I I I I I I I I I I I I P I I I I I         C Z Z Z Z Z Z Z Z Z Z Z ",
"Z Z ( ( ) Z Z V O     @ K K K K         F I P P I I I I I I I I I I I I I I I I I I I I I I I I         C Z Z ( Z Z Z Z Z Z Z Z ",
"( ( ( Z C C C N $ . . # K K K K . . . . G P P P P P P P P P P P P P P P P I I P P P P P I I I I . O + . B C C C Z Z Z Z Z Z Z Z ",
"Z Z Z Z = $ + & 5 7 7 9 K K K K S S S D K K K L L K K K K K K K K K K K P I I P K K K K I I I I F F F F & $ $ = C Z Z Z Z Z Z Z ",
"Z Z C Z $     + 9 S S S K K K K K K K K K K K K K K K K K K K K K K K K P I I P K K K L I I I I I I I I +     $ C Z Z Z Z ( ( Z ",
"Z Z T Z $     + 9 h S S K K K K K G K K K K K K K K K K K K K K K K K K P I I P K K K K I I I I I I I I +     $ C Z Z ( Z Z Z Z ",
"Z Z / Z O     . 5 9 7 9 G J J J K K K K K K K K K K K K K K K K K K K K L P P P K K K K P P P P I I I I +     $ C ( Z Z Z ( _ _ ",
"Z Z Z Z O             + S S S S K K K K K K K K K K K K K K K K K K K K K K K K K K K K K K K K I I I I +     $ C Z Z ( Z Z _ 3.",
"Z Z Z Z $             + S S S S K K K K K K K K K K K K K K K K K K K K K K K K K K K K K K K K I I I I +     $ C Z Z Z Z ) ( X.",
"Z Z Z Z O             . S S S S K K K K K K K K K K K K K K K K K K K K K K K K K K K K K K K K I I I I +     $ C ( Z Z Z Z _ ) ",
"Z Z Z Z O             . S S S S K K K K K K K K K K K K K K K K K K K K K K K K K K K K K K K K I I I I +     $ C Z Z Z Z Z Z Z ",
"Z Z Z Z Z Z Z V O     . S S S S G K K K K K K K K K K K K K K K K K K K K K K K K K K K K K K K I I I I I I I F .     $ T Z Z _ ",
"` ) ( Z Z Z Z V O     + S S S S K K K K K K K K K K K K K K K K K K K K K K K K K K K K K K K K I I I I I I I F .     $ / Z Z ( ",
") ) Z Z Z Z Z V O     + S S S S K K K K K K K K G K K K K K K K K K K K K K K K K K K K K K K K I I I I I I I F O     $ Z Z Z Z ",
"Z Z _ Z Z Z Z V O     + S S S A K K K K G K K K K K K K K K K K K K G K K K K K K K K K K K K K I I I I I I I F .     $ Z Z Z T ",
"Z Z Z Z Z Z C V O       . + . + S S S S G K K K K K K K K K K K K K K K K K K K K K K K P P P P I I I I I I I F $     $ Z Z ` ( ",
"Z Z Z ( Z Z Z V O               S S S S G K K K K K K K K K K K K K K K K K K K K K K K I P I I I I I I I I I F +     $ Z Z Z ) ",
"Z Z Z Z ( Z Z C O               S S S S G K K K K K K K K K K K K K K K K K K K K K K K P P P P I I I I I I I F .     $ Z Z Z ( ",
"Z Z Z Z Z Z Z V O       + @ @ @ G F F F G G G G F G G G G G G G P I P P G G G G G G G G L L L L I I I I H F J j O   X $ Z ) Z ( ",
"Z Z Z Z Z Z Z V O     % Y Y Y Y @.@.@.@.A 8 7 8 7 8 7 8 8 8 8 7 @.@.@.@.S 8 8 8 8 7 7 7 7 8 8 8 I I I I - + @ @       $ Z Z Z _ ",
"Z Z Z Z Z Z Z C O     % o.O.O.o.:.:.:.:.g 6 6 6 6 6 6 6 6 6 6 6 :.:.:.:.A 6 6 6 6 6 6 6 6 6 6 6 I I I I +             $ Z ( ( ) ",
"Z Z Z Z Z Z Z V O     % O.O.W o.:.:.:.:.g 6 6 6 6 6 6 6 6 6 6 6 :.:.:.:.A 6 6 6 6 6 6 6 6 6 6 6 I I P I +             $ Z Z Z Z ",
"Z Z Z Z Z Z Z V O     % O.O.O.W :.:.:.:.H D D j 4 4 4 4 A A A g :.:.:.:.H D D A 4 4 4 4 A A A A J J J J O       $ $ O = Z Z Z Z ",
"Z Z Z Z Z Z Z V O     & 1.:.:.:.1.1.2.2.9.0.0.8.2 ; : 3 1.2.2.2.2.2.2.2.9.0.0.8.2 : : 3 2.2.2.2.; ; ; ; X     $ C Z Z Z Z Z Z Z ",
"Z Z Z Z C Z Z V O     & :.:.:.:.2.2.2.2.9.0.0.8.2 : : 3 2.2.2.2.2.2.2.2.9.0.0.8.2 : : 3 2.2.2.2.; ; ; ;       $ C Z Z Z Z Z Z Z ",
"( Z Z Z Z Z Z V O     & :.:.:.:.2.2.2.2.9.0.0.8.2 : : 3 2.2.2.2.2.2.2.2.9.0.0.8.2 : : 3 2.2.2.2.; ; ; ;       $ C Z Z Z Z Z Z Z ",
"Z Z Z Z Z Z Z V O     & :.:.:.:.2.2.2.2.9.0.0.8.2 : : 3 2.2.2.2.2.2.2.2.9.0.0.8.2 : : 3 2.2.2.2.; ; ; ; X     $ C Z Z Z Z Z Z Z ",
"Z Z Z Z Z Z Z Z Z Z Z V         ;.;.;.;.1.2.2.2.2.2.2.2.2.2.2.2.2.2.2.2.2.2.2.2.2.2.2.1.;.;.;.;.        C Z Z Z Z Z Z Z Z Z Z Z ",
"Z Z Z Z Z Z Z Z Z ( Z C         ;.;.;.;.1.2.2.2.2.2.2.2.2.2.2.2.2.2.2.2.2.2.2.2.2.2.2.1.;.;.;.;.        C Z Z Z Z Z Z Z Z Z Z Z ",
"( Z Z Z C Z Z Z Z Z Z V         ;.;.;.;.1.2.2.2.2.2.2.2.2.2.2.2.2.2.2.2.2.2.2.2.2.2.2.1.;.;.;.;.        C Z Z Z Z Z Z Z Z Z ) Z ",
"Z Z Z Z Z Z T / Z Z Z C         ;.;.;.;.1.2.2.2.2.2.2.2.2.2.2.2.2.2.2.2.2.2.2.2.2.2.2.1.;.;.;.;.        V Z Z Z Z Z Z Z Z Z Z Z ",
"Z Z Z Z Z Z Z V & $ $ O         ^ M ~ ~ ! n m M o.O.+.O.O.O.+.O.+.O.+.O.O.O.+.' n x b b ~ ~ ~ ~         C Z Z Z Z Z Z ( Z Z Z Z ",
"Z Z Z Z Z Z Z B O               v v Q v z z f c ' O.O.o.W O.o.o.W o.o.O.O.O.o.R k a a a Q Q Q Q         C Z Z T Z Z Z Z Z Z Z Z ",
"Z Z Z Z ( Z Z V O               m v Q Q z z k b E o.W O.O.O.O.o.o.O.o.W W o.W ' k a p d Q Q Q Q         V Z Z / Z Z Z Z Z Z Z ( ",
"Z C Z Z Z Z Z V O       X X X X v v v v f f f b T E R R E R R W E E R R ' R R T k p p a v Q Q Q X X X X B C C C Z Z Z Z Z Z Z Z ",
"Z Z Z Z Z Z Z V O     o i i i i d d d d a a a p y t t s l l l l l k l l l l l k w q q w z z z z d d y d * $ $ = C Z Z Z Z Z Z Z ",
"Z ) ) ) ( Z ( V O     o z z z z p p a a p a a p q 0 0 q p p a a d d i d a a a p q q q w z z z z d f f z o     $ C Z Z Z Z Z Z Z ",
") ) ( Z ( Z Z V O     o z z z z a a a a a a a p q 0 0 w p a a a d p d p a a a u 0 0 q w z z z z d d z z o     $ C Z Z Z Z Z Z Z ",
"( ` _ ` ( Z Z V O     X d d d d p p p p p p p u e e e r p a a a p p d p a a a p e e e r z z z z z z z z o     $ C Z Z Z Z Z Z Z ",
") } Z Z Z ( ( V O     X 0 0 0 0 r r r r r r r u ! / / ! a a a a p d p p d p a f / / / ^ f z z z z z z z o     $ C Z Z Z Z Z ) Z ",
"Z Z ( ( Z ( Z V O     X 0 0 0 0 r r r r r r r u ! / / ! a a a a p p d p d p p f ^ / / ^ z z f z z z z z O     $ C Z Z C ) Z Z Z ",
"( ) ( Z Z Z Z C O     X 0 0 0 0 r r r r r r r u ! / / ! a a a a d d p p p d p f / / / ^ z z z z z z z z o   X $ C Z Z T Z Z ` Z ",
"Z Z Z Z Z Z Z V O     X 0 0 q q r r r r r r r u ! / / / a a a a p p p d a p a f ! / / ^ z z z z f z z z O     $ C Z Z Z Z Z Z Z ",
"Z Z Z Z Z Z Z V O     @ U U U U W W W W s r r u ! / / ! r r r r r r r r r r r u ^ / / ^ z z z z +.+.+.+.@     $ C ( Z ( Z Z Z ( ",
"Z ( Z Z Z Z Z C $     @ U U U U W W W W s r r u ! / / ! r r r r r r r r r r r u ! / / ^ z z z z +.+.+.+.#     $ C Z Z Z Z Z Z ) ",
"Z Z Z Z Z Z ( C $     @ U U U U W W W W s r r i ! / / ! r r r r r r r r r r r u ! / / ! z z z z +.+.+.+.@     $ C Z Z Z ( Z ( Z ",
"Z Z Z ( ) | _ V O     @ U U U U W W W W s r r i ! / / ! r r r r r r r r r r r u ^ / / / z z z z +.+.+.+.@     $ C ( Z Z Z Z Z Z ",
"Z Z Z Z Z Z Z V O       + # + + % @ @ @ ] %.#.%.%.*.*.*.#.%.$.#...%...%.=.>.=.<.<.<.5...o o o o % % % %       $ C Z 3.Z Z Z Z Z ",
"Z Z Z Z Z Z Z V O                        .>.>.>.-.,.>.>.-.,.,.-.>.>.>.>.5.7.7.7.7.7.5.&.                      $ C Z Z Z ( Z 4.Z ",
"Z Z Z Z Z Z Z V O                        .>.>.>.,.,.>.>.,.-.,.,.>.>.>.>.5.6.7.7.7.7.5.&.                      $ C Z Z Z Z Z ( Z ",
"Z Z ( Z Z Z Z V & $ O O O O O +          .>.>.>.#.#.#.#.#.#.#.#.#.#.$.$.=.>.=.>.5.6.5.&.        $ O O O O O O = C Z Z Z Z Z Z Z ",
"Z Z Z Z Z Z Z Z C _ C C Z | C V          .>.>.{ > & & & & & & & & & & & = = & < $.,.,.{         V C C V V V V V Z Z Z Z Z Z ( Z ",
"Z Z Z ( Z Z Z ( Z Z Z | | Z Z Z          .>.>.{ $                             & $.>.>.{         Z Z Z Z Z Z Z Z Z Z Z Z Z Z Z Z ",
"Z Z Z Z Z Z Z Z Z Z ( Z Z Z Z /          .>.>.{ $                             &  .>.>.{         ( Z Z Z Z Z Z Z Z Z Z ( Z Z Z Z ",
"Z Z Z Z Z ( _ Z Z Z Z Z Z Z Z T         ] $.$.] $       O $ O O O O $ O       & [ $.$.]         Z Z Z Z Z Z ( Z ( Z Z Z Z Z Z ( ",
"_ _ ( Z Z Z ( Z Z Z Z Z Z Z Z Z         , 1 < , .     @ Z Z Z Z ( Z Z Z O     X , 1 1 ,         Z Z Z Z Z ( Z Z Z Z Z Z ( Z Z Z ",
"} ` ( } ` ( Z Z Z Z Z Z Z Z Z Z         , 1 1 , X     $ Z Z Z Z Z Z Z Z $     X , 1 1 ,         Z Z Z Z Z Z Z Z Z ( Z Z Z Z Z ( ",
"_ ) } } Z ) ) ( Z Z Z Z Z Z Z Z         , 1 1 , X     $ Z Z Z Z Z Z Z Z @     X , 1 2 ,         Z Z Z Z Z Z Z Z Z Z ( Z Z Z Z Z ",
"Z ( ( Z Z Z Z Z Z Z Z Z Z Z Z Z         , 1 1 ,       $ Z Z Z Z Z Z Z Z O       , 2 , ,         Z Z ( Z ( Z Z Z Z ( Z Z Z ( Z Z "
};
