/* XPM */
static char *result[] = {
/* columns rows colors chars-per-pixel */
"64 64 123 2 ",
"   c #000000",
".  c #090503",
"X  c #010A03",
"o  c #06060B",
"O  c #0D0D0D",
"+  c #1F0F04",
"@  c #160E0A",
"#  c #17120F",
"$  c #19120E",
"%  c #0C0B10",
"&  c #111111",
"*  c #1D1717",
"=  c #141418",
"-  c #1C1C1C",
";  c #251E1E",
":  c #252425",
">  c #2D2322",
",  c #282628",
"<  c #2E2C2D",
"1  c #312524",
"2  c #362825",
"3  c #382925",
"4  c #312B2B",
"5  c #382A2A",
"6  c #38312E",
"7  c #302F30",
"8  c #382C32",
"9  c #323232",
"0  c #383638",
"q  c #432518",
"w  c #4A291B",
"e  c #472B25",
"r  c #4A2E27",
"t  c #522F20",
"y  c #45312D",
"u  c #4F3129",
"i  c #543121",
"p  c #543629",
"a  c #5C3C2E",
"s  c #4C3939",
"d  c #0C6624",
"f  c #564039",
"g  c #7A4F3A",
"h  c #292D51",
"j  c #2F335C",
"k  c #31355D",
"l  c #343861",
"z  c #373B69",
"x  c #393D6B",
"c  c #403E40",
"v  c #474647",
"b  c #4E4542",
"n  c #4E4C4E",
"m  c #585758",
"M  c #474B79",
"N  c #4B4F7F",
"B  c #605F60",
"V  c #636363",
"C  c #6E6E6E",
"Z  c #737373",
"A  c #7E7E7E",
"S  c #E77323",
"D  c #FF7F27",
"F  c #8A5F52",
"G  c #96654D",
"H  c #98664E",
"J  c #9E6A4E",
"K  c #8E6354",
"L  c #956757",
"P  c #9C6952",
"I  c #986A5A",
"U  c #A36E55",
"Y  c #A77157",
"T  c #AC7353",
"R  c #AC745A",
"E  c #B07454",
"W  c #B97A57",
"Q  c #B37758",
"!  c #B0785D",
"~  c #B67E63",
"^  c #FA8433",
"/  c #B78166",
"(  c #BA8165",
")  c #B6846C",
"_  c #BD8469",
"`  c #BC8A72",
"'  c #CB8E71",
"]  c #C69177",
"[  c #CF9274",
"{  c #CD987D",
"}  c #D09379",
"|  c #D49B7D",
" . c #4E5282",
".. c #838383",
"X. c #8A8A8A",
"o. c #959595",
"O. c #9D9C9C",
"+. c gray63",
"@. c #AAAAAA",
"#. c #B3ABA6",
"$. c #B3AEAD",
"%. c #B0B1B0",
"&. c #BCBCBC",
"*. c #CF9A83",
"=. c #C99696",
"-. c #DBA88C",
";. c #DFB29A",
":. c #DEA5A5",
">. c #C3BDBB",
",. c #E2B0B0",
"<. c #C3C3C3",
"1. c #C9C4C1",
"2. c #CCCCCC",
"3. c #D3D3D3",
"4. c #DEDEDE",
"5. c #E1D4CC",
"6. c #E7DAD1",
"7. c #E7E7E7",
"8. c #E0EBE3",
"9. c gray92",
"0. c #FFF1E7",
"q. c #FBF6F5",
"w. c white",
/* pixels */
"A ..X.......A A A A A  .) A ..A                                                                 A A A A A A A A A A A A A A A A ",
"X.....X.O.....X.A A A A X.A A A                                                                 A A A Z A A Z A A Z A Z A A A A ",
"A ..A o...O.X.A A A A A A A A A                                                                 Z A A A Z A A A A A A A Z A A A ",
"A A A A ..o.A A A A A A A Z A A                                                                 ....A A A A A A A A A A A A A A ",
"A A ..o.O.X.A A A A A Z O O O & l k k k k k k l k k k k k k k k k k k k k k k k l j k h         & O & O Z A A A A A A A A A ..A ",
"o.A ....A A A A Z A A C X X     x x x x x x x x x x x x x x x z x x x x x x x x x x x l                 C A A ..A A A A A A A A ",
"A A ..A X.A A A A A A C         x x x x x x x x x x x x x x x x x x x x x x x x x x x l                 C A A A A A A A A A A A ",
"....A ..A A A A A A A Z         x x x x x x x x x x x x x x x x x x x x x x z x x x x l   o o           Z A A A A A A A A A ..A ",
"A A A A A A A A A A A Z         N N N N x x x x N N N N z x x x N N N  .M x x x M  .N M h h h h         C A A A A A ..A A A A A ",
"A A Z A A A A ..A A A Z          . . . .x x x x N  . .N x x x z  . . . .x x x x  . . .M j j j j         C A A A A A A A A A ..A ",
"A A A A A A A A A A A Z          . . . .x x x x N  . .N x x x x  . . . .x x x x  . . . .j j j j         Z A A A A A A A A A A A ",
"A A A A Z Z Z Z Z Z C V          . . . .x x x x N  .N N x x x x  . . . .x x x x  . . .M j j j j         C A ..A A A A A A ..o.o.",
"A A A A &                        . . . .x x x x N  . .N x x x x  . . . .x x x x M  . . .j j j j         C A A A A ..A A A ..o.<.",
"A A A A &                        . . . .x x x x N  . .N x x x z  . . . .x x x x  . . .M j j j j         A A A A A A A A A X...%.",
"A A A A O                        . . . .M x x x N  . .N x x x x  . . . .x x x x  . . . .j j j j         C A A A A A A A ..A o.X.",
"A A A A &                        . . . .x z x x N  . .N x x x x  . . . .x x x x M  . .M j j j j         C A A A A A A A A A A A ",
"        k x x x x x x x x x x x  . . . .x x x x N  . . . . . . .x x x z x x x x x x x z j j j j         C A A A A A A A A A ..o.",
"        k x x x x x z x x x x x  . . . .x x x x N  . . . . . . .x x x x x x x z x x z z j j j j         C A A A A A A A A A A ..",
"        k x x x x x x x z x x x  . . . .x x x x N  . . . . . . .x x x x x z x x x x x z j j j j         Z A A A A A A A A A A A ",
"        k x x z x x x x x x x z  . . . .x x x x N  . . . . . . .x z x x x x x x x z x z j j j j         C A A A A A A ..A ..A ..",
"C ) C C = o o o o o o % 8 8 8 8 r r r e r e e p K I I K r r r r e e e e e e e u F L L F > , > :         O & O - Z A A A A A O...",
"A  .A A O             . 5 5 5 5 w w w w e w w t G U U G w w w w w w w w w w w t G U U G ; ; ; ;               O C A A A A A ..X.",
"A A ..A &             . 5 5 5 5 w w w w w w w t G U Y H w w w w w w w w w w w t H U U G ; ; ; ;               O C A A A A A A ..",
"..X.....- O O O         5 5 5 5 q q q q p p p a H Y U P i i i i q q q q u p p a U Y Y L ; ; ; ;       .       O V C C C ..X.A ..",
"&.&.&.&.A C C V O X   X 5 5 4 5 . . . . O.$.$.#.) ~ ~ ~ R R Q R . . . . O.$.$.#.] ' ' ~ ; ; ; ; ; * ; ;         O O & - A A A o.",
"<.<.<.&...A A Z & X   X 5 5 5 5         @.<.<.&.` ( ( ( ( ( ( (         @.<.<.>.{ [ [ _ ; ; ; ; ; ; ; ; .             O A ....X.",
"<.<.<.<.X.A A Z &     . 5 5 5 5         @.<.<.>.` ( ( ( ( ( ( (         @.<.<.>.{ [ ' / ; ; ; ; ; ; ; ;               O A A A A ",
"&.&.&.&.X.A A Z O     . 5 5 5 5 X X X X %.2.1.1.` _ _ ( _ _ _ _ X X X X $.2.2.1.*.} } ' ; ; : ; > > > > o .           O A A A A ",
"A A A A A A A Z &     . 5 5 5 5 d d d d 8.w.w.q.;.-.-.-.-.-.-.-.d d d d 8.w.w.q.,.:.:.=.; ; ; ; g g g g > ; ; ; .     O A A A A ",
"A A A A A A A Z &       5 5 5 5 d d d d 8.w.w.q.;.-.-.-.-.-.-.-.d d d d 8.w.w.q.,.:.:.=.; ; ; ; g g g g 1 ; ; ;       O A A A A ",
"A A Z A A A A C O     . 5 5 5 5 d d d d 8.w.w.q.;.-.-.-.-.-.-.-.d d d d 8.w.w.q.,.:.:.=.; ; ; ; g g g g 1 ; ; ; .     O A A A A ",
"A A A A A A A C &     . 5 5 5 5 d d d d 8.w.w.q.;.-.-.-.-.-.-.-.d d d d 8.w.w.q.,.:.:.=.; > ; ; g g g g > ; ; ;       O A A A A ",
"<.<.<.<.=     . 1 5 5 5 5 5 5 5 :.:.:.:.-.-.-.-.-.-.-.-.| ;.| ;.| | | | [ [ [ ' E E E E ( W W W + ; ; ; ; ; ; ; X X             ",
"<.<.<.<.-     . 1 5 5 5 5 5 5 5 :.:.:.:.-.-.-.-.-.-.-.-.;.| ;.| | | | | [ [ [ ' E E E E W W W W > ; ; ; ; ; ; ; .               ",
"<.<.<.<.=       1 5 5 5 5 5 5 5 :.:.:.:.-.-.-.-.-.-.-.-.| ;.| ;.| | | | [ [ [ [ ( T T T W W W W ; ; > ; ; ; ; ;                 ",
"<.<.<.<.*     . 1 5 5 3 5 5 5 5 :.:.:.:.-.-.-.-.-.-.-.-.-.-.| | | | | | [ [ [ ' E T T / W W W W ; ; ; ; ; ; ; *                 ",
"<.<.<.<.-     . 1 5 5 5 5 5 5 5 s s s s f y f f ( ( ( ( ( ( W ( ! ! ~ R R R ! U y 3 2 3 3 3 3 3 ; ; ; ; ; > ; ; * ; * *         ",
"<.<.<.<.=       1 5 5 5 5 5 5 5 5 5 5 5 3 6 4 6 W ( J ^ W ( W W Y R Y R R R R U 3 ; ; ; ; ; ; ; ; ; ; ; ; ; > ; ; ; ; ;         ",
"<.<.<.<.*     . 1 5 5 5 5 5 5 5 5 5 5 5 6 3 3 y J W ( E ( E W W R R R R R R R P 3 ; ; > ; ; ; ; > ; ; ; ; ; ; ; ; ; ; *         ",
"<.<.<.<.: O o % > 1 1 1 5 5 5 5 5 6 5 6 > 2 2 w J T T T T T T / U U P U P P P G 3 ; ; ; ; ; : : ; ; ; ; ; ; ; ; ; ; ; ;         ",
"<.<.<.<.A C C V & . . o 5 5 5 5 n n n v @ . . o c v v f v b b b c b b b 5 1 1 3 , : , : : : : : ; ; > ; > ; ; ; ; ; ; *         ",
"<.<.<.<.X.A ..Z &     . 5 5 5 5 n n n n o     . 0 c c c c c c c c c c c > ; ; ; , : : , : , , : ; ; ; ; ; ; ; ; ; > ; ;         ",
"<.<.<.<.X.A A Z &     . 5 5 5 5 n n n n O     o 0 c c c c c c c c c c c > ; ; ; , : : , , , : , ; ; ; ; ; ; ; ; ; ; ; *         ",
"&.&.<.&.X.A A Z &     . 5 5 5 6 n v n n & O O & 0 c c c c c c c c c c c 4 < 4 1 , , : : : , : : ; ; ; ; ; ; ; ; ; * ; *         ",
"+.+.+.+...X.A Z &     . n n n n < < 7 < Z A A A v c c c c c c c c c c c Z ....Z 7 : : , : : : , , : , : ; ; ; *                 ",
"+.+.+.+...A A Z &     o m n n n 7 < < < Z ..) Z v c c c c c c c c c c c Z A ..Z 7 , , : : , , , , , : , ; ; > ; .               ",
"+.+.+.+...A A Z &   X X n n n n < < < < Z A  .A v c c c c c c c c c c c A A A Z 9 : , : , , : : , , , : ; ; ; *                 ",
"+.+.+.+...A ..Z &     O n n n n < < 7 9 Z ..A A v c c c c c c c c c c c Z ....Z 9 : : , : : , : , : , : : ; ; ; .               ",
"+.+.+.+.=             # -.-.-.-.< < < < Z ..A Z 7 - : : < 7 < < < < < 7 Z ..A Z 9 , : 6 [ [ [ [ T Q T Q @     O C A A A A A A A ",
"+.+.+.+.=             # -.-.-.-.< < < < )  .A A < : : - < < < < 7 < < < Z A A A 9 , : 6 [ [ [ [ T T E E @     O Z A A A A ....X.",
"+.+.+.+.=             # -.-.-.-.< < < < Z ..A Z 7 - - : < < < < < < < < Z A A Z 7 , : 6 [ [ [ [ E E E E @     O C A ..A A A A A ",
"+.+.+.+.=             # -.-.-.-.< < < < Z ..A Z < : - : 7 < < < < < < < Z ....Z 9 : : 6 [ [ [ [ E E E E @     O C A A A A A A ..",
"= & = = <.4.4.4.4.4.4.5.^ ^ ^ ^ . . . o 7 0 0 0 7 < 7 7 7 7 7 7 7 7 < 7 , < < , : - : - $ $ $ $ @ @ @ @       O Z A <.A ..A A A ",
"  X     4.w.w.w.w.w.w.0.D D D D         , < < < 7 7 7 7 7 7 7 7 7 7 7 7 : - : - - : : -           X           O C A A A A A 3.A ",
"        4.w.w.w.w.w.w.0.D D D D         , < < < < 7 7 < 7 < 7 9 7 7 7 7 : : : : - : : -                       O C A A A A A ....",
"        2.7.7.7.7.7.7.6.S S S S         7 9 9 7 < , < < : < < : < < , < - - - - , , : :         O O O O O O O = C A A A A A ..A ",
"        - - : - - : : - + + + +         V Z Z C = . o . . . o . X X . o . .   O m V V m         Z C Z C C C C C A A A A A ..A A ",
"                                        C ..A Z O                             o B C C B         A A A A A A A A A A A A A A A A ",
"                                        C A A Z O                             O B C C B         ..A A A A A A A A A A A A A A ..",
"O O O & O O & O O O O O O O O O         A X.X.A &     X O % O & O O O O       O C Z A C         A A A A A A ..A A A A ....A A A ",
"O.o...A A A A A A A A A ..A ..A         3.9.9.3.-     O A A A A A A A A &     = 2.9.9.3.        A A A A A ..A A A A A A A A A ..",
"+.O.X.O.O.X.A A A A A A A A A A         2.9.9.3.-     O A A A A A A A A &     = 2.9.9.3.        A A A A A A A A A ..A A A A A A ",
"o.X.O.O.A X.X...A A A A A A A A         3.9.9.3.-     & A A A A A A A A #     = 2.9.9.3.        A A A A A A A A A A ..A A A A A ",
"A X...A A A A A A A A A A A A A         2.9.9.3.-     O A A A A A A A A &     = 2.9.9.3.        A A ..A A ..A A A ..A A A A ..A "
};
