/* XPM */
static char *_5b01a9cfaf645eb99d333224b68409dSK4XLYFTHGzXhbOy[] = {
/* columns rows colors chars-per-pixel */
"64 64 21 1 ",
"  c #7B7B7B",
". c gray49",
"X c #818181",
"o c gray53",
"O c #898989",
"+ c #8D8D8D",
"@ c #909090",
"# c #979797",
"$ c #9B9B9B",
"% c gray62",
"& c #A0A0A0",
"* c #A4A4A4",
"= c gray67",
"- c gray68",
"; c #B1B1B1",
": c gray70",
"> c gray73",
", c #BBBBBB",
"< c #C3C3C3",
"1 c #C6C6C6",
"2 c gray85",
/* pixels */
".oOXXo.X...X.XX...X.@-,,:$&ooXXXX..X.. ...XO . ................X",
"+.OO$XXO.XXXX... .XX...o+#@XX.X...   ...X+.OoXo    ..   . ..... ",
"X..#O%@......    ......+O %..X . . ...X.O@o#o.Oo  ... ..........",
".X..O@..X.... ...  ...OO%$.Xo. .........X+.:%.=Xoo. ...X......XX",
"...#$O......  .........oo.#XX.X....X.XX.X.OO.X.:. XX.....X.X.X..",
"#.ooX..... ..X..X....X.o.o.X.X..X.X.......X.X.X..O.X.X.X....X..X",
"..oXOX.X ...X..XX.X.X..X..XX.X.X...XX.X..X-,.X.XX.XX..X.....X.X.",
"oo.. . ...X...X..X.X.X.XX.X.X...XX.X.X.X.+=&%.X..X..X.X.XXX....X",
".....X..X..X.X.X.X..X.X..XX..X.X.X.X.X...XoX..XX.X..X.....X.....",
".  ...XXX.XX.......X.X..X.....X.X...   +.X ..XX.XX.X..XX...XXXXX",
"X....XX......X.XXX.XXX.......... .    ...X. ..X..X..X...X.X.X...",
"X..X.X...XX.X.X...X.............    ........X.....X.X.o..X.X.O@#",
"..X.X..XX.X...X.......... ...X.. ........XX....X.X.. .X.X.X.X.#<",
".XX..XX..X......XX.X.XX..X..X..........X.....XX.X...OX.X.X.X.+o:",
"...XX..X......X......X.X.XXX........X.....X.X.X......X.X.XX..X#o",
"X.X..X...X.X.X.....X..X.X.X.X.X.X.XX.XX.XX.X...X..X........X.. .",
"....X..XX.X.........XX..X.X.X..X.X.XX.X..X......X........X..XXX+",
"%@XX. ..........X+X....X...X.XX.X.XX.X.X..... <$#..X..X.X.X...XO",
"O+....X... ...Xo+..X...X.X...................Oo. XX..X....X..X.X",
"..#........XXo@O.XX.....X..X..XXX.X.......X..XX+.X..X..XX..XXX.X",
"... ......XXX.X.X.......X...X......X.X....XXXX....X.X.X.XX.X.X%O",
".X.X...X. .X.X.X....X.. ......XXX$...XX.o&.X.XX@o....... ......o",
"X.X.X.X..XX.X.....X..X....X.X...$.X....XX.X....X.. ..   ... ...o",
".X.X.X.XX..X... .X.X.....X.X.XX#=.X...X.XX+.....  . .  ..   XO.o",
"XX.XX.X.X.X....X.X....XX.X.X......oo...X..X..X... ............X+",
".........X.X..X..X......X.X....X..X.X...X........X...XXX.XXXXXOO",
"X.X..X.XX...O.oX. ..X....X...XX.X......X.........X............ .",
".X..X.... ..X.....X..X.XX.X..X.XX.XXX.X.X.XXXX.XX.X.XX.XX.X.X.X.",
"...........X.X.....X.X...X..X.X..X.XX.X.X.X.X.X..X.XX.X..X.X.X.X",
".X...XX....X....X.X........XX..XX.XX.X.X.X.X.X.XX.X..X.XX.X.X.X.",
"X. ..X. XX....X.X.......X....XX.........X.X..X......X.......... ",
". .X...X.......X..X...Xo............X.X.......X..X....X..XX.X...",
"..X.......X...X.X....X@...X.....X..X.....X..X..X...X.X...X.X..X.",
"XX..X....X.XXX.X. ..X+X... ..XX..X.X.XXX........X.X...X.X.....XX",
"X.X.....X....X....X.$..X...X.X.XX.X.X.. ...XX..XXX...X.X.X.XX.+.",
"XX....X.X.X.X......@X..X.Xo....X.X...........XX....XX.X.......X.",
".X...X...... .....O..XX.....X....XX. ..XX...X....X.X.........X..",
"..... ..... X...XXX..X...X.X...X... .....XX...XXX.X....XX.X...X.",
"X...o.. . ... ..X..XX........XX..X..X.XXX.X...X............X.XX.",
"........ .. ..XX..X.....X.XX.XXX...X.X.....X.X.X....X.X.X.X.X.X.",
".X.X...  ....X...XX...X..X. o@@....XX..X.X.X.X..X.....XX.X......",
".+O+XXo.X.....X..X.....XX.+#o....XX...X.X....X. ..XX..........XX",
"O+X.o...X...XX..X.. XX..X..X...XX....X.XX...X.......X..........X",
"o$#$.X.X....X..X...X...X XX.oXX..X.XX.X...X...XXX..X..X....XX.X.",
"+*..Xo.X. ...X..................X.X.X....XX..X ....X....X.....+.",
"X.Xo.X....X......X............X....XX...X..X.....X..X...... @.XX",
".+X...X......X..O..X...X.X..XX.XXX.X...X.X....X..X.X.......oX.$.",
".XX..X.X... ...O....X.....XX...XX.....X.X......X.......X.....X.X",
"X..X.X...XX.X....X..X..X..X...X.X...X.X..........X. . .X.X.X.X.X",
".XX.XX.X.X.X.XXXX.XX.XX.X..XX..X....X.....X..XX.....X.....X.X.X+",
".X.X..Xo@.X..X.X.X.XX.X..X.X.X...X.X...X.X.XX. . ...X...XXXX.X.X",
"XX..+=+X.X.XX.X.X.X....XX.X..o$oX.X...X..........X.X..XX.. .X.X.",
"........X............XXX.X.o ......X.X........X....XX...X.1...X ",
"....X..X..X..XXX.XXXX.....Xo.XX..XX.X...X...X..XXX.X..X..XX.XX2.",
"...X.....XX..X..X....X....XX.X..X..X....X.X.X.XX....XX.X......o.",
"XXX.X..X.,O.o.X...X....XX....X.X.X....XX..X......XX.X.......X.X.",
"X....X..X=Xoo<...X..X.X....X.XXX.X..XX......X.X..X.X....X..X.X.X",
".X.X..XXX..-=..XX.X..XX..X..X.........XXX.XX.X.XXX........X.X.X.",
".XX.......X.X.X..XX.....X.X......X.X.X.X.XX.X...X...X..XX.X..X.X",
"....Xo$..X...X.XX...X..XX...X..XX.X.X.X.X..X...X...XX.X..X.XX.X.",
"$#X...X..XX..X.X.....XX....X.X..XX.X......X.......X..X.X.X.X.X.X",
"%%O%$oX....XX.....X.....X..XXXX......XX..X..X.XXX..XX.X.X.X.X.X.",
"#o%%XOOX.........X.X...X.X.............X...X.XX.X.X..X.X.X.X.X.X",
".Oo..XXX.X..XX.XXX...XX....X..X..XXX..X.X.X.X..X.X.XX.X.X.X.X.X."
};
