/* XPM */
static char *result[] = {
/* columns rows colors chars-per-pixel */
"64 64 36 1 ",
"  c gray48",
". c #7B7B7B",
"X c #7C7C7C",
"o c gray49",
"O c #7E7E7E",
"+ c gray50",
"@ c #808080",
"# c #818181",
"$ c gray51",
"% c #838383",
"& c #848484",
"* c gray52",
"= c #868686",
"- c gray53",
"; c #888888",
": c #898989",
"> c gray54",
", c #8D8D8D",
"< c #8E8E8E",
"1 c gray56",
"2 c #929292",
"3 c #939393",
"4 c gray58",
"5 c #959595",
"6 c gray59",
"7 c #979797",
"8 c #9A9A9A",
"9 c #9B9B9B",
"0 c gray61",
"q c #9D9D9D",
"w c #9F9F9F",
"e c gray63",
"r c gray64",
"t c #B1B1B1",
"y c #C3C3C3",
"u c #C6C6C6",
/* pixels */
"o=;#$=+++O+@+   yy+      ++=++ +        OOO++oX++++X+ooXooOoOXo+",
",+->8#$;+++++     y  +    +            O    +++++++++X..oXoXXOOX",
"+++6-q1++++++           + 0           +    +++++++++++ooXXooooOO",
"  OO:3+o++++++        +             OO   +  +++++++++o+++oX+oo++",
" o+  +oX++++++ +   +  +   +               + +++++++++++Oo+o++++O",
"  = +  +   + +    +    +  ++            +  +++++++++++++++Xo++++",
"+ *  +      +  +   +++   ++        +   +  +++++++++++ ++OO+o+o++",
" +++  + +  ++++    +  +         ++       ++++++++++++++o+++o+o++",
"+ + +   ++ ++++++  + ++   +         +      ++++++++++++++O++O+X+",
" +  +   +   ++ +++++ +++ + +   + +++   + ++++++++++ o++ oo++++#+",
"          + +++++++     +     ++ +  ++     ++++++++++   +++++OOo",
"           + +++++     + +    +++++++ +        ++++ ++ X  + +=36",
"           + ++++             ++++   +            + +   + +  +5y",
"         ++ ++++++          +  ++++ +         +    +           t",
"     +   ++ +++++ +  +   + +  ++ +                    o         ",
"        +++++++++             +++                      O      X+",
"   +    + +++++ + +       +  ++ +++                    o       2",
"         +++++ ++ ++ ++     ++ ++                             + ",
"    ++   ++++++++  +     +   ++ +    +            +           + ",
"    ++   ++++++++   +    +  +     +                       +    %",
"       ++++++++++++                                           0 ",
"       +++++++++++             ++        +   +                  ",
"    +++++++++++++ ++    +     +       +    +    +   +           ",
"    + ++++++++++      +          +     +   +  +  + + ++X+ . # @%",
"    ++ +++++++++ +                 +         ++         + o  OO2",
"    +++++++++++++  +                  ++  ++       + ++ +++++&%;",
"  ++++ +  + ++++  + +           +     + +      +  ++ +++ +Oooooo",
"++ +  ++++++ ++++++                  ++ +         ++++++++++++++",
" +++++++++++ +  ++ +              +  ++          +++  + ++++++++",
" ++++ +  ++ ++++++       +  ++                  + ++++++ +++++++",
"++ +++++++++ ++  ++          +                + +    ++ Oo+ooooX",
"++ + ++++ ++++ +++++         +  + +           +  ++  +   +++++OX",
"+ + ++++ ++++++++ +  ++       +   +   +++      +++++    O OOOOOO",
"+++++++ + ++ + +++  +++ ++   +  + +         ++ ++ +  +  ++++++#+",
"+++++++ + +++    + ++ +   +    + +  ++  +    +++++ +   +++++++++",
"++++  +++++++    + + +++++++++               ++++ + +  +++++O+++",
"+OX++++           +++++++++ +              +++++++ +    ++++o+++",
"+O  +          +   ++++++++              +  +++ ++      ++++++++",
" ++                +++ ++++      +      +  +++++     + +++++++++",
"                   +++++++               ++++ + +    +++++++ +++",
"O@     +     +       ++++ +              ++++++ + ++ +++++++++o+",
"+< <               +   +    +            +++  ++++ +  ++++++++ +",
"-,#@ +     X          + +++           ++++++  ++++++ ++++++++  +",
"-949 ++               +++ +             ++++++++++ + +++++++++++",
",r+O@-++ X o         + ++  ++          ++++++++++++++++++o+ +++ ",
"++@&++ O            ++++++++ +       +  +++++++++++ +++++++++  +",
"@,++oO++  O        ++++ ++++      + ++++++++++++  +++++++++   0+",
"+++O++++o o Xo  OX ++++++++++++ +++++++++++++++++ ++++++++++++  ",
"+OO+ +            ++ +++++ ++++ ++++++++++++++++++++++++++++ +  ",
"O++ +        ++   ++ ++++ +++++ +++++++O+++++++++++ ++++++++++++",
"  +       + + + ++++ ++ + +  + O  ++ ++++++ ++++++++++ ++++ + + ",
"++O@1     +   + +++ O ++ + +    ++ ++ ++O+++ X+++++++++++ ++++++",
" O             Oo O+    + +& ++O +o+ +OO oXXOO+ +o++++++++u+++ X",
"O O +o       +   +++++ O  %&O++OO++++OoOOOOOOOO++++++O++++++@+++",
"    +o o  #      OOOO+OOoOOO++OO++++OXoOOO++++++OOo+++++++++++++",
"+            O@O OOoOOO++++OO++++++Oo++++++OOOOO++++++oO+o++++++",
" ++O         y  +++++O+++oo+++++OO+O++OOOOO+++++++++OOoXOO++++++",
"o O            ++++Oo++OO+++++OOOXoOOO++++++++++++OOXoO+OO+O++++",
"+ ++    + +O+ ++++Oo+OOOO++OOOooO+++++++++++++OO#OoO++O+O+++++++",
"OOO +*7o OOoO+++++XO+OO++OOoOO+++++++++++OOOooO+OoO++O++++++++++",
"77#+ O+O++++++++OoOOO++OOoO+++++++++OOOOOO+OooOOOOO+++++++++++++",
"e0-w9-@OOOOO++OOXO++OOOO+++++++OOOOOO++OoOOO++++++++++++++++++++",
"5;qw+:>%oooOOOoo+++OoO++++OOOooO+OOoOOO++O++++++++++++++++++++++",
"@>%++++++OOO++++++OO+OOOOoOOOOOOOO++OO+O++++++++++++++++++++++++"
};
