/* XPM */
static char *result[] = {
/* columns rows colors chars-per-pixel */
"66 64 256 2 ",
"   c black",
".  c #010101",
"X  c #020202",
"o  c gray1",
"O  c #040404",
"+  c gray2",
"@  c #060606",
"#  c #070707",
"$  c gray3",
"%  c #090909",
"&  c gray4",
"*  c #0B0B0B",
"=  c #0C0C0C",
"-  c gray5",
";  c #0E0E0E",
":  c gray6",
">  c #101010",
",  c #111111",
"<  c gray7",
"1  c #131313",
"2  c gray8",
"3  c #151515",
"4  c #161616",
"5  c gray9",
"6  c #181818",
"7  c #191919",
"8  c gray10",
"9  c #1B1B1B",
"0  c gray11",
"q  c #1D1D1D",
"w  c #1E1E1E",
"e  c gray12",
"r  c #202020",
"t  c gray13",
"y  c #222222",
"u  c #232323",
"i  c gray14",
"p  c #252525",
"a  c gray15",
"s  c #272727",
"d  c #282828",
"f  c gray16",
"g  c #2A2A2A",
"h  c gray17",
"j  c #2C2C2C",
"k  c #2D2D2D",
"l  c gray18",
"z  c #2F2F2F",
"x  c gray19",
"c  c #313131",
"v  c #323232",
"b  c gray20",
"n  c #343434",
"m  c #353535",
"M  c gray21",
"N  c #373737",
"B  c gray22",
"V  c #393939",
"C  c #3A3A3A",
"Z  c gray23",
"A  c #3C3C3C",
"S  c gray24",
"D  c #3E3E3E",
"F  c #3F3F3F",
"G  c gray25",
"H  c #414141",
"J  c gray26",
"K  c #434343",
"L  c #444444",
"P  c gray27",
"I  c #464646",
"U  c gray28",
"Y  c #484848",
"T  c #494949",
"R  c gray29",
"E  c #4B4B4B",
"W  c #4C4C4C",
"Q  c gray30",
"!  c #4E4E4E",
"~  c gray31",
"^  c #505050",
"/  c #515151",
"(  c gray32",
")  c #535353",
"_  c gray33",
"`  c #555555",
"'  c #565656",
"]  c gray34",
"[  c #585858",
"{  c gray35",
"}  c #5A5A5A",
"|  c #5B5B5B",
" . c gray36",
".. c #5D5D5D",
"X. c gray37",
"o. c #5F5F5F",
"O. c #606060",
"+. c gray38",
"@. c #626262",
"#. c gray39",
"$. c #646464",
"%. c #656565",
"&. c gray40",
"*. c #676767",
"=. c #686868",
"-. c DimGray",
";. c #6A6A6A",
":. c gray42",
">. c #6C6C6C",
",. c #6D6D6D",
"<. c gray43",
"1. c #6F6F6F",
"2. c gray44",
"3. c #717171",
"4. c #727272",
"5. c gray45",
"6. c #747474",
"7. c gray46",
"8. c #767676",
"9. c #777777",
"0. c gray47",
"q. c #797979",
"w. c gray48",
"e. c #7B7B7B",
"r. c #7C7C7C",
"t. c gray49",
"y. c #7E7E7E",
"u. c gray50",
"i. c #808080",
"p. c #818181",
"a. c gray51",
"s. c #838383",
"d. c #848484",
"f. c gray52",
"g. c #868686",
"h. c gray53",
"j. c #888888",
"k. c #898989",
"l. c gray54",
"z. c #8B8B8B",
"x. c gray55",
"c. c #8D8D8D",
"v. c #8E8E8E",
"b. c gray56",
"n. c #909090",
"m. c gray57",
"M. c #929292",
"N. c #939393",
"B. c gray58",
"V. c #959595",
"C. c gray59",
"Z. c #979797",
"A. c #989898",
"S. c gray60",
"D. c #9A9A9A",
"F. c #9B9B9B",
"G. c gray61",
"H. c #9D9D9D",
"J. c gray62",
"K. c #9F9F9F",
"L. c #A0A0A0",
"P. c gray63",
"I. c #A2A2A2",
"U. c gray64",
"Y. c #A4A4A4",
"T. c #A5A5A5",
"R. c gray65",
"E. c #A7A7A7",
"W. c gray66",
"Q. c #A9A9A9",
"!. c #AAAAAA",
"~. c gray67",
"^. c #ACACAC",
"/. c gray68",
"(. c #AEAEAE",
"). c #AFAFAF",
"_. c gray69",
"`. c #B1B1B1",
"'. c #B2B2B2",
"]. c gray70",
"[. c #B4B4B4",
"{. c gray71",
"}. c #B6B6B6",
"|. c #B7B7B7",
" X c gray72",
".X c #B9B9B9",
"XX c gray73",
"oX c #BBBBBB",
"OX c #BCBCBC",
"+X c gray74",
"@X c gray",
"#X c gray75",
"$X c #C0C0C0",
"%X c #C1C1C1",
"&X c gray76",
"*X c #C3C3C3",
"=X c gray77",
"-X c #C5C5C5",
";X c #C6C6C6",
":X c gray78",
">X c #C8C8C8",
",X c gray79",
"<X c #CACACA",
"1X c #CBCBCB",
"2X c gray80",
"3X c #CDCDCD",
"4X c #CECECE",
"5X c gray81",
"6X c #D0D0D0",
"7X c gray82",
"8X c #D2D2D2",
"9X c LightGray",
"0X c gray83",
"qX c #D5D5D5",
"wX c gray84",
"eX c #D7D7D7",
"rX c #D8D8D8",
"tX c gray85",
"yX c #DADADA",
"uX c gray86",
"iX c gainsboro",
"pX c #DDDDDD",
"aX c gray87",
"sX c #DFDFDF",
"dX c gray88",
"fX c #E1E1E1",
"gX c #E2E2E2",
"hX c gray89",
"jX c #E4E4E4",
"kX c gray90",
"lX c #E6E6E6",
"zX c #E7E7E7",
"xX c gray91",
"cX c #E9E9E9",
"vX c #EAEAEA",
"bX c gray92",
"nX c #ECECEC",
"mX c gray93",
"MX c #EEEEEE",
"NX c #EFEFEF",
"BX c gray94",
"VX c #F1F1F1",
"CX c gray95",
"ZX c #F3F3F3",
"AX c #F4F4F4",
"SX c gray96",
"DX c #F6F6F6",
"FX c gray97",
"GX c #F8F8F8",
"HX c #F9F9F9",
"JX c gray98",
"KX c #FBFBFB",
"LX c gray99",
"PX c #FDFDFD",
"IX c #FEFEFE",
"UX c white",
/* pixels */
"R R R R R R R R R R R R R R R R R R R R R R R R R R R R R R R R R R R R R R R R R R R R R R R R R R R R R R R R R R R R R R R R R R ",
"R R W Q W W W W W W W W W W W W W W W W W W W W W E R E Q W W W W W W W W W W W W W W W W W W W W W W R R W Q W W W W W W W W W W W ",
"R W -.3.*.#.#.#.#.#.#.#.#.#.#.#.#.#.#.#.#.#.#.#.#.] T ] 2.,.#.#.#.#.#.#.#.#.#.#.#.#.#.#.#.#.#.#.#.#.+.! E &.3.=.#.#.#.#.#.#.#.#.#.#.",
"R Q 3.e.<.-.-.-.-.-.-.-.-.-.-.-.-.-.-.-.-.-.-.-.;.| T | e.8.;.-.-.-.-.-.-.-.-.-.-.-.-.-.-.-.-.-.-.;.*.~ E <.e.2.-.-.-.-.-.-.-.-.-.-.",
"R Q 3.w.<.-.-.-.-.-.-.-.-.-.-.-.-.-.-.-.-.-.-.-.;.| T | w.8.;.-.-.-.-.-.-.-.-.-.-.-.-.-.-.-.-.-.-.-.*.~ E ,.e.1.-.-.-.-.-.-.-.-.-.-.",
"R Q 3.w.<.-.-.-.-.-.-.-.-.-.-.-.-.-.-.-.-.-.-.-.;.| T | w.8.;.-.-.-.-.-.-.-.-.-.-.-.-.-.-.-.-.-.-.-.*.~ E ,.e.1.-.-.-.-.-.-.-.-.-.-.",
"R Q 3.w.<.-.-.-.-.-.-.-.-.-.-.-.-.-.-.-.-.-.-.-.;.| T | w.8.;.-.-.-.-.-.-.-.-.-.-.-.-.-.-.-.-.-.-.-.*.~ E ,.e.1.-.-.-.-.-.-.-.-.-.-.",
"R Q 3.w.<.=.-.-.-.-.-.-.-.-.-.-.-.-.-.-.-.-.-.-.-.| T | w.8.-.-.-.-.-.-.-.-.-.-.-.-.-.-.-.-.-.-.-.-.*.~ E ,.e.1.=.-.-.-.-.-.-.-.-.-.",
"R Q 3.w.6.3.3.3.3.3.3.3.3.3.3.3.3.3.3.3.3.3.3.3.4.o.T | w.0.3.3.3.3.3.3.3.3.3.3.3.3.3.3.3.3.3.3.3.3.<./ E ,.e.6.3.3.3.3.3.3.3.3.3.3.",
"R Q 3.e.e.e.e.e.e.e.e.e.e.e.e.e.e.e.e.e.e.e.e.e.r.%.T | e.e.e.e.e.e.e.e.e.e.e.e.e.e.e.e.e.e.e.e.e.e.0.) E <.r.e.e.e.e.e.e.e.e.e.e.e.",
"R W #.-.-.-.-.-.-.-.-.-.-.-.-.-.-.-.-.-.-.-.-.-.;.| T ` -.-.-.-.-.-.-.-.-.-.-.-.-.-.-.-.-.-.-.-.-.-.*.~ R +.;.-.-.-.-.-.-.-.-.-.-.-.",
"R R R R R R R R R R R R R R R T T R R R R R R R R R R R R R R R R R R R R R R R R T R R R R R R R R R R R R R R R R R R R R R R R R ",
"( ( ( ( ( ( ( ( ( ( ( ( ^ R W ` ` ( ( ( ( ( ( ( ( ( ( ( ( ( ( ( ( ( ( ( ( ( Q R ^ ' _ ( ( ( ( ( ( ( ( ( ( ( ( ( ( ( ( ( ( ( ( ^ R R ",
"=.=.=.=.=.=.=.=.=.=.=.=.O.R ( 7.9.;.=.=.=.=.=.=.=.=.=.=.=.=.=.=.=.=.=.=.=.=._ T #.q.3.=.=.=.=.=.=.=.=.=.=.=.=.=.=.=.=.=.=.=.=.@.W R ",
"-.-.-.-.-.-.-.-.-.-.-.;.+.R ( 9.q.:.-.-.-.-.-.-.-.-.-.-.-.-.-.-.-.-.-.-.-.-.` T $.e.5.-.-.-.-.-.-.-.-.-.-.-.-.-.-.-.-.-.-.-.-.#.W R ",
"-.-.-.-.-.-.-.-.-.-.-.-.+.R ( 9.0.:.-.-.-.-.-.-.-.-.-.-.-.-.-.-.-.-.-.-.-.-.` T $.e.5.-.-.-.-.-.-.-.-.-.-.-.-.-.-.-.-.-.-.-.-.#.W R ",
"-.-.-.-.-.-.-.-.-.-.-.-.+.R ( 9.0.:.-.-.-.-.-.-.-.-.-.-.-.-.-.-.-.-.-.-.-.-.` T $.e.5.-.-.-.-.-.-.-.-.-.-.-.-.-.-.-.-.-.-.-.-.#.W R ",
"-.-.-.-.-.-.-.-.-.-.-.-.+.R ( 9.0.:.-.-.-.-.-.-.-.-.-.-.-.-.-.-.-.-.-.-.-.-.` T $.e.5.-.-.-.-.-.-.-.-.-.-.-.-.-.-.-.-.-.-.-.-.#.W R ",
";.;.;.;.;.;.;.;.;.;.;.;.+.R ( 9.q.>.-.;.;.;.;.;.;.;.;.;.;.;.;.;.;.;.;.;.;.-.` T $.e.5.-.;.;.;.;.;.;.;.;.;.;.;.;.;.;.;.;.;.;.;.#.W R ",
"8.8.8.8.8.8.8.8.8.8.8.8.;.E ( 9.w.8.8.8.8.8.8.8.8.8.8.8.8.8.8.8.8.8.8.8.8.8.{ T $.e.0.8.8.8.8.8.8.8.8.8.8.8.8.8.8.8.8.8.8.8.8.,.Q R ",
"w.w.w.w.w.w.w.w.w.w.w.e.,.E ( 8.w.w.w.w.w.w.w.w.w.w.w.w.w.w.w.w.w.w.w.w.w.w.| T $.e.w.w.w.w.w.w.w.w.w.w.w.w.w.w.w.w.w.w.w.w.e.3.Q R ",
"| | | | | | | | | | | | ' R Q } | | | | | | | | | | | | | | | | | | | | | | ^ R ) | | | | | | | | | | | | | | | | | | | | | | [ E R ",
"T T T T T T T T T T T T T R T T T T T T T T T T T T T T T T T T T T T T T T T R T T T T T T T T T T T T T T T T T T T T T T T T R R ",
"R E X.$...} } } } } } } } } } } } } } } } } } } | ) T ) #.+.| } } } } } } } } } } } } } } } } } } | { Q R ..$.X.} } } } } } } } } } ",
"R Q 3.e.1.-.;.;.;.;.;.;.;.;.;.;.;.;.;.;.;.;.;.;.;.| T | e.9.;.-.;.;.;.;.;.;.;.;.;.;.;.;.;.;.;.;.;.;.*.~ E <.r.2.-.;.;.;.;.;.;.;.;.;.",
"R Q 3.w.<.-.-.-.-.-.-.-.-.-.-.-.-.-.-.-.-.-.-.-.;.| T | w.8.;.-.-.-.-.-.-.-.-.-.-.-.-.-.-.-.-.-.-.-.*.~ E ,.e.1.-.-.-.-.-.-.-.-.-.-.",
"R Q 3.w.<.-.-.-.-.-.-.-.-.-.-.-.-.-.-.-.-.-.-.-.;.| T | w.8.;.-.-.-.-.-.-.-.-.-.-.-.-.-.-.-.-.-.-.-.*.~ E ,.e.1.-.-.-.-.-.-.-.-.-.-.",
"R Q 3.w.<.-.-.-.-.-.-.-.-.-.-.-.-.-.-.-.-.-.-.-.;.| T | w.8.;.-.-.-.-.-.-.-.-.-.-.-.-.-.-.-.-.-.-.-.*.~ E ,.e.1.-.-.-.-.-.-.-.-.-.-.",
"R Q 3.w.<.=.-.-.-.-.-.-.-.-.-.-.-.-.-.-.-.-.-.-.-.| T | w.8.-.-.-.-.-.-.-.-.-.-.-.-.-.-.-.-.-.-.-.-.*.~ E ,.e.1.=.-.-.-.-.-.-.-.-.-.",
"R Q 3.w.2.>.>.>.>.>.>.>.>.>.>.>.>.>.>.>.>.>.>.>.,...T | w.9.,.>.>.>.>.>.>.>.>.>.>.>.>.>.>.>.>.>.>.,.;.^ E ,.e.3.>.>.>.>.>.>.>.>.>.>.",
"R Q 3.e.w.q.q.q.q.q.q.q.q.q.q.q.q.q.q.q.q.q.q.q.w.$.T | w.w.q.q.q.q.q.q.q.q.q.q.q.q.q.q.q.q.q.q.q.w.8.( E ,.e.w.q.q.q.q.q.q.q.q.q.q.",
"R W >.7.6.6.6.6.6.6.6.6.6.6.6.6.6.6.6.6.6.6.6.6.7.+.T { 6.6.6.6.6.6.6.6.6.6.6.6.6.6.6.6.6.6.6.6.6.7.3./ E -.7.6.6.6.6.6.6.6.6.6.6.6.",
"R R ! ^ ^ ^ ^ ^ ^ ^ ^ ^ ^ ^ ^ ^ ^ ^ ^ ^ ^ ^ ^ ^ ^ Q R W ^ ^ ^ ^ ^ ^ ^ ^ ^ ^ ^ ^ ^ ^ ^ ^ ^ ^ ^ ^ ^ ^ ~ E R ! ^ ^ ^ ^ ^ ^ ^ ^ ^ ^ ^ ^ ",
"W W E E E E E E E E E E E R R W W W E E E E E E E W W W E E E E E E E E E E R R E W W E E E E E E E E W W E E E E E E E E E E E R R ",
"#.#.#.#.#.#.#.#.#.#.#.#. .R / <.1.%.#.#.#.#.#.#.#.#.#.#.#.#.#.#.#.#.#.#.#.#.) T o.3.:.#.#.#.#.#.#.#.#.#.#.#.#.#.#.#.#.#.#.#.#.X.E R ",
"-.-.-.-.-.-.-.-.-.-.-.;.+.R ( 9.q.>.-.-.-.-.-.-.-.-.-.-.-.-.-.-.-.-.-.-.-.-.` T $.r.5.-.-.-.-.-.-.-.-.-.-.-.-.-.-.-.-.-.-.-.;.#.W R ",
"-.-.-.-.-.-.-.-.-.-.-.-.+.R ( 9.0.:.-.-.-.-.-.-.-.-.-.-.-.-.-.-.-.-.-.-.-.-.` T $.e.5.-.-.-.-.-.-.-.-.-.-.-.-.-.-.-.-.-.-.-.-.#.W R ",
"-.-.-.-.-.-.-.-.-.-.-.-.+.R ( 9.0.:.-.-.-.-.-.-.-.-.-.-.-.-.-.-.-.-.-.-.-.-.` T $.e.5.-.-.-.-.-.-.-.-.-.-.-.-.-.-.-.-.-.-.-.-.#.W R ",
"-.-.-.-.-.-.-.-.-.-.-.-.+.R ( 9.0.:.-.-.-.-.-.-.-.-.-.-.-.-.-.-.-.-.-.-.-.-.` T $.e.5.-.-.-.-.-.-.-.-.-.-.-.-.-.-.-.-.-.-.-.-.#.W R ",
"-.-.-.-.-.-.-.-.-.-.-.-.+.R ( 9.0.:.-.-.-.-.-.-.-.-.-.-.-.-.-.-.-.-.-.-.-.-.` T $.e.5.-.-.-.-.-.-.-.-.-.-.-.-.-.-.-.-.-.-.-.-.#.W R ",
"3.3.3.3.3.3.3.3.3.3.3.4.*.E ( 9.q.4.3.3.3.3.3.3.3.3.3.3.3.3.3.3.3.3.3.3.3.3.] T $.e.8.3.3.3.3.3.3.3.3.3.3.3.3.3.3.3.3.3.3.3.3.-.W R ",
"e.e.e.e.e.e.e.e.e.e.e.r.<.E ( 9.e.e.e.e.e.e.e.e.e.e.e.e.e.e.e.e.e.e.e.e.e.e.| T %.r.e.e.e.e.e.e.e.e.e.e.e.e.e.e.e.e.e.e.e.e.r.3.Q R ",
"-.-.-.-.-.-.-.-.-.-.-.;.+.R ~ *.-.-.-.-.-.-.-.-.-.-.-.-.-.-.-.-.-.-.-.-.-.-.` T | ;.-.-.-.-.-.-.-.-.-.-.-.-.-.-.-.-.-.-.-.-.-.#.W R ",
"R R R T R R R R R R R R R R R R R R R R R R R R R R R R T T R R R R R R R R R R R R R R R R R R R R R R R R T R R R R R R R R R R R ",
"R E _ ' ) ( ( ( ( ( ( ( ( ( ( ( ( ( ( ( ( ( ( ( ( ! R ! ' ` ( ( ( ( ( ( ( ( ( ( ( ( ( ( ( ( ( ( ( ( / E R ) ' ) ( ( ( ( ( ( ( ( ( ( ",
"R Q 1.q.,.=.=.=.=.=.=.=.=.=.=.=.=.=.=.=.=.=.=.=.=.} T } 0.6.-.=.=.=.=.=.=.=.=.=.=.=.=.=.=.=.=.=.=.=.&.~ E >.q.<.=.=.=.=.=.=.=.=.=.=.",
"R Q 3.w.<.-.-.-.-.-.-.-.-.-.-.-.-.-.-.-.-.-.-.-.;.| T | w.8.;.-.-.-.-.-.-.-.-.-.-.-.-.-.-.-.-.-.-.-.*.~ E ,.e.1.-.-.-.-.-.-.-.-.-.-.",
"R Q 3.w.<.-.-.-.-.-.-.-.-.-.-.-.-.-.-.-.-.-.-.-.;.| T | w.8.;.-.-.-.-.-.-.-.-.-.-.-.-.-.-.-.-.-.-.-.*.~ E ,.e.1.-.-.-.-.-.-.-.-.-.-.",
"R Q 3.w.<.-.-.-.-.-.-.-.-.-.-.-.-.-.-.-.-.-.-.-.;.| T | w.8.;.-.-.-.-.-.-.-.-.-.-.-.-.-.-.-.-.-.-.-.*.~ E ,.e.1.-.-.-.-.-.-.-.-.-.-.",
"R Q 3.w.<.-.-.-.-.-.-.-.-.-.-.-.-.-.-.-.-.-.-.-.-.| T | w.8.;.-.-.-.-.-.-.-.-.-.-.-.-.-.-.-.-.-.-.-.*.~ E ,.e.1.-.-.-.-.-.-.-.-.-.-.",
"R Q 3.w.<.-.;.;.;.;.;.;.;.;.;.;.;.;.;.;.;.;.;.;.;.| T | w.8.;.;.;.;.;.;.;.;.;.;.;.;.;.;.;.;.;.;.;.;.*.~ E ,.e.2.-.;.;.;.;.;.;.;.;.;.",
"R Q 3.e.9.8.8.8.8.8.8.8.8.8.8.8.8.8.8.8.8.8.8.8.9.@.T | w.q.8.8.8.8.8.8.8.8.8.8.8.8.8.8.8.8.8.8.8.8.5.( E ,.e.9.8.8.8.8.8.8.8.8.8.8.",
"R Q 2.w.w.w.w.w.w.w.w.w.w.w.w.w.w.w.w.w.w.w.w.w.e.$.T } w.w.w.w.w.w.w.w.w.w.w.w.w.w.w.w.w.w.w.w.w.w.9.( E ,.e.w.w.w.w.w.w.w.w.w.w.w.",
"R E [ | | | | | | | | | | | | | | | | | | | | | | ) R ^ | | | | | | | | | | | | | | | | | | | | | | } Q R ' | | | | | | | | | | | | ",
"R R T T T T T T T T T T T T T T T T T T T T T T T T R T T T T T T T T T T T T T T T T T T T T T T T T T R T T T T T T T T T T T T T ",
"} } } } } } } } } } } | ' R ! @.#. .} } } } } } } } } } } } } } } } } } } } ^ T [ $.O.} } } } } } } } } } } } } } } } } } } | ] E R ",
";.;.;.;.;.;.;.;.;.;.;.;.+.R ) 9.q.>.-.;.;.;.;.;.;.;.;.;.;.;.;.;.;.;.;.;.;.-.` T %.r.5.-.;.;.;.;.;.;.;.;.;.;.;.;.;.;.;.;.;.;.;.#.W R ",
"-.-.-.-.-.-.-.-.-.-.-.-.+.R ( 9.0.:.-.-.-.-.-.-.-.-.-.-.-.-.-.-.-.-.-.-.-.-.` T $.e.5.-.-.-.-.-.-.-.-.-.-.-.-.-.-.-.-.-.-.-.-.#.W R ",
"-.-.-.-.-.-.-.-.-.-.-.-.+.R ( 9.0.:.-.-.-.-.-.-.-.-.-.-.-.-.-.-.-.-.-.-.-.-.` T $.e.5.-.-.-.-.-.-.-.-.-.-.-.-.-.-.-.-.-.-.-.-.#.W R ",
"-.-.-.-.-.-.-.-.-.-.-.-.+.R ( 9.0.:.-.-.-.-.-.-.-.-.-.-.-.-.-.-.-.-.-.-.-.-.` T $.e.5.-.-.-.-.-.-.-.-.-.-.-.-.-.-.-.-.-.-.-.-.#.W R ",
"-.-.-.-.-.-.-.-.-.-.-.-.+.R ( 9.0.:.-.-.-.-.-.-.-.-.-.-.-.-.-.-.-.-.-.-.-.-.` T $.e.5.-.-.-.-.-.-.-.-.-.-.-.-.-.-.-.-.-.-.-.-.#.W R ",
">.>.>.>.>.>.>.>.>.>.>.,.#.R ( 9.q.<.>.>.>.>.>.>.>.>.>.>.>.>.>.>.>.>.>.>.>.>.' T $.e.6.>.>.>.>.>.>.>.>.>.>.>.>.>.>.>.>.>.>.>.,.&.W R ",
"q.q.q.q.q.q.q.q.q.q.q.w.>.E ( 9.w.q.q.q.q.q.q.q.q.q.q.q.q.q.q.q.q.q.q.q.q.q.} T $.e.w.q.q.q.q.q.q.q.q.q.q.q.q.q.q.q.q.q.q.q.w.2.Q R ",
"w.w.w.w.w.w.w.w.w.w.w.e.,.E ( 9.w.w.w.w.w.w.w.w.w.w.w.w.w.w.w.w.w.w.w.w.w.w.| T $.e.w.w.w.w.w.w.w.w.w.w.w.w.w.w.w.w.w.w.w.w.e.3.Q R "
};
