/* XPM */
static char *result[] = {
/* columns rows colors chars-per-pixel */
"64 64 91 1 ",
"  c #070707",
". c #0E0E0E",
"X c #150A02",
"o c #161616",
"O c #1B1B1B",
"+ c #2F1707",
"@ c #24170E",
"# c #381E0B",
"$ c #2C1F16",
"% c #3C220F",
"& c #2C2119",
"* c #362315",
"= c #3D2310",
"- c #33241B",
"; c #3E2A1A",
": c #242423",
"> c #2E2721",
", c #2F2B27",
"< c #2B2B2B",
"1 c #342B24",
"2 c #3B2D24",
"3 c #37312D",
"4 c #393029",
"5 c #353535",
"6 c #3B3632",
"7 c #3C3C3C",
"8 c #572D0E",
"9 c #5B2D0C",
"0 c #412714",
"q c #432916",
"w c #432D1C",
"e c #4B2F1B",
"r c #553115",
"t c #5D3314",
"y c #55371F",
"u c #5C3519",
"i c #6D350E",
"p c #70380F",
"a c #6A3610",
"s c #623817",
"d c #6E3812",
"f c #643D1C",
"g c #6D3E19",
"h c #763B12",
"j c #7B3D11",
"k c #453327",
"l c #4A3424",
"z c #41332A",
"x c #46382B",
"c c #49382B",
"v c #563C26",
"b c #473E38",
"n c #613E23",
"m c #7B4014",
"M c #7B471E",
"N c #7F491F",
"B c #47433F",
"V c #4A433E",
"C c #65462A",
"Z c #704422",
"A c #7A4A22",
"S c #444444",
"D c #4C4C4C",
"F c #535353",
"G c #5B5B5B",
"H c #646464",
"J c DimGray",
"K c #737373",
"L c #7E7E7E",
"P c #834111",
"I c #8B4513",
"U c #8D4917",
"Y c #814619",
"T c #8F4D1C",
"R c #864F23",
"E c #8E5121",
"W c #825229",
"Q c #925322",
"! c #955827",
"~ c #975C2B",
"^ c #9A6333",
"/ c #838383",
"( c #8B8B8B",
") c #949494",
"_ c #9C9C9C",
"` c #A2A2A2",
"' c #AAAAAA",
"] c #B2B2B2",
"[ c #BBBBBB",
"{ c #C4C4C4",
"} c gray85",
/* pixels */
"L/(//(//LLL/L//LLLL/)'[[]_`////L/LLLLLLLLLL(LLLLLLLKLLLLLLLLLLLL",
"(L/()///LLLLLLLLLKLLLLL/())/LLLLLLLLKLLLL(L////LLLLLLLKLLLLLKLLL",
"LL/)/_(LLLLLLKKLLLLLLLL((L_LL/LLLLKLLLLL()/)/L(/LLLLKLLLKLLLLLLL",
"L/LL((LLLLLLLLLLLLKLLL/(_)L/LLLLLLLLLLLLL)/]`L'L//LKLLL/LLLLLLLL",
"LLL)_(LLLLKLLLLLLLLLLLL(//)//L/LLLLLLLLLLL((LLL]LL/LLLLLLLLLLLLL",
")L//L/LLLLLLLLLLLLLLLLL/L(L/LLLL/LLLLKLLLLLLL/LLL(LLLLLLLLLLLLLL",
"LL//(LLLLLLLLLLLL//LL/LLLLLLLLLLLLLLLLLL/L'[L/LLLLL/LLLLLL/LLLLL",
"////LLLLLLLLLLLLLLLLLLLLLLLLLLLLLL/LL/LLL('`_LLLLL/LLLLLLLLLLLLL",
"LLLLL/LLLLLLLLLLLLLLL/LLLLLLFSSSSSHGLLLLLL//LLL/LLLLLLLLLLL/LLLL",
"LKLLLLL/LLLLLLLLLLLLLLLLLLLLFSSSSSGGLLL(LLLL/LLL/LLLLL/LLLLLLL/L",
"LLLLLLLLLLLLL/LLLLLLLLKK:<<<7<<DD:77::SKKLLLLLLLLLLLLLLLLLLL/LLL",
"LLLLLLLLLLLLLLLLLLLLLLLJ<<:<S<<SS<57<:SKJLKLLLLLLL/LLL/LLLL/L/))",
"L/LLLLLLLLLLLLLLLLLKKFF555DDFS7<<DFGDS577HGLLLLLLL/LLLLL/LL/L/){",
"LLLLLL/LLLLLLLLLLLLDDSSHGG::xewkwl;1<<JFFS7HLLLLLLLL(LLLLLLLL(/]",
"LLLLLLLLLLLLLLLLLLKDDSSHGG::cwewkl1-:<JFFSbHLLLLLLLLLLLLLLLLLL)(",
"LLLL/LLLLLLLLLLLLLFSSSSbkkssWjjRRYiiCC455DDSJJLLLLLLLLLLLLLLLLLL",
"/LLLLLL/LLLLLLLLLLFSSSSBkkstWjjRRYiiCC464FDSJJLLLLLLLLLLLLLLLL/)",
"_(LLLLLLLLLLLLLLKLSGGVVCmmII^II!~TII^^peeFFS75{))LLLLLLLLLLLLLL(",
"((LLLLLLLLLLKL//JG7GGcxWUUIU~II!!TII^^I99x67oo/LLLLL/LLLLLLLLLLL",
"LL)/KLLLLLLL//)/HGSGGcxRUUUI^II!!TII^^I99637oo/(LLLLLLLLLLL/LLL/",
"LLLLLLLLLLL/LLLLSS:1389!UUIU~II!!TII^^UQ!vvF55HHLLLL/LLLLLLLLL_(",
"LLL/LLLLLLLLLLLLDS<1399~UUUI^II!!TII^^I!QvvF75HK/LLLLLLLLLLLLLL(",
"LLLLLLLLLL/LLLLLOOG**jp~UUUI^II!!TII^^IQQZZbHH<<LLLKLLLKLLLLLLL/",
"LLLL/LLLLLLLLLLLOOG**jj~UUII~II!!UII^^IQQZZbHH<<LKLLLKLLLLKL/(L/",
"LLL/LLLLLLLLLLLLooDq0II~IUIU~II!!TII^^IQQNN2FG<<LLLLLLLLLLLLLLL)",
"LLLLLLLLLLLLLLLL..5=%II~UUUI^II!!TII^^IQQNN-77<<LLLLLL/LLLLLL///",
"LLLLLLLLLLLL(L//..5=%II~UUII^II!!TII^^IQQNN-77<<LLLLLLLLLLLLLLLL",
"LLLLLLLLLLLLLLLLOoD;0II~UUIU~II!!TII^^IQQNN2GG<<LLLLLLL/LLLLLLLL",
"LLLLLLLLLLLLLLLKooF;0II~UUIU^II!!TII^^U!EAR2GG<<LLLLL/LL/LLLL/LL",
"LLLLLLLLLLLLLLLLOOGq0II~UUIU~II!!TII^^jgguu4JH<<LLL/LLLLLLLLLLLL",
"/LKLLLLLLLLLLLLL..5%%II~UUUI^II!!TII^^t::<<:55<<LLLLLLLLLLLLLLLL",
"LLL/LLLLLLLLLLLL..3%%II~UUIU~II!!TII^^rO:<<:57<<LLLLLLLLLLLLLLLL",
"LLLLLLLLL/LLLLLLooD00II~UUUI~II!!TII^^sqqw;,FF<<LLLLLLLLLLLLLLLL",
"L/LLLLLLLLL/LLLLooD00II~UUIU^II!!TII^^aq01;,FF<<LLLLLLLLLLLLLL/L",
"/LLLLLLLLLLLL/LLoOG00II~UUUI^II!!TII^^IQQRAzJJ<<LLLLLLLLLLLLLL(L",
"LLLKLLLLLLLLLLLL .<%%II~UUII~II!!TII^^IQQjR$5<<<LL/LLLLLLLLLLLLL",
"/LLLLLLLLLLLLLLK..<%%II~UUIU~II!!TII^^U!ERj$55<<LLLLLLLLLLLLLLLL",
"LLLLLLLKLLLKLLLLooF0qPPAddjm^II!!TII^^IQERR4GG<<L/LLLLLLLLLLLLLL",
"LLLLLLLLLKLLLLLLooF0qPPAdimP~II!!TII^^IQQYRzGG<<LLLLLLLLLLLLLLL/",
"LLLLLLLLLLLLLLL/OOG0qhh+XXaa^II!!TIU^^IQQMMzHH<<LLLLLLLLLLLL/LLL",
"LLLLLLLLLLLLLLLLooD0qppn8898^II!!TII^^UQQAN2GF<<LLLLLLLLL/LLLLKL",
"L(((/L/LLLLLLLLLooD00dds8899~II!!TII^^UQQRA2FG<<LLLLLLLLLLLLLLLL",
"/(LL/LLLLLLLLLLL..<%%jjf88id^II!!TII^^IQQYY&55<<LLLLLLLLLLLLLLLL",
"(_)_/LLLLKLLLLLL..3%%jjf88di^IIQ!UII^^IQQMR&55<<LLLLLLLLLLLLLLLL",
"(`LLL(LLLLLLLLLLOOG00IIRhhUU~II!!TII^^IQQRAzHH<<LLLLLLKLLLLLLL(L",
"LL//L/LLLLLLLLLLooS00II~UUUI^II!!TII^^IQEAY2FF<<LLLLLLLLLLLL)LLL",
"/(L/LLLLLKLLLLLLooD00II~UUUI~II!!TII^^UQQRA2FF<<LLLLLLLLLLL/LL_L",
"/LLLLLLLLLLLKLL(. <%%II~UUII^II!!TII^^IQQYM$55<<LLLLLLLLLLLLL/LL",
"LLLLLLLLLLLLLLLL..<=%II~UUIU~II!!TII^^IQQjR$55<<LLLLLLLLLLLLLLLL",
"LL/LLLL//LL//LLLOOGqqII~UUUI^II!!TII^^IQQRAzJH<<LLLLLLLLLL/L/LL)",
"LLLLLL//(/LLL//LooD00II~UUIU~II!!TII^^IQQAj4GG<<KLLLLLLLLLLLL/LL",
"LLL/(')LLLLLLLLLooF00II~UUUI^II!!TIT^^IQERR2FG<<LLLLLLL/LLLLLLLL",
"LLLLLLLL/LLLLLLL..5=%II~UUUI^II!!TII^^hssrr&77<<LLL/LLLLLL{LLLLL",
"LLLLLLLLLLLLLLL/..7%%II~UUIU^II!!TII^^hssre&77<<LLLLLLLLLL/L/L}L",
"LL/LLLLLLLLLLLLLooF00II~UUII~II!!TII^^t>>335GG<5LLLLLLLLLLLLLL/L",
"LLLLLLLLL[/L(L/LOOGqqII~UUIU^IIQ!TII^^awwww3HH<<LLLLL/LLLLLLLLLL",
"LLLLLLLLL'/(/{LLOOG0qII~UUUI^II!!TII^^awwww5HH<<LLLLLLLLLLL/LL/L",
"LLLLLLL/LLL''LLL  O##II~UUII^II!!TII^^IEQjA@OO<</LLLLLLLLLLLLLLL",
"LLLLLLLLLLLLLLLL  O##II~UUII~II!!TII^^IREAA@OO<</LLLLLLLLL/L/LL/",
"LLLLL()LLLLLLL/LOOGqqII~UUII^II!!TII^^IQQYAzJH<<LLLLLLLLLLLLLLLL",
"_)/LLLLLLLLLLLLLOOGqqII~UUUI^II!!TII^^UQQRAzHH<<LLLL/LL/LL/LL/LL",
"`_/`_//LLLLLL/LLOOG0qII^UUIU^IIQ!TII^^IQQYYzJJ<<LLLLLLLL/LLLLLLL",
")(_`/((/LLLLLLLLOOS--uunuuuunnunnntuCCsnnyv1SS55LLLLLLLLLLLLL//L",
"L(/LLLLLLLLL/LLLOOS--uununuunuunnstvCnunnul,SD55/LL//LL/LL/LLLLL"
};
