/* XPM */
static char *result[] = {
/* columns rows colors chars-per-pixel */
"64 64 178 2 ",
"   c #010100",
".  c #0D0603",
"X  c #0F0F0F",
"o  c #120A06",
"O  c #190D07",
"+  c #130D0D",
"@  c #191100",
"#  c #1C130E",
"$  c #0E1010",
"%  c #141414",
"&  c #1B1512",
"*  c #1C1B1C",
"=  c #241A0A",
"-  c #391302",
";  c #261B16",
":  c #29211C",
">  c #312B1A",
",  c #201F20",
"<  c #242324",
"1  c #27252A",
"2  c #29272A",
"3  c #2B292B",
"4  c #312A2A",
"5  c #3E3626",
"6  c #3C342B",
"7  c #302F30",
"8  c #353435",
"9  c #3C3331",
"0  c #393739",
"q  c #3D3B3D",
"w  c #411603",
"e  c #421803",
"r  c #4B1B03",
"t  c #572B15",
"y  c #5D2C14",
"u  c #48321A",
"i  c #56311F",
"p  c #403725",
"a  c #433A26",
"s  c #4A3D27",
"d  c #423A28",
"f  c #553122",
"g  c #5C3525",
"h  c #5F3D2B",
"j  c #403634",
"k  c #423836",
"l  c #433A38",
"z  c #623724",
"x  c #633824",
"c  c #683D27",
"v  c #693E2C",
"b  c #4D4123",
"n  c #564922",
"m  c #4B4238",
"M  c #554D37",
"N  c #6C412C",
"B  c #6B4330",
"V  c #734632",
"C  c #754A35",
"Z  c #7B4E37",
"A  c #7C4F38",
"S  c #4E4441",
"D  c #585758",
"F  c #636263",
"G  c #6E6E6E",
"H  c #717171",
"J  c #7E7E7E",
"K  c #82543D",
"L  c #865842",
"P  c #8C5D43",
"I  c #925F43",
"U  c #986746",
"Y  c #97654D",
"T  c #9C6649",
"R  c #9E6A4E",
"E  c #896453",
"W  c #946A57",
"Q  c #9D6B53",
"!  c #9A715D",
"~  c #A46F40",
"^  c #A46C4D",
"/  c #B57C4D",
"(  c #A46D52",
")  c #A77256",
"_  c #AB7453",
"`  c #A4745B",
"'  c #AC7559",
"]  c #B27553",
"[  c #B47955",
"{  c #BD7D57",
"}  c #B37B5E",
"|  c #A67962",
" . c #A97B65",
".. c #B27D62",
"X. c #BA7F61",
"o. c #B68E0D",
"O. c #B79009",
"+. c #B9910C",
"@. c #A58210",
"#. c #B38A17",
"$. c #CA9E05",
"%. c #CB9D0A",
"&. c #C69713",
"*. c #D2A90D",
"=. c #DBAB0D",
"-. c #D3A515",
";. c #D5A815",
":. c #E0AF02",
">. c #E2B203",
",. c #E9B90B",
"<. c #EBB715",
"1. c #EDB912",
"2. c #FFCC05",
"3. c #F8C211",
"4. c #BD8354",
"5. c #AF816B",
"6. c #B78266",
"7. c #BC8265",
"8. c #B0826B",
"9. c #BD866A",
"0. c #BD896E",
"q. c #BC8A71",
"w. c #C78C58",
"e. c #C18666",
"r. c #C88E61",
"t. c #C2876B",
"y. c #C58C6E",
"u. c #CA8F6F",
"i. c #C08F76",
"p. c #C98F72",
"a. c #CC9073",
"s. c #CA9378",
"d. c #CD997E",
"f. c #D19375",
"g. c #D1967A",
"h. c #D59B7E",
"j. c #838383",
"k. c #8B8B8B",
"l. c #959595",
"z. c #9C9C9C",
"x. c #AF8282",
"c. c #B58482",
"v. c #A2A2A2",
"b. c #AFA9A4",
"n. c #ABACAC",
"m. c #B3B2B3",
"M. c #C79A83",
"N. c #CD9C81",
"B. c #D49D82",
"V. c #D89E80",
"C. c #C59392",
"Z. c #CE9794",
"A. c #D49C94",
"S. c #D99F9C",
"D. c #D6A086",
"F. c #D8A589",
"G. c #DCAA8D",
"H. c #DDAD94",
"J. c #DBA19D",
"K. c #DEB19A",
"L. c #E0B49A",
"P. c #DEA5A5",
"I. c #DEA9A8",
"U. c #C4B7B1",
"Y. c #C4BDBA",
"T. c #E0A9A4",
"R. c #E1AAA9",
"E. c #E3B2B3",
"W. c #C5C5C5",
"Q. c #CBC4C1",
"!. c #CCCDCD",
"~. c gray85",
"^. c #E6DEDA",
"/. c #EBE6E3",
"(. c #F6EBE6",
"). c #F4EFED",
"_. c #FBF5F3",
"`. c #FDFDFD",
/* pixels */
"J j.k.j.j.j.j.j.J J J J J J j.G X                                                     % G J J J J J J J J J J H J J J J J J J J ",
"k.J j.k.z.j.j.j.j.J J J J J J G X                                                     $ H j.j.J J J H J J J J J J J J J J J J J ",
"j.J j.l.j.z.l.J J J J J J J J G %                                                     % H J k.j.J J J J J H J J J J J J J J J J ",
"J J J J j.l.J J J J J J G G G D +                       .     .           .     .     % J H l.H J j.J J J J J J J J H J H J J J ",
"J J j.l.z.k.J H J J J G * X X X t f i i i i f f i i i i i i i i i i i g g g g g g g z f + X X 2 H J j.J J J J J J J J J J J J J ",
"l.J j.j.J J J J H J J G X       i x z x x x x x x x x x x x x x x x z x v v v v v v v h       X H j.J J J J J J J J J J J j.J J ",
"J J j.j.k.J J J J J J H $       i x x x x x x x x x x x x x x x x x x x v v v v v v v g       X H J J j.J J j.J J J J J J J j.J ",
"j.j.j.J J J J J H G G F & . . O g x x x x x x x x x x x x x x x x x z x v v v v v v v z       X H J J J J J J J J J J J J J J J ",
"H J J J J J J H * X $ & E ! ! W v x x x x x x x x x x x x x x x x z x x x x x x v v v g .     X H J J J J J J J J J J J J j.J J ",
"J J J J J J J H X     . ! 5.5.| N z x x z x x x x x x x x x x x x x x x x x x x v v v g       X H J J J J J j.J J J j.J J J J J ",
"J J J J J J J H X     . ! 5.5.| N z x x x x x x x z x x x x x x x x z z x x x x v v v g       X H J J J J J J J J J j.J j.J J J ",
"J J J J j.J J G X     . W | | | C N N v x x x x v v V v v v v v v N N v N N N N V V C v # o O & F H H H J J j.J J J J J J j.l.l.",
"J J j.J J J J H $       C L A L | | | ! v x x v _ } } } ........} } } } } }  .} } } } } t.0.q. .& X X * G J J J J j.J J J j.l.W.",
"J J J J J J J H $     . B Z A A  .8. . .v x x V } e.7.X.X.9.X.X.7.7.7.7.7.7.7.7.7.e.7.r.h.h.V.q.o     X J J J J J J J j.J k.j.m.",
"J J J J J j.J G $       B A A L  . ...| N x x v ..7.6.7.9.X.9.X.7.7.7.7.7.7.7.6.7.X.e.e.g.h.h.t.o     X G J J J J J J J J J l.j.",
"J J J J J J J H $       B A A A |  . .` C N v V ..7.7.7.X.9.X.7.7.7.7.7.7.7.7.7.e.7.X.e.g.h.h.0.o     X G J J J J J J J J J J j.",
"j.J J J J J J H X     . N A Z A A L A L ' } }  .7.7.7.6.7.7.7.7.7.7.6.7.7.7.7.7.7.7.7.7.p.p.a.6.o     X G J J J J J J J J J j.l.",
"z.k.j.J J J J G X       B Z Z Z Z A Z K 6.7.7.7.6.X.7.7.X.7.7.7.7.7.7.7.7.6.7.7.7.7.7.7.y.p.p.} o     X G J J J J J J J J J J j.",
"k.k.J J J J J G X       B A Z Z Z A Z K } 7.7.7.6.7.7.7.7.7.7.6.6.7.7.X.7.7.7.7.7.9.7.7.y.p.p. .o     X G J J J J J J j.J J j.J ",
"J J l.J J J J G X       B Z Z Z Z Z Z K ..7.7.7.7.7.7.6.7.7.7.7.7.7.6.7.7.7.7.6.7.7.6.6.y.p.a...o     X G J J J J J J J j.J J j.",
"J J J J J H J G $     . B Z Z Z Z Z Z K } 7.7.7.7.7.7.7.7.7.7.7.7.X.7.7.7.7.7.7.7.e.4.t.y.p.p....     X H J J J J J J J J J z.j.",
"J J J J J J J H $       B Z Z Z Z Z Z K ..7.7.7.7.7.7.7.7.7.7.7.6.7.7.7.7.7.7.7.7.7.e.7.u.p.p. .o     X G J J J J J J J J J j.k.",
"J J J J J J J H $       B Z Z Z Z Z Z K ..7.7.7.7.X.7.7.6.7.7.7.7.7.7.7.7.7.7.7.e.7.7.e.u.p.a...o     X G H J J J J J J J J J j.",
"J J j.J J J J H $     . B Z Z A K K K P X.7.9.7.0.q.q.0.` ` ) ` X.7.6.7.7.7.7.7.9.q.t.9.6... .Q .     X G J J J J J H J j.k.J j.",
"j.J J J J J J H $       B Z Z K ' } } 4.p.a.a.s.U.Y.Y.b.; . . ; | X.7.7.7.7.7.q.m.Y.Y.b.: o o .       X G J J J J J J J J J J l.",
"J J J J J J J H X     . B Z Z K } e.e.t.a.f.f.B.Y.W.W.n.X     . ` 7.6.7.7.7.X.q.Y.W.Q.n.$             X G J J j.J J J J J j.j.j.",
"j.J J J J J J H X       B A Z K } e.X.e.a.f.f.B.Q.W.W.n.%     . ` 7.7.X.7.7.X.q.Y.W.W.n.X             X G J J J J J J J J J J J ",
"J J J J J J J H X     . N Z Z K } 7.e.e.s.g.g.B.Q.!.!.m.&     O ' t.0.t.t.0.t.i.Q.!.!.m.&             X H J J J J J J J J J J J ",
"J J J J J J J G X       B A Z K { e.7.e.S.J.J.R.)._.`.^.f w e t s.F.D.F.F.D.F.H.).`.`.^.g w e -       X H J J j.J J J J J j.J J ",
"J J J J J J J G X     . N A Z K } e.e.t.J.R.T.E._.`.`./.x r r y N.G.G.G.G.G.G.L._.`.`./.x r r e       X H J J J j.J J J J J J J ",
"J J J J J J J G X       B Z Z K } e.X.t.J.R.T.E._.`.`./.x r r y d.G.G.G.G.G.G.L._.`.`./.x e r w       X G J J J J J J J J J J J ",
"J J J J J J H H * X X + B B B C 4.w.w.r.A.J.S.R.(._._.^.V y y x N.G.G.G.G.G.G.K.(._._.^.C y y t       X G J J J J J J J J J J J ",
"J J J J J J J H G H H F + .   = =.3.3.1.{ } } X.h.D.D.D.p.y.u.a.F.G.G.G.G.G.G.G.K.K.K.K.A.Z.A.c.+     X G J J J J J J J J J J J ",
"J J J J J J J J J J J H X     @ >.2.2.3./ ] ] [ u.f.f.a.h.B.h.V.G.G.G.G.G.G.G.G.G.G.G.G.P.I.R.C.+     X G J J j.J J J J J J j.J ",
"j.J J J J J J J J J J H X     @ >.2.2.1.w.] ] [ a.f.f.f.h.h.B.B.G.G.G.G.G.H.G.G.G.G.G.H.T.T.R.C.+     X G J J J J J J J J J k.J ",
"J J J J J J J J j.J J H * X X = $.>.>.=.~ I Y ^ y.a.p.a.g.d.g.g.d.N.N.N.N.N.N.N.d.M.M.M.C.C.C.x.& X X * G J J J J J J J J J J J ",
"J J J J J J J J J J J H G G G F = @ @ @ . . . = R } ' } } } ' ) Z V V C C C V N k k k 9 & + + * F H G H J J J J J J J J J J J J ",
"J J J J J J J J J J J J J J J G %             . Y ' ' _ ' ' ' ( N g z z z z z g 4 2 3 <       $ H j.J J J J J J J J J J J J J J ",
"J J J J j.J H J J J J J J J J H $             . Y ' ' ' _ ' ' ( N z c z x x z g 4 3 2 <       $ H J J J J J J J J J J J J J J j.",
"J J J J J J J J J J J H G G H F $             O U / ] _ Q Q Q Y N i g g g g g g s a a p       $ F G G G J J J J J J j.J J J J J ",
"J J J J J J J J J J J G * X $ X < < < < < < < 5 #.+.&.#.m 9 9 8 4 4 4 4 4 4 4 s *.,.,.*.m 8 8 7 X X X * H J J J J J J J J J J J ",
"J k.k.k.j.J j.J J J J G X       2 3 3 7 7 3 3 a o.%.%.+.5 2 2 2 2 2 2 2 2 3 2 a ,.2.2.,.M q q 0       X G J J J J J J J H J J J ",
"j.k.J J j.J J J J J J G X       < 3 3 3 3 7 3 5 o.%.%.O.5 2 2 2 3 3 2 2 2 2 2 a ,.2.2.,.M q S 8       X H J J J J J J J J J J J ",
"k.z.l.z.J J J J H G G F X       2 3 7 3 3 3 7 5 @.o.O.@.b 5 5 5 d a a a p a p n *.,.,.*.M 0 0 8       X F H G H J J J J J J j.J ",
"k.v.J J j.k.J H * $ $ $ , 2 < 2 3 7 3 7 3 3 2 3 4 > > u @.o.o.+.-.-.;.-.$.$.$.O.n a a a 4 3 3 4 0 8 8 8 $ $ X * G J J J J J k.j.",
"j.J j.j.J J J G $       2 7 3 3 3 3 3 3 3 3 2 2 * * % > o.%.%.%.<.1.1.1.>.>.>.$.p 2 2 2 3 3 3 3 q q q 8       X G J J J k.J J J ",
"J k.j.J J J J H $       < 3 7 3 3 3 3 3 3 3 3 2 * * * > o.%.%.%.<.1.1.1.:.:.>.$.p 2 2 3 3 2 3 3 q q q 8       X G J J j.J J z.J ",
"J j.J J J J J G $       7 6 9 6 k l k 9 3 3 3 < , * * > @.o.o.+.-.-.;.-.$.$.$.o.p 2 3 2 3 3 2 3 m S S l       X G J J J J j.J J ",
"J J J J J J J H $     . P ^ ^ ( 7.0.t. .j 2 2 3 2 2 2 2 5 5 5 5 d d d d d p p p 3 2 2 3 2 3 1 6 Q _ _ Y .     X G J J J J J J J ",
"J J J j.J J J H $     . T ] ] [ a.f.f.0.j 2 3 2 3 2 2 3 3 3 2 2 3 2 3 3 2 2 2 2 3 3 3 3 3 3 1 9 ) { { ^ .     X H J J j.j.J j.k.",
"J J J J J J j.H %     . T ] ] [ a.g.f.9.j 2 2 2 2 3 3 2 3 3 3 2 3 2 3 3 3 3 3 3 3 2 3 2 2 3 3 9 _ { { ^ .     $ H J J J j.J J j.",
"J J J j.k.n.l.H X     . P T T ( ..6.7.| 6 2 2 2 2 2 2 2 3 3 3 3 3 3 3 3 3 3 3 3 2 3 2 2 < < < 4 U ^ ^ I # X X * H J J J J J J J ",
"j.J J J J J J G $       . . . . o o o o * * , * ; * * , 0 q q q q q q 0 q q q 0 3 3 2 <         . . . # F H G H J J W.J J J J J ",
"J J J J J J J G X                       % * * * * * * , 0 q q q l q q q q q q q 4 2 2 <               X H J J J J J J J j.J ~.J ",
"J J J J J J J G X                       % * * * * * * , q q q q q q q q q q q q 3 2 3 ,               X G J j.J J J J J J J j.J ",
"J J J J J J J H * % % X $ X X X         , 2 < < % * % * 7 8 0 8 0 8 8 0 8 0 8 8 8 8 8 4         X X X * H J J J J J J J J J J J ",
"J J J J J J J J H l.G H J n.G F X       D G F D                               $ F J H F X     X F H G G J J J J J J J J j.J J j.",
"J J J J J J J J J j.J n.n.J J G X       F G G F .                               H j.j.H .     $ H J J J J J J J J J J J J J J J ",
"J J J J J J J J j.J J J J J ! H $       F G G F .                             . H j.j.H       X H J J J J J J j.J J j.J J J J J ",
"J J J J J k.l.J J J J J J J j.H %       D F F D .       X $ X $ $ $ $ X       . F J H F X     X G J J J J J J J J J J J j.J J j.",
"l.z.J J J J J J J J J J J J J H $       < < 2 <       $ F H G H H G H F $       < 3 2 <       X G J J J J J J J J J J J J J j.J ",
"v.z.k.v.z.k.J J J J J J j.J J H X       % * * %       $ H J J J J J J H $       % * * %       X G J j.J J j.j.J J j.J J J J J J ",
"l.k.z.z.J k.k.j.J J J J J J J G $       % * * %       $ G J J J J J J G $       % * * *       X H J J J J J J J J j.J j.j.J J j.",
"J k.j.J J J J J J J J J J J J H $       % * * %       $ G J J J J J J H $       % * * %       X G j.J J J J j.J J J J J J J J J "
};
