/* XPM */
static char *result[] = {
/* columns rows colors chars-per-pixel */
"64 64 180 2 ",
"   c #010100",
".  c #0D0603",
"X  c #0F0F0F",
"o  c #100704",
"O  c #120A06",
"+  c #190D07",
"@  c #120D0D",
"#  c #191100",
"$  c #1C130E",
"%  c #0E1010",
"&  c #141414",
"*  c #1B1512",
"=  c #1C1B1C",
"-  c #241A0A",
";  c #391302",
":  c #261B16",
">  c #29211C",
",  c #312B1A",
"<  c #201F20",
"1  c #242324",
"2  c #27252A",
"3  c #29272A",
"4  c #2B292B",
"5  c #312A2A",
"6  c #3E3626",
"7  c #3C342B",
"8  c #302F30",
"9  c #353435",
"0  c #3C3331",
"q  c #393739",
"w  c #3D3B3D",
"e  c #421803",
"r  c #4B1B03",
"t  c #4F2C1C",
"y  c #572B15",
"u  c #5D2C14",
"i  c #423818",
"p  c #56311F",
"a  c #403725",
"s  c #433A26",
"d  c #4A3D27",
"f  c #423A28",
"g  c #553121",
"h  c #5C3525",
"j  c #403634",
"k  c #423836",
"l  c #433A38",
"z  c #623724",
"x  c #633824",
"c  c #683D27",
"v  c #693E2C",
"b  c #4D4123",
"n  c #564922",
"m  c #4B4238",
"M  c #554D37",
"N  c #6C412C",
"B  c #6B4330",
"V  c #734632",
"C  c #754A35",
"Z  c #7B4E37",
"A  c #7C4F38",
"S  c #4E4441",
"D  c #585758",
"F  c #636263",
"G  c #6E6E6E",
"H  c #717171",
"J  c #7E7E7E",
"K  c #82543D",
"L  c #865842",
"P  c #8C5D43",
"I  c #966445",
"U  c #97654D",
"Y  c #9C6649",
"T  c #9E6A4E",
"R  c #896453",
"E  c #946A57",
"W  c #9D6B53",
"Q  c #9A715D",
"!  c #A46F40",
"~  c #A46C4D",
"^  c #B57C4D",
"/  c #A46D52",
"(  c #A77256",
")  c #AB7453",
"_  c #A4745B",
"`  c #AC7559",
"'  c #B27553",
"]  c #B47955",
"[  c #BD7D57",
"{  c #B37B5E",
"}  c #A67962",
"|  c #A97B65",
" . c #B27D62",
".. c #BA7F61",
"X. c #B68E0D",
"o. c #B79009",
"O. c #B9910C",
"+. c #A58210",
"@. c #B38A17",
"#. c #CA9E05",
"$. c #CB9D0A",
"%. c #C69713",
"&. c #D2A90D",
"*. c #DBAB0D",
"=. c #D3A515",
"-. c #D5A815",
";. c #E0AF02",
":. c #E2B203",
">. c #E9B90B",
",. c #EBB715",
"<. c #EDB912",
"1. c #FFCC05",
"2. c #F8C211",
"3. c #BC804B",
"4. c #BD8354",
"5. c #AF816B",
"6. c #B78266",
"7. c #BC8265",
"8. c #B0826B",
"9. c #BD866A",
"0. c #BD896E",
"q. c #BC8A71",
"w. c #C78C58",
"e. c #C18666",
"r. c #C88E61",
"t. c #C2876B",
"y. c #C58C6E",
"u. c #CA8F6F",
"i. c #C98F72",
"p. c #CC9073",
"a. c #CA9378",
"s. c #CD997E",
"d. c #D19375",
"f. c #D1967A",
"g. c #D59B7E",
"h. c #838383",
"j. c #8C8C8C",
"k. c #959595",
"l. c #9C9C9C",
"z. c #AF8282",
"x. c #B58482",
"c. c #A2A2A2",
"v. c #AFA9A4",
"b. c #ABACAC",
"n. c #B3B2B3",
"m. c gray73",
"M. c #C79A83",
"N. c #CD9C81",
"B. c #D49D82",
"V. c #D89E80",
"C. c #C59392",
"Z. c #CE9794",
"A. c #D49C94",
"S. c #D99F9C",
"D. c #D6A086",
"F. c #D8A487",
"G. c #D8A589",
"H. c #DCAA8D",
"J. c #DDAD94",
"K. c #DBA19D",
"L. c #DEB19A",
"P. c #E0B49A",
"I. c #DEA5A5",
"U. c #C2B5AF",
"Y. c #C4B7B1",
"T. c #C4BDBA",
"R. c #E0A9A4",
"E. c #E1AAA9",
"W. c #E3B2B3",
"Q. c #C5C5C5",
"!. c #CBC4C1",
"~. c #CCCDCD",
"^. c gray85",
"/. c #E6DEDA",
"(. c #EBE6E3",
"). c #F6EBE6",
"_. c #F4EFED",
"`. c #F9F3EF",
"'. c #FBF5F3",
"]. c #FDFDFD",
/* pixels */
"J h.j.h.h.h.J J J J J J J J h.J J J J G X                                                     X G J J J J J J J J J J J J H J J ",
"j.J h.j.l.h.h.j.J J J J h.J J J J J J G X                                                     X G J H J J J J H J J J J J J J J ",
"h.J h.k.h.l.j.h.J J J J J J J H J J J G X                                                     & G J J J J H J J J J J J J J J J ",
"J J J J j.k.J H J J J J H J J J G G G F X   .     .       .                         .         @ F H G G J J J J J J H h.J J J J ",
"J J h.k.l.j.J J J J J J J J J G = X % X g h h h h h h h p p p p p p p p p p p p p p p p p g p t & @ X = H J J J J J J J J J J J ",
"k.J h.h.J J J J H J J J J J J G %       h v v v v v v v x x x x x x x x x x x x x x x x x x x p       X G h.J J J J J J J J h.J ",
"J J h.h.j.J J J J J J J J J J G %       h v v v v v v v x x x x x x x x x x x x x x x x x x z p       % G J J J J J J J J J J J ",
"h.h.h.J J J J J J J J J J J J H %     . h v v v v v v v x x x x x x x x x c x x x x x x x x z h + . . * F H H H J J J J J J J J ",
"J J J J J J J J J J h.J J J J G X       z v v v c x c x x x x x x x z x x x x x x x x x z z z N E Q Q R * X X = H J h.J J J J J ",
"J J H J J J J h.J J J J J J J G X       h v v v z x z x x x x x x x x x x x x x x x x x z z z N } 5.5.Q .     X G J J J J J h.J ",
"J J J J J J h.J J J J J J J J H X       h v v v z z x x z z c x x x z z x x z z x x x x z z h N } 5.5.Q .     X G J J J h.J J J ",
"J J J h.J J J J J J J J H H H F * O O - N V V V v v v V v v v v v N v v N v N v x x x x N N N V } | | E .     X H J h.J J h.k.k.",
"J J J h.J J J J h.J J H = X X * | 0.0.0.{ ] { { { { { {  . . . .{ {  .{ {  . .( v x x v _ } } } L A L C .     X H J J h.J J k.Q.",
"J J J J J J J J J J J G &     O 0.V.g.g.e.e.e.7.e.e.7...7.7.....e.e.7.7.7.....{ N x x N } 8.5.| A Z A B       X G J J J J j.h.n.",
"J J J J J h.J J J J J G X     O 0.g.g.f.e.e.7.e.7...7.7.6.7.7.....7...7.7.7.7.{ N x x v } 5.5.} A Z A B .     X H h.J J J J k.j.",
"J J J J J J J J J J J G X     O 0.g.g.f.e.7.e.7.7.7.7.6.7.7.7.7.7.7.7.7.7.7.7. .Z v v C _ } } } A Z Z B       X G J J J J J J J ",
"J J h.J J J J J J J J G X     O  .p.i.i.6.7.7.7.7.7.6.7.7...7.7...9...q...9..... . . .` L K K K A A A B .     X G J J J J J h.k.",
"l.j.J J J J J J J J J G X     o | i.i.i.6.7.7.7.7.7.7.7.6.6.7.7.............9.....7... .K A C Z A A A B       X H J J J J J h.h.",
"j.j.J J J J J J J J J G X     O  .i.i.y.7.7.7.7.7.7.7.7.7.7.7.7.9.....9.9.....q.e..... .K A A Z A A A B .     X G J J J J h.J J ",
"h.J k.J J J J J J J J H X     O  .p.i.y.7.7.7.7.7.7.6.7.7.7.7.6...9...9...9...9....... .K Z Z Z Z A A B       X H J h.J J J J h.",
"J J J J H J J J J J J H X     o | i.i.u.7.e.7.7.7.6.7.7.7.7.7.7.9.9...9...9.......9... .K Z Z Z Z Z A B       X H J J J J J l.h.",
"J J J J J J J J J J J H X     O  .i.i.y.e.7.4.e.7.7.7.7.7.7.7.6.........9.....9.t..... .K Z Z Z Z Z Z B       % G J J J J J h.j.",
"J J h.J J h.J J J J J H X     O  .p.p.y.7.7.e.7.7.7.7.7.7.7.7.7.....9.9.....9.......9. .K Z A A Z Z A B .     % G J H J J J J h.",
"J J J J J J J J J J J G X     . W 6. . .0.y.q.t.7.7.7.7.7.7.6.7.` _ _ } q.q.q.q.t.t.....P K K K A Z Z B       % G J J J J j.h.h.",
"J h.J J J J J J J J J H X       . o o > v.T.T.U.0.7.7.7.7.7.6._ : . . : b.T.T.Y.a.d.i.i...{ { ] K A A B       X G J J J J J J k.",
"J J J J J J J h.J J J H X             % b.Q.Q.T.q.7.7.7.7.7.7.( .     X b.Q.Q.T.s.d.d.d.e.e.e.{ K Z A B .     % G J h.J J h.h.h.",
"J J J J J J J J J J J G &             % b.Q.Q.T.q.7.7.7.7.7.6._ .     & n.Q.Q.T.N.d.d.p.e...e.{ K Z A N       X G J J J J J J J ",
"J J J J J J J J J J J G X             * n.~.~.!.q.9.9.9.t.9.t._ +     * n.~.~.!.B.f.f.d.e...e.[ K Z A B       X G J J J J J J J ",
"J J J J J J J J J J J G X       ; e ; h /.].]._.L.F.F.F.F.F.G.a.y e e g /.].'._.E.I.K.S.e...e...K Z A N .     X G J J J J J J J ",
"h.J J J H J J J J J J G X       e r r x (.].].'.P.H.H.H.H.H.H.s.u r r z (.].].'.W.E.E.S.t.e...{ K Z Z B       X G J J J J h.h.J ",
"J J J J J J J J J J J G X       e r r x (.].].'.P.H.H.H.H.H.H.s.u r r z (.].].'.W.R.E.K.t.e.7...L A A B .     % G J J J J J J J ",
"J J J J J J J J J J J G X       y u u V /.'.'.).P.H.H.H.H.H.H.s.c u u V /.`.'.).E.S.S.A.r.w.w.4.C v V n @ X X = H J J J J J J J ",
"J J J J J J J H J h.J H X     O x.Z.Z.A.L.P.P.P.H.H.H.H.H.H.H.G.u.y.u.i.D.F.D.s.7.{ { w.,.<.2.*.- . . X F G G H J J J J J J J J ",
"J J J J J J J J J J J H X     @ C.E.I.R.H.H.H.H.H.H.H.H.H.H.H.G.g.g.g.g.d.p.d.u.] ) ' ^ 2.1.1.:.#     % H J J h.J J J J J J J J ",
"h.J J J J J J J J J J H X     @ C.E.E.R.J.H.H.H.H.H.H.J.H.H.H.H.F.g.g.g.d.d.d.p.] ' ' 3.2.1.1.:.#     X G J J J J J J J J J j.J ",
"J J J J J J J J J J J H = X X = z.C.C.C.M.M.M.s.N.B.N.N.N.N.B.s.f.f.s.d.p.p.p.y.~ Y Y ! *.:.:.#.- X X = G J J J J J J J J J J J ",
"J J J J J J J J J J J H G G G F : @ @ * 0 k q l B V V V V V V Z ( { { ] ] ` { W - . . . # # # - F H G H J J J J J J J h.J J J J ",
"J J J J J J J J J J J J J J J G X       1 3 3 5 h z z z x x z c / ` ` ` ` ` ` U .             % H J J J J J J J J J J J J J J J ",
"J J J J h.J H J J J J J J J J H &       1 1 3 4 h c z x x x x v / ` ` ` ` _ ` U .             % H J J J J J J J J J J J h.J h.J ",
"J J J J J h.J J J H J J G G H F X       6 s b d h h h h h h h v U W W W ) ^ ^ Y O             % F G G G J J J J J J J J J J J J ",
"J J h.J h.J J J J J J G = X & X 8 9 9 m &.>.>.&.d 5 5 5 5 5 5 5 0 0 0 d @.%.%.@.5 1 1 1 1 1 1 1 X X X = H J J J J J J J J J J H ",
"J j.h.j.h.J h.J J J J G X       9 w w M >.1.1.>.d 4 2 3 3 3 4 4 2 2 2 6 X.$.$.X.6 4 4 8 4 4 8 1       X G J J J J J J J J J J J ",
"h.j.h.h.h.J J J J J J G X       9 w w M >.1.1.>.s 2 4 4 3 3 4 4 3 2 2 6 X.$.$.X.6 4 8 4 4 8 8 1       X H J J J J J J J J J J J ",
"h.l.k.l.J J J J G G G F X       9 w w M &.>.>.&.n a a s s s a a 6 6 6 b +.X.X.+.6 4 8 4 3 8 4 1       X F H G H J J J J J J J J ",
"j.c.J J J h.h.H = X X X 9 9 9 9 5 4 4 5 f s s n O.#.#.#.-.-.=.=.O.X.X.+.i , , , 4 4 3 4 4 8 8 3 2 3 3 < X X X = G J J J J J j.J ",
"h.J h.h.J h.J G X       9 w w w 4 3 4 4 3 3 2 s #.;.;.;.<.<.<.,.$.$.$.@., = = = 3 4 4 4 4 4 3 8 4 4 4 3       X G J J J j.h.h.J ",
"J j.h.J J J J H X       9 w w w 8 3 4 3 3 3 3 s #.;.;.;.<.<.<.,.$.$.$.X., = = = 3 4 3 4 4 4 4 4 4 4 4 3       X G J J h.h.J l.J ",
"h.J J J J J J H %       l S S S 4 3 3 4 4 3 3 6 o.#.#.#.=.-.-.=.O.X.O.+., = = < 3 3 4 4 0 k m 0 k 7 0 5       % G J J J J J J J ",
"J J J J J J J H X     . I ` ) T 0 3 3 4 4 3 4 4 a s a s f f f f 6 6 6 6 4 4 1 3 4 3 3 0 | t.9.9./ ~ ~ P .     X G J J J J J J J ",
"J J h.J J J J H %     . ~ [ [ ) 0 3 3 3 3 4 4 3 3 3 3 3 3 4 4 4 3 3 3 3 1 4 4 3 3 3 3 j t.d.d.i.] ] ] Y .     X H J J J h.J J k.",
"J J J J J J h.H &     . ~ [ [ ) 7 3 3 3 4 3 4 4 4 4 3 4 4 4 3 4 4 3 4 4 4 4 4 4 4 4 3 j 0.d.d.p.] ' ] Y .     X H J h.J J h.J J ",
"J J J h.k.c.k.G = X X $ P ~ ~ I 5 1 1 3 3 4 4 3 4 4 4 4 4 4 4 4 4 4 4 4 4 3 3 3 3 3 2 0 } 7.6. .~ Y Y L .     X G J J J J J J J ",
"J J J J J J J J H G G F $ . o .         2 3 3 3 q w w w w w w w w w w q < = = = = = : = @ O O O . . . .       X G h.Q.J J J J J ",
"J J J J J J J J J J J H @               1 3 3 8 w l w w w w w w w w w q < = = = = = = &                       X H J J J h.J ^.J ",
"J J J J J J J J J J h.H X               1 3 2 3 w w w w w w w w w w w w < = = = = = = &                       X G J J J J J h.J ",
"J J h.J J J J J J m.h.H = X X X         4 9 9 9 9 9 9 9 9 9 q 9 9 9 9 9 = = & & 1 1 2 1         X X X X X X X = H J J J J J J J ",
"J J J J J J J J h.b.J h.J b.G D X     . G H H G X                               D F F D       X F H H H G G G G J J J J J J h.J ",
"J J J J J h.J J J J J b.b.J h.H X       H h.h.H .                             . F G H F       % H J J J J J J J J J h.J J J J J ",
"J J J h.J J h.J J J h.J J J 5.G %     . H h.J G                               . F H G F .     % H J J J J J J J J J J J h.J J h.",
"J J J J J h.k.J J J J J J J J G %       F J H G X       X X X % % % % X         D F F D       % G J J J J J h.J J J J J J J J J ",
"l.k.J J h.J J J J J h.J J J J H X       1 3 3 3       X F H H H G H H F %       1 3 3 =       X G J J J J J h.J J J J J J h.J J ",
"c.l.h.c.l.h.J J J J J J J J J G X       & = = &       X H J J J J J J H %       & = = &       X H J h.J J J J J J J h.J J J J J ",
"k.j.c.l.J j.j.h.J J J J J J J G X       = = = &       X G J J J J J J G X       & = = =       X G h.J J J h.h.J h.J h.J J h.h.J ",
"J j.h.J J J J J J J J J J J J G X       & = = &       X G J J J J J J G X       & = = &       X H J J J J J J J J J J J J J J J "
};
